<?xml version="1.0" encoding="UTF-8" standalone="no"?>
<!DOCTYPE svg PUBLIC "-//W3C//DTD SVG 1.1//EN"
 "http://www.w3.org/Graphics/SVG/1.1/DTD/svg11.dtd">
<!-- Generated by graphviz version 2.43.0 (0)
 -->
<!-- Title: examples/basic_usage.cpp Pages: 1 -->
<!--zoomable 247 -->

<svg id="main" version="1.1" xmlns="http://www.w3.org/2000/svg" xmlns:xlink="http://www.w3.org/1999/xlink" xml:space="preserve" onload="init(evt)">
<style type="text/css"><![CDATA[
.node, .edge {opacity: 0.7;}
.node.selected, .edge.selected {opacity: 1;}
.edge:hover path { stroke: red; }
.edge:hover polygon { stroke: red; fill: red; }
]]></style>

<defs>
  <circle id="rim" cx="0" cy="0" r="7"/>
  <circle id="rim2" cx="0" cy="0" r="3.5"/>
  <g id="zoomPlus">
    <use xlink:href="#rim" fill="#404040"><set attributeName="fill" to="#808080" begin="zoomplus.mouseover" end="zoomplus.mouseout"/></use>
    <path d="M-4,0h8M0,-4v8" fill="none" stroke="white" stroke-width="1.5" pointer-events="none"/>
  </g>
  <g id="zoomMin">
    <use xlink:href="#rim" fill="#404040"><set attributeName="fill" to="#808080" begin="zoomminus.mouseover" end="zoomminus.mouseout"/></use>
    <path d="M-4,0h8" fill="none" stroke="white" stroke-width="1.5" pointer-events="none"/>
  </g>
  <g id="arrowUp" transform="translate(30 24)">
    <use xlink:href="#rim"/>
    <path pointer-events="none" fill="none" stroke="white" stroke-width="1.5" d="M0,-3.0v7 M-2.5,-0.5L0,-3.0L2.5,-0.5"/>
  </g>
  <g id="arrowRight" transform="rotate(90) translate(36 -43)">
    <use xlink:href="#rim"/>
    <path pointer-events="none" fill="none" stroke="white" stroke-width="1.5" d="M0,-3.0v7 M-2.5,-0.5L0,-3.0L2.5,-0.5"/>
  </g>
  <g id="arrowDown" transform="rotate(180) translate(-30 -48)">
    <use xlink:href="#rim"/>
    <path pointer-events="none" fill="none" stroke="white" stroke-width="1.5" d="M0,-3.0v7 M-2.5,-0.5L0,-3.0L2.5,-0.5"/>
  </g>
  <g id="arrowLeft" transform="rotate(270) translate(-36 17)">
    <use xlink:href="#rim"/>
    <path pointer-events="none" fill="none" stroke="white" stroke-width="1.5" d="M0,-3.0v7 M-2.5,-0.5L0,-3.0L2.5,-0.5"/>
  </g>
  <g id="resetDef">
    <use xlink:href="#rim2" fill="#404040"><set attributeName="fill" to="#808080" begin="reset.mouseover" end="reset.mouseout"/></use>
  </g>
</defs>
<script type="application/ecmascript">
var viewWidth = 1141;
var viewHeight = 247;
var sectionId = 'dynsection-0';
</script>
<script type="application/ecmascript" xlink:href="svg.min.js"/>
<svg id="graph" class="graph">
<g id="viewport">
<title>examples/basic_usage.cpp</title>
<!-- Node1 -->
<g id="Node000001" class="node">
<title>Node1</title>
<g id="a_Node000001"><a xlink:title=" ">
<polygon fill="#999999" stroke="#666666" points="296,-239 148,-239 148,-220 296,-220 296,-239"/>
<text text-anchor="middle" x="222" y="-227" font-family="Helvetica,sans-Serif" font-size="10.00">examples/basic_usage.cpp</text>
</a>
</g>
</g>
<!-- Node2 -->
<g id="Node000002" class="node">
<title>Node2</title>
<g id="a_Node000002"><a xlink:title=" ">
<polygon fill="#e0e0e0" stroke="#999999" points="60,-184 0,-184 0,-165 60,-165 60,-184"/>
<text text-anchor="middle" x="30" y="-172" font-family="Helvetica,sans-Serif" font-size="10.00">iostream</text>
</a>
</g>
</g>
<!-- Node1&#45;&gt;Node2 -->
<g id="edge1_Node000001_Node000002" class="edge">
<title>Node1&#45;&gt;Node2</title>
<g id="a_edge1_Node000001_Node000002"><a xlink:title=" ">
<path fill="none" stroke="#63b8ff" d="M191.15,-219.98C158.21,-210.89 105.88,-196.45 69.84,-186.5"/>
<polygon fill="#63b8ff" stroke="#63b8ff" points="70.71,-183.11 60.14,-183.82 68.85,-189.85 70.71,-183.11"/>
</a>
</g>
</g>
<!-- Node3 -->
<g id="Node000003" class="node">
<title>Node3</title>
<g id="a_Node000003"><a xlink:title=" ">
<polygon fill="#e0e0e0" stroke="#999999" points="128,-184 78,-184 78,-165 128,-165 128,-184"/>
<text text-anchor="middle" x="103" y="-172" font-family="Helvetica,sans-Serif" font-size="10.00">chrono</text>
</a>
</g>
</g>
<!-- Node1&#45;&gt;Node3 -->
<g id="edge2_Node000001_Node000003" class="edge">
<title>Node1&#45;&gt;Node3</title>
<g id="a_edge2_Node000001_Node000003"><a xlink:title=" ">
<path fill="none" stroke="#63b8ff" d="M202.88,-219.98C183.65,-211.42 153.77,-198.11 131.69,-188.28"/>
<polygon fill="#63b8ff" stroke="#63b8ff" points="133.03,-185.04 122.47,-184.17 130.18,-191.44 133.03,-185.04"/>
</a>
</g>
</g>
<!-- Node4 -->
<g id="Node000004" class="node">
<title>Node4</title>
<g id="a_Node000004"><a xlink:title=" ">
<polygon fill="#e0e0e0" stroke="#999999" points="194,-184 146,-184 146,-165 194,-165 194,-184"/>
<text text-anchor="middle" x="170" y="-172" font-family="Helvetica,sans-Serif" font-size="10.00">thread</text>
</a>
</g>
</g>
<!-- Node1&#45;&gt;Node4 -->
<g id="edge3_Node000001_Node000004" class="edge">
<title>Node1&#45;&gt;Node4</title>
<g id="a_edge3_Node000001_Node000004"><a xlink:title=" ">
<path fill="none" stroke="#63b8ff" d="M213.41,-219.75C205.84,-212.03 194.62,-200.6 185.49,-191.28"/>
<polygon fill="#63b8ff" stroke="#63b8ff" points="187.93,-188.78 178.43,-184.09 182.93,-193.68 187.93,-188.78"/>
</a>
</g>
</g>
<!-- Node5 -->
<g id="Node000005" class="node">
<title>Node5</title>
<g id="a_Node000005"><a xlink:title=" ">
<polygon fill="#e0e0e0" stroke="#999999" points="407,-19 357,-19 357,0 407,0 407,-19"/>
<text text-anchor="middle" x="382" y="-7" font-family="Helvetica,sans-Serif" font-size="10.00">cstring</text>
</a>
</g>
</g>
<!-- Node1&#45;&gt;Node5 -->
<g id="edge4_Node000001_Node000005" class="edge">
<title>Node1&#45;&gt;Node5</title>
<g id="a_edge4_Node000001_Node000005"><a xlink:title=" ">
<path fill="none" stroke="#63b8ff" d="M221.97,-219.66C222.37,-191.77 227.3,-104.6 272,-55 291.43,-33.44 322.78,-22.13 347.06,-16.32"/>
<polygon fill="#63b8ff" stroke="#63b8ff" points="347.95,-19.71 356.97,-14.16 346.45,-12.87 347.95,-19.71"/>
</a>
</g>
</g>
<!-- Node6 -->
<g id="Node000006" class="node">
<title>Node6</title>
<g id="a_Node000006"><a xlink:href="posix__shm_8h.html" target="_top" xlink:title="Core POSIX shared memory management with automatic reference counting.">
<polygon fill="white" stroke="#666666" points="690,-129 612,-129 612,-110 690,-110 690,-129"/>
<text text-anchor="middle" x="651" y="-117" font-family="Helvetica,sans-Serif" font-size="10.00">posix_shm.h</text>
</a>
</g>
</g>
<!-- Node1&#45;&gt;Node6 -->
<g id="edge5_Node000001_Node000006" class="edge">
<title>Node1&#45;&gt;Node6</title>
<g id="a_edge5_Node000001_Node000006"><a xlink:title=" ">
<path fill="none" stroke="#63b8ff" d="M256.02,-219.94C333.15,-200.52 521.23,-153.17 607.03,-131.57"/>
<polygon fill="#63b8ff" stroke="#63b8ff" points="608.13,-134.9 616.97,-129.07 606.42,-128.11 608.13,-134.9"/>
</a>
</g>
</g>
<!-- Node21 -->
<g id="Node000021" class="node">
<title>Node21</title>
<g id="a_Node000021"><a xlink:href="shm__array_8h.html" target="_top" xlink:title="Fixed&#45;size shared memory array with STL compatibility.">
<polygon fill="white" stroke="#666666" points="724,-184 648,-184 648,-165 724,-165 724,-184"/>
<text text-anchor="middle" x="686" y="-172" font-family="Helvetica,sans-Serif" font-size="10.00">shm_array.h</text>
</a>
</g>
</g>
<!-- Node1&#45;&gt;Node21 -->
<g id="edge23_Node000001_Node000021" class="edge">
<title>Node1&#45;&gt;Node21</title>
<g id="a_edge23_Node000001_Node000021"><a xlink:title=" ">
<path fill="none" stroke="#63b8ff" d="M296.04,-220.04C391.97,-209.08 556.54,-190.29 637.76,-181.01"/>
<polygon fill="#63b8ff" stroke="#63b8ff" points="638.18,-184.49 647.72,-179.87 637.38,-177.53 638.18,-184.49"/>
</a>
</g>
</g>
<!-- Node27 -->
<g id="Node000027" class="node">
<title>Node27</title>
<g id="a_Node000027"><a xlink:href="shm__queue_8h.html" target="_top" xlink:title=" ">
<polygon fill="white" stroke="#666666" points="975,-184 893,-184 893,-165 975,-165 975,-184"/>
<text text-anchor="middle" x="934" y="-172" font-family="Helvetica,sans-Serif" font-size="10.00">shm_queue.h</text>
</a>
</g>
</g>
<!-- Node1&#45;&gt;Node27 -->
<g id="edge34_Node000001_Node000027" class="edge">
<title>Node1&#45;&gt;Node27</title>
<g id="a_edge34_Node000001_Node000027"><a xlink:title=" ">
<path fill="none" stroke="#63b8ff" d="M296.18,-222.98C441.16,-212.19 758.77,-188.54 882.87,-179.31"/>
<polygon fill="#63b8ff" stroke="#63b8ff" points="883.16,-182.79 892.87,-178.56 882.64,-175.81 883.16,-182.79"/>
</a>
</g>
</g>
<!-- Node6&#45;&gt;Node5 -->
<g id="edge12_Node000006_Node000005" class="edge">
<title>Node6&#45;&gt;Node5</title>
<g id="a_edge12_Node000006_Node000005"><a xlink:title=" ">
<path fill="none" stroke="#63b8ff" d="M611.88,-111.32C550.74,-99.99 438.67,-78.77 431,-74 413.13,-62.88 399.28,-42.76 390.94,-28.14"/>
<polygon fill="#63b8ff" stroke="#63b8ff" points="393.88,-26.22 386.05,-19.08 387.72,-29.54 393.88,-26.22"/>
</a>
</g>
</g>
<!-- Node7 -->
<g id="Node000007" class="node">
<title>Node7</title>
<g id="a_Node000007"><a xlink:title=" ">
<polygon fill="#e0e0e0" stroke="#999999" points="712,-19 668,-19 668,0 712,0 712,-19"/>
<text text-anchor="middle" x="690" y="-7" font-family="Helvetica,sans-Serif" font-size="10.00">string</text>
</a>
</g>
</g>
<!-- Node6&#45;&gt;Node7 -->
<g id="edge6_Node000006_Node000007" class="edge">
<title>Node6&#45;&gt;Node7</title>
<g id="a_edge6_Node000006_Node000007"><a xlink:title=" ">
<path fill="none" stroke="#63b8ff" d="M611.9,-111.6C552.17,-100.88 444.47,-80.73 439,-74 433.68,-67.44 433.58,-61.47 439,-55 466.56,-22.13 596.32,-13.52 657.68,-11.28"/>
<polygon fill="#63b8ff" stroke="#63b8ff" points="658.08,-14.77 667.96,-10.94 657.85,-7.77 658.08,-14.77"/>
</a>
</g>
</g>
<!-- Node8 -->
<g id="Node000008" class="node">
<title>Node8</title>
<g id="a_Node000008"><a xlink:title=" ">
<polygon fill="#e0e0e0" stroke="#999999" points="353.5,-74 288.5,-74 288.5,-55 353.5,-55 353.5,-74"/>
<text text-anchor="middle" x="321" y="-62" font-family="Helvetica,sans-Serif" font-size="10.00">stdexcept</text>
</a>
</g>
</g>
<!-- Node6&#45;&gt;Node8 -->
<g id="edge7_Node000006_Node000008" class="edge">
<title>Node6&#45;&gt;Node8</title>
<g id="a_edge7_Node000006_Node000008"><a xlink:title=" ">
<path fill="none" stroke="#63b8ff" d="M611.96,-111.66C608.59,-111.09 605.24,-110.53 602,-110 498.16,-93.01 471.78,-91.36 368,-74 366.54,-73.76 365.06,-73.51 363.57,-73.25"/>
<polygon fill="#63b8ff" stroke="#63b8ff" points="364.05,-69.78 353.6,-71.51 362.85,-76.68 364.05,-69.78"/>
</a>
</g>
</g>
<!-- Node9 -->
<g id="Node000009" class="node">
<title>Node9</title>
<g id="a_Node000009"><a xlink:title=" ">
<polygon fill="#e0e0e0" stroke="#999999" points="525.5,-74 448.5,-74 448.5,-55 525.5,-55 525.5,-74"/>
<text text-anchor="middle" x="487" y="-62" font-family="Helvetica,sans-Serif" font-size="10.00">sys/mman.h</text>
</a>
</g>
</g>
<!-- Node6&#45;&gt;Node9 -->
<g id="edge8_Node000006_Node000009" class="edge">
<title>Node6&#45;&gt;Node9</title>
<g id="a_edge8_Node000006_Node000009"><a xlink:title=" ">
<path fill="none" stroke="#63b8ff" d="M624.65,-109.98C597.24,-101.13 554.11,-87.19 523.44,-77.28"/>
<polygon fill="#63b8ff" stroke="#63b8ff" points="524.15,-73.83 513.56,-74.08 522,-80.49 524.15,-73.83"/>
</a>
</g>
</g>
<!-- Node10 -->
<g id="Node000010" class="node">
<title>Node10</title>
<g id="a_Node000010"><a xlink:title=" ">
<polygon fill="#e0e0e0" stroke="#999999" points="608,-74 544,-74 544,-55 608,-55 608,-74"/>
<text text-anchor="middle" x="576" y="-62" font-family="Helvetica,sans-Serif" font-size="10.00">sys/stat.h</text>
</a>
</g>
</g>
<!-- Node6&#45;&gt;Node10 -->
<g id="edge9_Node000006_Node000010" class="edge">
<title>Node6&#45;&gt;Node10</title>
<g id="a_edge9_Node000006_Node000010"><a xlink:title=" ">
<path fill="none" stroke="#63b8ff" d="M638.95,-109.98C627.54,-101.92 610.17,-89.65 596.57,-80.03"/>
<polygon fill="#63b8ff" stroke="#63b8ff" points="598.46,-77.08 588.27,-74.17 594.42,-82.8 598.46,-77.08"/>
</a>
</g>
</g>
<!-- Node11 -->
<g id="Node000011" class="node">
<title>Node11</title>
<g id="a_Node000011"><a xlink:title=" ">
<polygon fill="#e0e0e0" stroke="#999999" points="673.5,-74 626.5,-74 626.5,-55 673.5,-55 673.5,-74"/>
<text text-anchor="middle" x="650" y="-62" font-family="Helvetica,sans-Serif" font-size="10.00">fcntl.h</text>
</a>
</g>
</g>
<!-- Node6&#45;&gt;Node11 -->
<g id="edge10_Node000006_Node000011" class="edge">
<title>Node6&#45;&gt;Node11</title>
<g id="a_edge10_Node000006_Node000011"><a xlink:title=" ">
<path fill="none" stroke="#63b8ff" d="M650.83,-109.75C650.7,-102.8 650.52,-92.85 650.35,-84.13"/>
<polygon fill="#63b8ff" stroke="#63b8ff" points="653.85,-84.02 650.16,-74.09 646.85,-84.15 653.85,-84.02"/>
</a>
</g>
</g>
<!-- Node12 -->
<g id="Node000012" class="node">
<title>Node12</title>
<g id="a_Node000012"><a xlink:title=" ">
<polygon fill="#e0e0e0" stroke="#999999" points="748,-74 692,-74 692,-55 748,-55 748,-74"/>
<text text-anchor="middle" x="720" y="-62" font-family="Helvetica,sans-Serif" font-size="10.00">unistd.h</text>
</a>
</g>
</g>
<!-- Node6&#45;&gt;Node12 -->
<g id="edge11_Node000006_Node000012" class="edge">
<title>Node6&#45;&gt;Node12</title>
<g id="a_edge11_Node000006_Node000012"><a xlink:title=" ">
<path fill="none" stroke="#63b8ff" d="M662.09,-109.98C672.49,-102 688.26,-89.88 700.72,-80.31"/>
<polygon fill="#63b8ff" stroke="#63b8ff" points="702.91,-83.04 708.71,-74.17 698.65,-77.49 702.91,-83.04"/>
</a>
</g>
</g>
<!-- Node13 -->
<g id="Node000013" class="node">
<title>Node13</title>
<g id="a_Node000013"><a xlink:title=" ">
<polygon fill="#e0e0e0" stroke="#999999" points="1103,-74 1053,-74 1053,-55 1103,-55 1103,-74"/>
<text text-anchor="middle" x="1078" y="-62" font-family="Helvetica,sans-Serif" font-size="10.00">atomic</text>
</a>
</g>
</g>
<!-- Node6&#45;&gt;Node13 -->
<g id="edge13_Node000006_Node000013" class="edge">
<title>Node6&#45;&gt;Node13</title>
<g id="a_edge13_Node000006_Node000013"><a xlink:title=" ">
<path fill="none" stroke="#63b8ff" d="M690.02,-115.8C759.18,-110.64 907.95,-97.89 1042.74,-74"/>
<polygon fill="#63b8ff" stroke="#63b8ff" points="1043.61,-77.4 1052.83,-72.19 1042.37,-70.51 1043.61,-77.4"/>
</a>
</g>
</g>
<!-- Node14 -->
<g id="Node000014" class="node">
<title>Node14</title>
<g id="a_Node000014"><a xlink:title=" ">
<polygon fill="#e0e0e0" stroke="#999999" points="813.5,-74 766.5,-74 766.5,-55 813.5,-55 813.5,-74"/>
<text text-anchor="middle" x="790" y="-62" font-family="Helvetica,sans-Serif" font-size="10.00">cerrno</text>
</a>
</g>
</g>
<!-- Node6&#45;&gt;Node14 -->
<g id="edge14_Node000006_Node000014" class="edge">
<title>Node6&#45;&gt;Node14</title>
<g id="a_edge14_Node000006_Node000014"><a xlink:title=" ">
<path fill="none" stroke="#63b8ff" d="M673.33,-109.98C696.2,-101.27 731.96,-87.63 757.86,-77.75"/>
<polygon fill="#63b8ff" stroke="#63b8ff" points="759.16,-81 767.26,-74.17 756.67,-74.46 759.16,-81"/>
</a>
</g>
</g>
<!-- Node15 -->
<g id="Node000015" class="node">
<title>Node15</title>
<g id="a_Node000015"><a xlink:href="shm__table_8h.html" target="_top" xlink:title=" ">
<polygon fill="white" stroke="#666666" points="908.5,-74 831.5,-74 831.5,-55 908.5,-55 908.5,-74"/>
<text text-anchor="middle" x="870" y="-62" font-family="Helvetica,sans-Serif" font-size="10.00">shm_table.h</text>
</a>
</g>
</g>
<!-- Node6&#45;&gt;Node15 -->
<g id="edge15_Node000006_Node000015" class="edge">
<title>Node6&#45;&gt;Node15</title>
<g id="a_edge15_Node000006_Node000015"><a xlink:title=" ">
<path fill="none" stroke="#63b8ff" d="M686.19,-109.98C723.83,-100.87 783.66,-86.4 824.77,-76.45"/>
<polygon fill="#63b8ff" stroke="#63b8ff" points="825.64,-79.84 834.54,-74.08 824,-73.03 825.64,-79.84"/>
</a>
</g>
</g>
<!-- Node15&#45;&gt;Node5 -->
<g id="edge19_Node000015_Node000005" class="edge">
<title>Node15&#45;&gt;Node5</title>
<g id="a_edge19_Node000015_Node000005"><a xlink:title=" ">
<path fill="none" stroke="#63b8ff" d="M831.31,-56.25C828.5,-55.81 825.71,-55.38 823,-55 783.2,-49.4 514.66,-23.3 417.22,-13.89"/>
<polygon fill="#63b8ff" stroke="#63b8ff" points="417.3,-10.38 407.01,-12.91 416.63,-17.35 417.3,-10.38"/>
</a>
</g>
</g>
<!-- Node15&#45;&gt;Node7 -->
<g id="edge17_Node000015_Node000007" class="edge">
<title>Node15&#45;&gt;Node7</title>
<g id="a_edge17_Node000015_Node000007"><a xlink:title=" ">
<path fill="none" stroke="#63b8ff" d="M841.08,-54.98C808.48,-45.39 755.63,-29.82 721.86,-19.88"/>
<polygon fill="#63b8ff" stroke="#63b8ff" points="722.62,-16.46 712.04,-16.99 720.64,-23.17 722.62,-16.46"/>
</a>
</g>
</g>
<!-- Node16 -->
<g id="Node000016" class="node">
<title>Node16</title>
<g id="a_Node000016"><a xlink:title=" ">
<polygon fill="#e0e0e0" stroke="#999999" points="896.5,-19 843.5,-19 843.5,0 896.5,0 896.5,-19"/>
<text text-anchor="middle" x="870" y="-7" font-family="Helvetica,sans-Serif" font-size="10.00">cstddef</text>
</a>
</g>
</g>
<!-- Node15&#45;&gt;Node16 -->
<g id="edge16_Node000015_Node000016" class="edge">
<title>Node15&#45;&gt;Node16</title>
<g id="a_edge16_Node000015_Node000016"><a xlink:title=" ">
<path fill="none" stroke="#63b8ff" d="M870,-54.75C870,-47.8 870,-37.85 870,-29.13"/>
<polygon fill="#63b8ff" stroke="#63b8ff" points="873.5,-29.09 870,-19.09 866.5,-29.09 873.5,-29.09"/>
</a>
</g>
</g>
<!-- Node17 -->
<g id="Node000017" class="node">
<title>Node17</title>
<g id="a_Node000017"><a xlink:title=" ">
<polygon fill="#e0e0e0" stroke="#999999" points="825,-19 783,-19 783,0 825,0 825,-19"/>
<text text-anchor="middle" x="804" y="-7" font-family="Helvetica,sans-Serif" font-size="10.00">array</text>
</a>
</g>
</g>
<!-- Node15&#45;&gt;Node17 -->
<g id="edge18_Node000015_Node000017" class="edge">
<title>Node15&#45;&gt;Node17</title>
<g id="a_edge18_Node000015_Node000017"><a xlink:title=" ">
<path fill="none" stroke="#63b8ff" d="M859.4,-54.98C849.54,-47.07 834.65,-35.11 822.78,-25.58"/>
<polygon fill="#63b8ff" stroke="#63b8ff" points="824.79,-22.7 814.8,-19.17 820.4,-28.16 824.79,-22.7"/>
</a>
</g>
</g>
<!-- Node18 -->
<g id="Node000018" class="node">
<title>Node18</title>
<g id="a_Node000018"><a xlink:title=" ">
<polygon fill="#e0e0e0" stroke="#999999" points="971,-19 915,-19 915,0 971,0 971,-19"/>
<text text-anchor="middle" x="943" y="-7" font-family="Helvetica,sans-Serif" font-size="10.00">optional</text>
</a>
</g>
</g>
<!-- Node15&#45;&gt;Node18 -->
<g id="edge20_Node000015_Node000018" class="edge">
<title>Node15&#45;&gt;Node18</title>
<g id="a_edge20_Node000015_Node000018"><a xlink:title=" ">
<path fill="none" stroke="#63b8ff" d="M881.73,-54.98C892.73,-47 909.42,-34.88 922.6,-25.31"/>
<polygon fill="#63b8ff" stroke="#63b8ff" points="925.02,-27.88 931.06,-19.17 920.91,-22.21 925.02,-27.88"/>
</a>
</g>
</g>
<!-- Node19 -->
<g id="Node000019" class="node">
<title>Node19</title>
<g id="a_Node000019"><a xlink:title=" ">
<polygon fill="#e0e0e0" stroke="#999999" points="543,-19 479,-19 479,0 543,0 543,-19"/>
<text text-anchor="middle" x="511" y="-7" font-family="Helvetica,sans-Serif" font-size="10.00">algorithm</text>
</a>
</g>
</g>
<!-- Node15&#45;&gt;Node19 -->
<g id="edge21_Node000015_Node000019" class="edge">
<title>Node15&#45;&gt;Node19</title>
<g id="a_edge21_Node000015_Node000019"><a xlink:title=" ">
<path fill="none" stroke="#63b8ff" d="M831.29,-56.38C828.49,-55.9 825.7,-55.44 823,-55 726.95,-39.47 613.8,-24.04 553.65,-16.07"/>
<polygon fill="#63b8ff" stroke="#63b8ff" points="553.77,-12.56 543.4,-14.72 552.85,-19.5 553.77,-12.56"/>
</a>
</g>
</g>
<!-- Node20 -->
<g id="Node000020" class="node">
<title>Node20</title>
<g id="a_Node000020"><a xlink:title=" ">
<polygon fill="#e0e0e0" stroke="#999999" points="1062.5,-19 989.5,-19 989.5,0 1062.5,0 1062.5,-19"/>
<text text-anchor="middle" x="1026" y="-7" font-family="Helvetica,sans-Serif" font-size="10.00">string_view</text>
</a>
</g>
</g>
<!-- Node15&#45;&gt;Node20 -->
<g id="edge22_Node000015_Node000020" class="edge">
<title>Node15&#45;&gt;Node20</title>
<g id="a_edge22_Node000015_Node000020"><a xlink:title=" ">
<path fill="none" stroke="#63b8ff" d="M895.06,-54.98C921.03,-46.16 961.81,-32.31 990.96,-22.41"/>
<polygon fill="#63b8ff" stroke="#63b8ff" points="992.4,-25.61 1000.74,-19.08 990.15,-18.99 992.4,-25.61"/>
</a>
</g>
</g>
<!-- Node21&#45;&gt;Node6 -->
<g id="edge24_Node000021_Node000006" class="edge">
<title>Node21&#45;&gt;Node6</title>
<g id="a_edge24_Node000021_Node000006"><a xlink:title=" ">
<path fill="none" stroke="#63b8ff" d="M680.22,-164.75C675.38,-157.42 668.32,-146.73 662.36,-137.7"/>
<polygon fill="#63b8ff" stroke="#63b8ff" points="665.1,-135.5 656.67,-129.09 659.26,-139.36 665.1,-135.5"/>
</a>
</g>
</g>
<!-- Node21&#45;&gt;Node8 -->
<g id="edge28_Node000021_Node000008" class="edge">
<title>Node21&#45;&gt;Node8</title>
<g id="a_edge28_Node000021_Node000008"><a xlink:title=" ">
<path fill="none" stroke="#63b8ff" d="M655.67,-164.93C624.4,-156.06 574.24,-141.74 531,-129 470.58,-111.19 400.6,-89.9 358.61,-77.05"/>
<polygon fill="#63b8ff" stroke="#63b8ff" points="359.4,-73.63 348.82,-74.05 357.35,-80.32 359.4,-73.63"/>
</a>
</g>
</g>
<!-- Node21&#45;&gt;Node15 -->
<g id="edge27_Node000021_Node000015" class="edge">
<title>Node21&#45;&gt;Node15</title>
<g id="a_edge27_Node000021_Node000015"><a xlink:title=" ">
<path fill="none" stroke="#63b8ff" d="M692.03,-164.88C701.87,-151.4 722.64,-125.27 746,-110 769.3,-94.76 798.48,-83.95 822.68,-76.81"/>
<polygon fill="#63b8ff" stroke="#63b8ff" points="823.7,-80.16 832.37,-74.06 821.79,-73.42 823.7,-80.16"/>
</a>
</g>
</g>
<!-- Node21&#45;&gt;Node19 -->
<g id="edge29_Node000021_Node000019" class="edge">
<title>Node21&#45;&gt;Node19</title>
<g id="a_edge29_Node000021_Node000019"><a xlink:title=" ">
<path fill="none" stroke="#63b8ff" d="M647.94,-170.21C555.47,-161.34 323.36,-133.47 279,-74 273.95,-67.23 273.62,-61.51 279,-55 291,-40.48 405.32,-23.87 468.88,-15.66"/>
<polygon fill="#63b8ff" stroke="#63b8ff" points="469.52,-19.11 479,-14.37 468.63,-12.16 469.52,-19.11"/>
</a>
</g>
</g>
<!-- Node21&#45;&gt;Node20 -->
<g id="edge32_Node000021_Node000020" class="edge">
<title>Node21&#45;&gt;Node20</title>
<g id="a_edge32_Node000021_Node000020"><a xlink:title=" ">
<path fill="none" stroke="#63b8ff" d="M697.65,-164.79C718.6,-149.27 762,-117.72 779,-110 837.11,-83.61 859.04,-98.41 918,-74 950.21,-60.67 984.42,-39.14 1005.5,-24.9"/>
<polygon fill="#63b8ff" stroke="#63b8ff" points="1007.68,-27.65 1013.95,-19.11 1003.72,-21.88 1007.68,-27.65"/>
</a>
</g>
</g>
<!-- Node22 -->
<g id="Node000022" class="node">
<title>Node22</title>
<g id="a_Node000022"><a xlink:href="shm__span_8h.html" target="_top" xlink:title=" ">
<polygon fill="white" stroke="#666666" points="1037.5,-129 962.5,-129 962.5,-110 1037.5,-110 1037.5,-129"/>
<text text-anchor="middle" x="1000" y="-117" font-family="Helvetica,sans-Serif" font-size="10.00">shm_span.h</text>
</a>
</g>
</g>
<!-- Node21&#45;&gt;Node22 -->
<g id="edge25_Node000021_Node000022" class="edge">
<title>Node21&#45;&gt;Node22</title>
<g id="a_edge25_Node000021_Node000022"><a xlink:title=" ">
<path fill="none" stroke="#63b8ff" d="M724.19,-167.05C781.47,-157.39 889.58,-139.14 952.08,-128.59"/>
<polygon fill="#63b8ff" stroke="#63b8ff" points="952.8,-132.02 962.08,-126.9 951.63,-125.11 952.8,-132.02"/>
</a>
</g>
</g>
<!-- Node24 -->
<g id="Node000024" class="node">
<title>Node24</title>
<g id="a_Node000024"><a xlink:title=" ">
<polygon fill="#e0e0e0" stroke="#999999" points="848,-129 788,-129 788,-110 848,-110 848,-129"/>
<text text-anchor="middle" x="818" y="-117" font-family="Helvetica,sans-Serif" font-size="10.00">concepts</text>
</a>
</g>
</g>
<!-- Node21&#45;&gt;Node24 -->
<g id="edge30_Node000021_Node000024" class="edge">
<title>Node21&#45;&gt;Node24</title>
<g id="a_edge30_Node000021_Node000024"><a xlink:title=" ">
<path fill="none" stroke="#63b8ff" d="M707.21,-164.98C728.73,-156.34 762.28,-142.87 786.83,-133.02"/>
<polygon fill="#63b8ff" stroke="#63b8ff" points="788.43,-136.14 796.41,-129.17 785.82,-129.65 788.43,-136.14"/>
</a>
</g>
</g>
<!-- Node25 -->
<g id="Node000025" class="node">
<title>Node25</title>
<g id="a_Node000025"><a xlink:title=" ">
<polygon fill="#e0e0e0" stroke="#999999" points="906,-129 866,-129 866,-110 906,-110 906,-129"/>
<text text-anchor="middle" x="886" y="-117" font-family="Helvetica,sans-Serif" font-size="10.00">span</text>
</a>
</g>
</g>
<!-- Node21&#45;&gt;Node25 -->
<g id="edge31_Node000021_Node000025" class="edge">
<title>Node21&#45;&gt;Node25</title>
<g id="a_edge31_Node000021_Node000025"><a xlink:title=" ">
<path fill="none" stroke="#63b8ff" d="M720.15,-164.94C752.7,-156.71 803.32,-143.72 855.9,-129.24"/>
<polygon fill="#63b8ff" stroke="#63b8ff" points="857.04,-132.56 865.74,-126.52 855.17,-125.81 857.04,-132.56"/>
</a>
</g>
</g>
<!-- Node26 -->
<g id="Node000026" class="node">
<title>Node26</title>
<g id="a_Node000026"><a xlink:title=" ">
<polygon fill="#e0e0e0" stroke="#999999" points="593.5,-129 540.5,-129 540.5,-110 593.5,-110 593.5,-129"/>
<text text-anchor="middle" x="567" y="-117" font-family="Helvetica,sans-Serif" font-size="10.00">iterator</text>
</a>
</g>
</g>
<!-- Node21&#45;&gt;Node26 -->
<g id="edge33_Node000021_Node000026" class="edge">
<title>Node21&#45;&gt;Node26</title>
<g id="a_edge33_Node000021_Node000026"><a xlink:title=" ">
<path fill="none" stroke="#63b8ff" d="M666.88,-164.98C647.65,-156.42 617.77,-143.11 595.69,-133.28"/>
<polygon fill="#63b8ff" stroke="#63b8ff" points="597.03,-130.04 586.47,-129.17 594.18,-136.44 597.03,-130.04"/>
</a>
</g>
</g>
<!-- Node23 -->
<g id="Node000023" class="node">
<title>Node23</title>
<g id="a_Node000023"><a xlink:title=" ">
<polygon fill="#e0e0e0" stroke="#999999" points="1034.5,-74 965.5,-74 965.5,-55 1034.5,-55 1034.5,-74"/>
<text text-anchor="middle" x="1000" y="-62" font-family="Helvetica,sans-Serif" font-size="10.00">type_traits</text>
</a>
</g>
</g>
<!-- Node22&#45;&gt;Node23 -->
<g id="edge26_Node000022_Node000023" class="edge">
<title>Node22&#45;&gt;Node23</title>
<g id="a_edge26_Node000022_Node000023"><a xlink:title=" ">
<path fill="none" stroke="#63b8ff" d="M1000,-109.75C1000,-102.8 1000,-92.85 1000,-84.13"/>
<polygon fill="#63b8ff" stroke="#63b8ff" points="1003.5,-84.09 1000,-74.09 996.5,-84.09 1003.5,-84.09"/>
</a>
</g>
</g>
<!-- Node27&#45;&gt;Node6 -->
<g id="edge35_Node000027_Node000006" class="edge">
<title>Node27&#45;&gt;Node6</title>
<g id="a_edge35_Node000027_Node000006"><a xlink:title=" ">
<path fill="none" stroke="#63b8ff" d="M892.85,-165.79C841.87,-156.25 755.08,-139.99 700.51,-129.77"/>
<polygon fill="#63b8ff" stroke="#63b8ff" points="700.85,-126.27 690.38,-127.87 699.56,-133.16 700.85,-126.27"/>
</a>
</g>
</g>
<!-- Node27&#45;&gt;Node13 -->
<g id="edge38_Node000027_Node000013" class="edge">
<title>Node27&#45;&gt;Node13</title>
<g id="a_edge38_Node000027_Node000013"><a xlink:title=" ">
<path fill="none" stroke="#63b8ff" d="M975.09,-165.14C998.49,-158.61 1027.02,-147.46 1047,-129 1060.08,-116.91 1068.3,-98.11 1072.96,-84.1"/>
<polygon fill="#63b8ff" stroke="#63b8ff" points="1076.43,-84.69 1075.96,-74.11 1069.73,-82.68 1076.43,-84.69"/>
</a>
</g>
</g>
<!-- Node27&#45;&gt;Node15 -->
<g id="edge37_Node000027_Node000015" class="edge">
<title>Node27&#45;&gt;Node15</title>
<g id="a_edge37_Node000027_Node000015"><a xlink:title=" ">
<path fill="none" stroke="#63b8ff" d="M932.79,-164.73C930.73,-151.94 925.66,-127.76 915,-110 908.33,-98.89 898.26,-88.58 889.33,-80.68"/>
<polygon fill="#63b8ff" stroke="#63b8ff" points="891.49,-77.92 881.59,-74.16 886.98,-83.28 891.49,-77.92"/>
</a>
</g>
</g>
<!-- Node27&#45;&gt;Node18 -->
<g id="edge41_Node000027_Node000018" class="edge">
<title>Node27&#45;&gt;Node18</title>
<g id="a_edge41_Node000027_Node000018"><a xlink:title=" ">
<path fill="none" stroke="#63b8ff" d="M972.49,-164.95C1036.78,-148.88 1154.95,-110.72 1112,-55 1107.93,-49.71 1029.59,-30.67 981.02,-19.28"/>
<polygon fill="#63b8ff" stroke="#63b8ff" points="981.68,-15.84 971.14,-16.97 980.08,-22.65 981.68,-15.84"/>
</a>
</g>
</g>
<!-- Node27&#45;&gt;Node20 -->
<g id="edge42_Node000027_Node000020" class="edge">
<title>Node27&#45;&gt;Node20</title>
<g id="a_edge42_Node000027_Node000020"><a xlink:title=" ">
<path fill="none" stroke="#63b8ff" d="M975.15,-172.32C1012.61,-169.2 1067.49,-159.29 1104,-129 1124.81,-111.73 1124.08,-100.38 1130,-74 1131.85,-65.76 1134.65,-62.05 1130,-55 1117.16,-35.54 1093.87,-24.56 1072.58,-18.38"/>
<polygon fill="#63b8ff" stroke="#63b8ff" points="1073.22,-14.93 1062.66,-15.79 1071.45,-21.7 1073.22,-14.93"/>
</a>
</g>
</g>
<!-- Node27&#45;&gt;Node22 -->
<g id="edge36_Node000027_Node000022" class="edge">
<title>Node27&#45;&gt;Node22</title>
<g id="a_edge36_Node000027_Node000022"><a xlink:title=" ">
<path fill="none" stroke="#63b8ff" d="M944.6,-164.98C954.46,-157.07 969.35,-145.11 981.22,-135.58"/>
<polygon fill="#63b8ff" stroke="#63b8ff" points="983.6,-138.16 989.2,-129.17 979.21,-132.7 983.6,-138.16"/>
</a>
</g>
</g>
<!-- Node27&#45;&gt;Node24 -->
<g id="edge39_Node000027_Node000024" class="edge">
<title>Node27&#45;&gt;Node24</title>
<g id="a_edge39_Node000027_Node000024"><a xlink:title=" ">
<path fill="none" stroke="#63b8ff" d="M915.36,-164.98C896.7,-156.46 867.75,-143.23 846.26,-133.41"/>
<polygon fill="#63b8ff" stroke="#63b8ff" points="847.53,-130.14 836.98,-129.17 844.62,-136.51 847.53,-130.14"/>
</a>
</g>
</g>
<!-- Node27&#45;&gt;Node25 -->
<g id="edge40_Node000027_Node000025" class="edge">
<title>Node27&#45;&gt;Node25</title>
<g id="a_edge40_Node000027_Node000025"><a xlink:title=" ">
<path fill="none" stroke="#63b8ff" d="M926.07,-164.75C919.15,-157.11 908.93,-145.82 900.55,-136.56"/>
<polygon fill="#63b8ff" stroke="#63b8ff" points="903.09,-134.15 893.78,-129.09 897.9,-138.85 903.09,-134.15"/>
</a>
</g>
</g>
</g>
</svg>

<g id="navigator" transform="translate(0 0)" fill="#404254">
  <rect fill="#f2f5e9" fill-opacity="0.5" stroke="#606060" stroke-width=".5" x="0" y="0" width="60" height="60"/>
  <use id="zoomplus" xlink:href="#zoomPlus" x="17" y="9" onmousedown="handleZoom(evt,'in')"/>
  <use id="zoomminus" xlink:href="#zoomMin" x="42" y="9" onmousedown="handleZoom(evt,'out')"/>
  <use id="reset" xlink:href="#resetDef" x="30" y="36" onmousedown="handleReset()"/>
   <use id="arrowup" xlink:href="#arrowUp" x="0" y="0" onmousedown="handlePan(0,-1)"/>
  <use id="arrowright" xlink:href="#arrowRight" x="0" y="0" onmousedown="handlePan(1,0)"/>
  <use id="arrowdown" xlink:href="#arrowDown" x="0" y="0" onmousedown="handlePan(0,1)"/>
  <use id="arrowleft" xlink:href="#arrowLeft" x="0" y="0" onmousedown="handlePan(-1,0)"/>
</g>
<svg viewBox="0 0 15 15" width="100%" height="30px" preserveAspectRatio="xMaxYMin meet">
 <g id="arrow_out" transform="scale(0.3 0.3)">
  <a xlink:href="basic__usage_8cpp__incl_org.svg" target="_base">
   <rect id="button" ry="5" rx="5" y="6" x="6" height="38" width="38"
        fill="#f2f5e9" fill-opacity="0.5" stroke="#606060" stroke-width="1.0"/>
   <path id="arrow"
     d="M 11.500037,31.436501 C 11.940474,20.09759 22.043105,11.32322 32.158766,21.979434 L 37.068811,17.246167 C 37.068811,17.246167 37.088388,32 37.088388,32 L 22.160133,31.978069 C 22.160133,31.978069 26.997745,27.140456 26.997745,27.140456 C 18.528582,18.264221 13.291696,25.230495 11.500037,31.436501 z"
     style="fill:#404040;"/>
  </a>
 </g>
</svg>

<style type='text/css'>
<![CDATA[
[data-mouse-over-selected='false'] { opacity: 0.7; }
[data-mouse-over-selected='true']  { opacity: 1.0; }
]]>
</style>
<script type="application/ecmascript"><![CDATA[
document.addEventListener('DOMContentLoaded', (event) => {
  highlightEdges();
  highlightAdjacentNodes();
});
]]></script>
</svg>
