<?xml version="1.0" encoding="UTF-8" standalone="no"?>
<!DOCTYPE svg PUBLIC "-//W3C//DTD SVG 1.1//EN"
 "http://www.w3.org/Graphics/SVG/1.1/DTD/svg11.dtd">
<!-- Generated by graphviz version 2.43.0 (0)
 -->
<!-- Title: shm_span&lt; T, ShmType &gt; Pages: 1 -->
<svg width="344pt" height="150pt"
 viewBox="0.00 0.00 344.00 150.00" xmlns="http://www.w3.org/2000/svg" xmlns:xlink="http://www.w3.org/1999/xlink">

<svg id="main" version="1.1" xmlns="http://www.w3.org/2000/svg" xmlns:xlink="http://www.w3.org/1999/xlink" xml:space="preserve" onload="init(evt)">
<style type="text/css"><![CDATA[
.node, .edge {opacity: 0.7;}
.node.selected, .edge.selected {opacity: 1;}
.edge:hover path { stroke: red; }
.edge:hover polygon { stroke: red; fill: red; }
]]></style>
<script type="application/ecmascript" xlink:href="svg.min.js"/>
<svg id="graph" class="graph">
<g id="graph0" class="graph" transform="scale(1 1) rotate(0) translate(4 146)">
<title>shm_span&lt; T, ShmType &gt;</title>
<!-- Node1 -->
<g id="Node000001" class="node">
<title>Node1</title>
<g id="a_Node000001"><a xlink:title="Base class for shared memory data structures that span a region.">
<polygon fill="#999999" stroke="#666666" points="145,-77 0,-77 0,-58 145,-58 145,-77"/>
<text text-anchor="middle" x="72.5" y="-65" font-family="Helvetica,sans-Serif" font-size="10.00">shm_span&lt; T, ShmType &gt;</text>
</a>
</g>
</g>
<!-- Node2 -->
<g id="Node000002" class="node">
<title>Node2</title>
<g id="a_Node000002"><a xlink:href="classshm__array.html" target="_top" xlink:title=" ">
<polygon fill="white" stroke="#666666" points="315,-142 202,-142 202,-123 315,-123 315,-142"/>
<text text-anchor="middle" x="258.5" y="-130" font-family="Helvetica,sans-Serif" font-size="10.00">shm_array&lt; float &gt;</text>
</a>
</g>
</g>
<!-- Node1&#45;&gt;Node2 -->
<g id="edge1_Node000001_Node000002" class="edge">
<title>Node1&#45;&gt;Node2</title>
<g id="a_edge1_Node000001_Node000002"><a xlink:title=" ">
<path fill="none" stroke="#63b8ff" d="M102.5,-81.42C123.86,-91.3 153.8,-104.37 181,-113.5 191.51,-117.03 203.03,-120.23 213.86,-122.95"/>
<polygon fill="#63b8ff" stroke="#63b8ff" points="103.88,-78.2 93.33,-77.13 100.91,-84.54 103.88,-78.2"/>
</a>
</g>
</g>
<!-- Node3 -->
<g id="Node000003" class="node">
<title>Node3</title>
<g id="a_Node000003"><a xlink:href="classshm__array.html" target="_top" xlink:title=" ">
<polygon fill="white" stroke="#666666" points="322.5,-104.5 194.5,-104.5 194.5,-74.5 322.5,-74.5 322.5,-104.5"/>
<text text-anchor="start" x="202.5" y="-92.5" font-family="Helvetica,sans-Serif" font-size="10.00">shm_array&lt; float, shm</text>
<text text-anchor="middle" x="258.5" y="-81.5" font-family="Helvetica,sans-Serif" font-size="10.00">_table &gt;</text>
</a>
</g>
</g>
<!-- Node1&#45;&gt;Node3 -->
<g id="edge2_Node000001_Node000003" class="edge">
<title>Node1&#45;&gt;Node3</title>
<g id="a_edge2_Node000001_Node000003"><a xlink:title=" ">
<path fill="none" stroke="#63b8ff" d="M155.16,-77.26C168.32,-78.84 181.77,-80.45 194.41,-81.96"/>
<polygon fill="#63b8ff" stroke="#63b8ff" points="155.51,-73.78 145.17,-76.07 154.68,-80.73 155.51,-73.78"/>
</a>
</g>
</g>
<!-- Node4 -->
<g id="Node000004" class="node">
<title>Node4</title>
<g id="a_Node000004"><a xlink:href="classshm__array.html" target="_top" xlink:title="Fixed&#45;size array in shared memory with zero&#45;overhead access.">
<polygon fill="white" stroke="#666666" points="334,-56 183,-56 183,-37 334,-37 334,-56"/>
<text text-anchor="middle" x="258.5" y="-44" font-family="Helvetica,sans-Serif" font-size="10.00">shm_array&lt; T, TableType &gt;</text>
</a>
</g>
</g>
<!-- Node1&#45;&gt;Node4 -->
<g id="edge3_Node000001_Node000004" class="edge">
<title>Node1&#45;&gt;Node4</title>
<g id="a_edge3_Node000001_Node000004"><a xlink:title=" ">
<path fill="none" stroke="#63b8ff" d="M155.15,-58.18C164.42,-57.12 173.83,-56.05 182.99,-55"/>
<polygon fill="#63b8ff" stroke="#63b8ff" points="154.7,-54.71 145.17,-59.32 155.5,-61.66 154.7,-54.71"/>
</a>
</g>
</g>
<!-- Node5 -->
<g id="Node000005" class="node">
<title>Node5</title>
<g id="a_Node000005"><a xlink:href="classshm__queue.html" target="_top" xlink:title="Lock&#45;free circular queue for shared memory IPC.">
<polygon fill="white" stroke="#666666" points="336,-19 181,-19 181,0 336,0 336,-19"/>
<text text-anchor="middle" x="258.5" y="-7" font-family="Helvetica,sans-Serif" font-size="10.00">shm_queue&lt; T, TableType &gt;</text>
</a>
</g>
</g>
<!-- Node1&#45;&gt;Node5 -->
<g id="edge4_Node000001_Node000005" class="edge">
<title>Node1&#45;&gt;Node5</title>
<g id="a_edge4_Node000001_Node000005"><a xlink:title=" ">
<path fill="none" stroke="#63b8ff" d="M107.05,-54.3C128.1,-46.28 155.92,-36.14 181,-28.5 192.13,-25.11 204.3,-21.88 215.59,-19.07"/>
<polygon fill="#63b8ff" stroke="#63b8ff" points="105.67,-51.08 97.59,-57.94 108.18,-57.62 105.67,-51.08"/>
</a>
</g>
</g>
</g>
</svg>
</svg>

<style type='text/css'>
<![CDATA[
[data-mouse-over-selected='false'] { opacity: 0.7; }
[data-mouse-over-selected='true']  { opacity: 1.0; }
]]>
</style>
<script type="application/ecmascript"><![CDATA[
document.addEventListener('DOMContentLoaded', (event) => {
  highlightEdges();
  highlightAdjacentNodes();
});
]]></script>
</svg>
