<?xml version="1.0" encoding="UTF-8" standalone="no"?>
<!DOCTYPE svg PUBLIC "-//W3C//DTD SVG 1.1//EN"
 "http://www.w3.org/Graphics/SVG/1.1/DTD/svg11.dtd">
<!-- Generated by graphviz version 2.43.0 (0)
 -->
<!-- Title: examples/custom_table_sizes.cpp Pages: 1 -->
<svg width="983pt" height="258pt"
 viewBox="0.00 0.00 983.17 258.00" xmlns="http://www.w3.org/2000/svg" xmlns:xlink="http://www.w3.org/1999/xlink">
<g id="graph0" class="graph" transform="scale(1 1) rotate(0) translate(4 254)">
<title>examples/custom_table_sizes.cpp</title>
<!-- Node1 -->
<g id="Node000001" class="node">
<title>Node1</title>
<g id="a_Node000001"><a xlink:title=" ">
<polygon fill="#999999" stroke="#666666" points="525.67,-250 391.67,-250 391.67,-220 525.67,-220 525.67,-250"/>
<text text-anchor="start" x="399.67" y="-238" font-family="Helvetica,sans-Serif" font-size="10.00">examples/custom_table</text>
<text text-anchor="middle" x="458.67" y="-227" font-family="Helvetica,sans-Serif" font-size="10.00">_sizes.cpp</text>
</a>
</g>
</g>
<!-- Node2 -->
<g id="Node000002" class="node">
<title>Node2</title>
<g id="a_Node000002"><a xlink:title=" ">
<polygon fill="#e0e0e0" stroke="#999999" points="396.67,-184 336.67,-184 336.67,-165 396.67,-165 396.67,-184"/>
<text text-anchor="middle" x="366.67" y="-172" font-family="Helvetica,sans-Serif" font-size="10.00">iostream</text>
</a>
</g>
</g>
<!-- Node1&#45;&gt;Node2 -->
<g id="edge1_Node000001_Node000002" class="edge">
<title>Node1&#45;&gt;Node2</title>
<g id="a_edge1_Node000001_Node000002"><a xlink:title=" ">
<path fill="none" stroke="#63b8ff" d="M436.4,-219.84C422.01,-210.68 403.34,-198.82 388.95,-189.66"/>
<polygon fill="#63b8ff" stroke="#63b8ff" points="390.51,-186.51 380.19,-184.09 386.75,-192.41 390.51,-186.51"/>
</a>
</g>
</g>
<!-- Node3 -->
<g id="Node000003" class="node">
<title>Node3</title>
<g id="a_Node000003"><a xlink:href="posix__shm_8h.html" target="_top" xlink:title="Core POSIX shared memory management with automatic reference counting.">
<polygon fill="white" stroke="#666666" points="445.67,-129 367.67,-129 367.67,-110 445.67,-110 445.67,-129"/>
<text text-anchor="middle" x="406.67" y="-117" font-family="Helvetica,sans-Serif" font-size="10.00">posix_shm.h</text>
</a>
</g>
</g>
<!-- Node1&#45;&gt;Node3 -->
<g id="edge2_Node000001_Node000003" class="edge">
<title>Node1&#45;&gt;Node3</title>
<g id="a_edge2_Node000001_Node000003"><a xlink:title=" ">
<path fill="none" stroke="#63b8ff" d="M452.09,-219.63C442.61,-198.93 425.13,-160.78 414.84,-138.32"/>
<polygon fill="#63b8ff" stroke="#63b8ff" points="418.02,-136.86 410.67,-129.23 411.66,-139.78 418.02,-136.86"/>
</a>
</g>
</g>
<!-- Node19 -->
<g id="Node000019" class="node">
<title>Node19</title>
<g id="a_Node000019"><a xlink:href="shm__array_8h.html" target="_top" xlink:title="Fixed&#45;size shared memory array with STL compatibility.">
<polygon fill="white" stroke="#666666" points="756.67,-184 680.67,-184 680.67,-165 756.67,-165 756.67,-184"/>
<text text-anchor="middle" x="718.67" y="-172" font-family="Helvetica,sans-Serif" font-size="10.00">shm_array.h</text>
</a>
</g>
</g>
<!-- Node1&#45;&gt;Node19 -->
<g id="edge20_Node000001_Node000019" class="edge">
<title>Node1&#45;&gt;Node19</title>
<g id="a_edge20_Node000001_Node000019"><a xlink:title=" ">
<path fill="none" stroke="#63b8ff" d="M520.95,-219.99C566.89,-209.65 628.48,-195.79 670.64,-186.31"/>
<polygon fill="#63b8ff" stroke="#63b8ff" points="671.67,-189.66 680.66,-184.05 670.13,-182.83 671.67,-189.66"/>
</a>
</g>
</g>
<!-- Node25 -->
<g id="Node000025" class="node">
<title>Node25</title>
<g id="a_Node000025"><a xlink:href="shm__queue_8h.html" target="_top" xlink:title=" ">
<polygon fill="white" stroke="#666666" points="534.67,-184 452.67,-184 452.67,-165 534.67,-165 534.67,-184"/>
<text text-anchor="middle" x="493.67" y="-172" font-family="Helvetica,sans-Serif" font-size="10.00">shm_queue.h</text>
</a>
</g>
</g>
<!-- Node1&#45;&gt;Node25 -->
<g id="edge31_Node000001_Node000025" class="edge">
<title>Node1&#45;&gt;Node25</title>
<g id="a_edge31_Node000001_Node000025"><a xlink:title=" ">
<path fill="none" stroke="#63b8ff" d="M467.15,-219.84C471.97,-211.78 478.05,-201.62 483.17,-193.06"/>
<polygon fill="#63b8ff" stroke="#63b8ff" points="486.3,-194.64 488.43,-184.27 480.29,-191.05 486.3,-194.64"/>
</a>
</g>
</g>
<!-- Node4 -->
<g id="Node000004" class="node">
<title>Node4</title>
<g id="a_Node000004"><a xlink:title=" ">
<polygon fill="#e0e0e0" stroke="#999999" points="185.67,-19 141.67,-19 141.67,0 185.67,0 185.67,-19"/>
<text text-anchor="middle" x="163.67" y="-7" font-family="Helvetica,sans-Serif" font-size="10.00">string</text>
</a>
</g>
</g>
<!-- Node3&#45;&gt;Node4 -->
<g id="edge3_Node000003_Node000004" class="edge">
<title>Node3&#45;&gt;Node4</title>
<g id="a_edge3_Node000003_Node000004"><a xlink:title=" ">
<path fill="none" stroke="#63b8ff" d="M367.52,-117.98C300.14,-116.15 166.68,-108.2 137.67,-74 126.06,-60.31 137.13,-40.73 148.21,-26.94"/>
<polygon fill="#63b8ff" stroke="#63b8ff" points="151,-29.06 154.9,-19.21 145.71,-24.48 151,-29.06"/>
</a>
</g>
</g>
<!-- Node5 -->
<g id="Node000005" class="node">
<title>Node5</title>
<g id="a_Node000005"><a xlink:title=" ">
<polygon fill="#e0e0e0" stroke="#999999" points="740.17,-74 675.17,-74 675.17,-55 740.17,-55 740.17,-74"/>
<text text-anchor="middle" x="707.67" y="-62" font-family="Helvetica,sans-Serif" font-size="10.00">stdexcept</text>
</a>
</g>
</g>
<!-- Node3&#45;&gt;Node5 -->
<g id="edge4_Node000003_Node000005" class="edge">
<title>Node3&#45;&gt;Node5</title>
<g id="a_edge4_Node000003_Node000005"><a xlink:title=" ">
<path fill="none" stroke="#63b8ff" d="M445.72,-111.63C502.29,-101.66 606.66,-83.29 665.13,-72.99"/>
<polygon fill="#63b8ff" stroke="#63b8ff" points="665.91,-76.41 675.15,-71.23 664.69,-69.51 665.91,-76.41"/>
</a>
</g>
</g>
<!-- Node6 -->
<g id="Node000006" class="node">
<title>Node6</title>
<g id="a_Node000006"><a xlink:title=" ">
<polygon fill="#e0e0e0" stroke="#999999" points="235.17,-74 158.17,-74 158.17,-55 235.17,-55 235.17,-74"/>
<text text-anchor="middle" x="196.67" y="-62" font-family="Helvetica,sans-Serif" font-size="10.00">sys/mman.h</text>
</a>
</g>
</g>
<!-- Node3&#45;&gt;Node6 -->
<g id="edge5_Node000003_Node000006" class="edge">
<title>Node3&#45;&gt;Node6</title>
<g id="a_edge5_Node000003_Node000006"><a xlink:title=" ">
<path fill="none" stroke="#63b8ff" d="M372.93,-109.98C336.99,-100.91 279.95,-86.52 240.54,-76.57"/>
<polygon fill="#63b8ff" stroke="#63b8ff" points="241.23,-73.14 230.68,-74.08 239.52,-79.92 241.23,-73.14"/>
</a>
</g>
</g>
<!-- Node7 -->
<g id="Node000007" class="node">
<title>Node7</title>
<g id="a_Node000007"><a xlink:title=" ">
<polygon fill="#e0e0e0" stroke="#999999" points="317.67,-74 253.67,-74 253.67,-55 317.67,-55 317.67,-74"/>
<text text-anchor="middle" x="285.67" y="-62" font-family="Helvetica,sans-Serif" font-size="10.00">sys/stat.h</text>
</a>
</g>
</g>
<!-- Node3&#45;&gt;Node7 -->
<g id="edge6_Node000003_Node000007" class="edge">
<title>Node3&#45;&gt;Node7</title>
<g id="a_edge6_Node000003_Node000007"><a xlink:title=" ">
<path fill="none" stroke="#63b8ff" d="M387.23,-109.98C367.68,-101.42 337.29,-88.11 314.85,-78.28"/>
<polygon fill="#63b8ff" stroke="#63b8ff" points="316.03,-74.98 305.47,-74.17 313.22,-81.39 316.03,-74.98"/>
</a>
</g>
</g>
<!-- Node8 -->
<g id="Node000008" class="node">
<title>Node8</title>
<g id="a_Node000008"><a xlink:title=" ">
<polygon fill="#e0e0e0" stroke="#999999" points="383.17,-74 336.17,-74 336.17,-55 383.17,-55 383.17,-74"/>
<text text-anchor="middle" x="359.67" y="-62" font-family="Helvetica,sans-Serif" font-size="10.00">fcntl.h</text>
</a>
</g>
</g>
<!-- Node3&#45;&gt;Node8 -->
<g id="edge7_Node000003_Node000008" class="edge">
<title>Node3&#45;&gt;Node8</title>
<g id="a_edge7_Node000003_Node000008"><a xlink:title=" ">
<path fill="none" stroke="#63b8ff" d="M398.91,-109.75C392.21,-102.18 382.33,-91.05 374.17,-81.84"/>
<polygon fill="#63b8ff" stroke="#63b8ff" points="376.54,-79.25 367.29,-74.09 371.31,-83.89 376.54,-79.25"/>
</a>
</g>
</g>
<!-- Node9 -->
<g id="Node000009" class="node">
<title>Node9</title>
<g id="a_Node000009"><a xlink:title=" ">
<polygon fill="#e0e0e0" stroke="#999999" points="457.67,-74 401.67,-74 401.67,-55 457.67,-55 457.67,-74"/>
<text text-anchor="middle" x="429.67" y="-62" font-family="Helvetica,sans-Serif" font-size="10.00">unistd.h</text>
</a>
</g>
</g>
<!-- Node3&#45;&gt;Node9 -->
<g id="edge8_Node000003_Node000009" class="edge">
<title>Node3&#45;&gt;Node9</title>
<g id="a_edge8_Node000003_Node000009"><a xlink:title=" ">
<path fill="none" stroke="#63b8ff" d="M410.47,-109.75C413.59,-102.57 418.1,-92.18 421.96,-83.27"/>
<polygon fill="#63b8ff" stroke="#63b8ff" points="425.18,-84.66 425.95,-74.09 418.75,-81.87 425.18,-84.66"/>
</a>
</g>
</g>
<!-- Node10 -->
<g id="Node000010" class="node">
<title>Node10</title>
<g id="a_Node000010"><a xlink:title=" ">
<polygon fill="#e0e0e0" stroke="#999999" points="325.67,-19 275.67,-19 275.67,0 325.67,0 325.67,-19"/>
<text text-anchor="middle" x="300.67" y="-7" font-family="Helvetica,sans-Serif" font-size="10.00">cstring</text>
</a>
</g>
</g>
<!-- Node3&#45;&gt;Node10 -->
<g id="edge9_Node000003_Node000010" class="edge">
<title>Node3&#45;&gt;Node10</title>
<g id="a_edge9_Node000003_Node000010"><a xlink:title=" ">
<path fill="none" stroke="#63b8ff" d="M367.56,-117.67C302.44,-115.36 176.2,-106.68 148.67,-74 114.32,-33.21 210.67,-18.15 265.53,-12.98"/>
<polygon fill="#63b8ff" stroke="#63b8ff" points="265.92,-16.46 275.58,-12.1 265.31,-9.49 265.92,-16.46"/>
</a>
</g>
</g>
<!-- Node11 -->
<g id="Node000011" class="node">
<title>Node11</title>
<g id="a_Node000011"><a xlink:title=" ">
<polygon fill="#e0e0e0" stroke="#999999" points="63.67,-74 13.67,-74 13.67,-55 63.67,-55 63.67,-74"/>
<text text-anchor="middle" x="38.67" y="-62" font-family="Helvetica,sans-Serif" font-size="10.00">atomic</text>
</a>
</g>
</g>
<!-- Node3&#45;&gt;Node11 -->
<g id="edge10_Node000003_Node000011" class="edge">
<title>Node3&#45;&gt;Node11</title>
<g id="a_edge10_Node000003_Node000011"><a xlink:title=" ">
<path fill="none" stroke="#63b8ff" d="M367.52,-114.23C305.71,-107.27 181.83,-92.36 77.67,-74 76.41,-73.78 75.12,-73.54 73.82,-73.3"/>
<polygon fill="#63b8ff" stroke="#63b8ff" points="74.28,-69.82 63.79,-71.28 72.91,-76.68 74.28,-69.82"/>
</a>
</g>
</g>
<!-- Node12 -->
<g id="Node000012" class="node">
<title>Node12</title>
<g id="a_Node000012"><a xlink:title=" ">
<polygon fill="#e0e0e0" stroke="#999999" points="523.17,-74 476.17,-74 476.17,-55 523.17,-55 523.17,-74"/>
<text text-anchor="middle" x="499.67" y="-62" font-family="Helvetica,sans-Serif" font-size="10.00">cerrno</text>
</a>
</g>
</g>
<!-- Node3&#45;&gt;Node12 -->
<g id="edge11_Node000003_Node000012" class="edge">
<title>Node3&#45;&gt;Node12</title>
<g id="a_edge11_Node000003_Node000012"><a xlink:title=" ">
<path fill="none" stroke="#63b8ff" d="M421.62,-109.98C436.17,-101.69 458.54,-88.94 475.61,-79.22"/>
<polygon fill="#63b8ff" stroke="#63b8ff" points="477.5,-82.16 484.46,-74.17 474.04,-76.08 477.5,-82.16"/>
</a>
</g>
</g>
<!-- Node13 -->
<g id="Node000013" class="node">
<title>Node13</title>
<g id="a_Node000013"><a xlink:href="shm__table_8h.html" target="_top" xlink:title=" ">
<polygon fill="white" stroke="#666666" points="618.17,-74 541.17,-74 541.17,-55 618.17,-55 618.17,-74"/>
<text text-anchor="middle" x="579.67" y="-62" font-family="Helvetica,sans-Serif" font-size="10.00">shm_table.h</text>
</a>
</g>
</g>
<!-- Node3&#45;&gt;Node13 -->
<g id="edge12_Node000003_Node000013" class="edge">
<title>Node3&#45;&gt;Node13</title>
<g id="a_edge12_Node000003_Node000013"><a xlink:title=" ">
<path fill="none" stroke="#63b8ff" d="M434.47,-109.98C463.64,-101.05 509.67,-86.94 542.08,-77.02"/>
<polygon fill="#63b8ff" stroke="#63b8ff" points="543.12,-80.36 551.66,-74.08 541.07,-73.66 543.12,-80.36"/>
</a>
</g>
</g>
<!-- Node13&#45;&gt;Node4 -->
<g id="edge14_Node000013_Node000004" class="edge">
<title>Node13&#45;&gt;Node4</title>
<g id="a_edge14_Node000013_Node000004"><a xlink:title=" ">
<path fill="none" stroke="#63b8ff" d="M540.93,-56.45C537.8,-55.94 534.69,-55.45 531.67,-55 408.02,-36.59 260.13,-20.5 195.98,-13.8"/>
<polygon fill="#63b8ff" stroke="#63b8ff" points="196.02,-10.29 185.71,-12.74 195.3,-17.25 196.02,-10.29"/>
</a>
</g>
</g>
<!-- Node13&#45;&gt;Node10 -->
<g id="edge16_Node000013_Node000010" class="edge">
<title>Node13&#45;&gt;Node10</title>
<g id="a_edge16_Node000013_Node000010"><a xlink:title=" ">
<path fill="none" stroke="#63b8ff" d="M541.17,-56.19C486.8,-45.86 388.29,-27.14 335.81,-17.17"/>
<polygon fill="#63b8ff" stroke="#63b8ff" points="336.43,-13.73 325.95,-15.3 335.12,-20.61 336.43,-13.73"/>
</a>
</g>
</g>
<!-- Node14 -->
<g id="Node000014" class="node">
<title>Node14</title>
<g id="a_Node000014"><a xlink:title=" ">
<polygon fill="#e0e0e0" stroke="#999999" points="540.17,-19 487.17,-19 487.17,0 540.17,0 540.17,-19"/>
<text text-anchor="middle" x="513.67" y="-7" font-family="Helvetica,sans-Serif" font-size="10.00">cstddef</text>
</a>
</g>
</g>
<!-- Node13&#45;&gt;Node14 -->
<g id="edge13_Node000013_Node000014" class="edge">
<title>Node13&#45;&gt;Node14</title>
<g id="a_edge13_Node000013_Node000014"><a xlink:title=" ">
<path fill="none" stroke="#63b8ff" d="M569.07,-54.98C559.22,-47.07 544.32,-35.11 532.46,-25.58"/>
<polygon fill="#63b8ff" stroke="#63b8ff" points="534.46,-22.7 524.47,-19.17 530.08,-28.16 534.46,-22.7"/>
</a>
</g>
</g>
<!-- Node15 -->
<g id="Node000015" class="node">
<title>Node15</title>
<g id="a_Node000015"><a xlink:title=" ">
<polygon fill="#e0e0e0" stroke="#999999" points="600.67,-19 558.67,-19 558.67,0 600.67,0 600.67,-19"/>
<text text-anchor="middle" x="579.67" y="-7" font-family="Helvetica,sans-Serif" font-size="10.00">array</text>
</a>
</g>
</g>
<!-- Node13&#45;&gt;Node15 -->
<g id="edge15_Node000013_Node000015" class="edge">
<title>Node13&#45;&gt;Node15</title>
<g id="a_edge15_Node000013_Node000015"><a xlink:title=" ">
<path fill="none" stroke="#63b8ff" d="M579.67,-54.75C579.67,-47.8 579.67,-37.85 579.67,-29.13"/>
<polygon fill="#63b8ff" stroke="#63b8ff" points="583.17,-29.09 579.67,-19.09 576.17,-29.09 583.17,-29.09"/>
</a>
</g>
</g>
<!-- Node16 -->
<g id="Node000016" class="node">
<title>Node16</title>
<g id="a_Node000016"><a xlink:title=" ">
<polygon fill="#e0e0e0" stroke="#999999" points="104.67,-19 48.67,-19 48.67,0 104.67,0 104.67,-19"/>
<text text-anchor="middle" x="76.67" y="-7" font-family="Helvetica,sans-Serif" font-size="10.00">optional</text>
</a>
</g>
</g>
<!-- Node13&#45;&gt;Node16 -->
<g id="edge17_Node000013_Node000016" class="edge">
<title>Node13&#45;&gt;Node16</title>
<g id="a_edge17_Node000013_Node000016"><a xlink:title=" ">
<path fill="none" stroke="#63b8ff" d="M540.95,-56.35C537.81,-55.86 534.69,-55.4 531.67,-55 355.18,-31.45 309.44,-40.37 132.67,-19 127,-18.31 121.01,-17.5 115.15,-16.65"/>
<polygon fill="#63b8ff" stroke="#63b8ff" points="115.24,-13.13 104.83,-15.11 114.2,-20.05 115.24,-13.13"/>
</a>
</g>
</g>
<!-- Node17 -->
<g id="Node000017" class="node">
<title>Node17</title>
<g id="a_Node000017"><a xlink:title=" ">
<polygon fill="#e0e0e0" stroke="#999999" points="682.67,-19 618.67,-19 618.67,0 682.67,0 682.67,-19"/>
<text text-anchor="middle" x="650.67" y="-7" font-family="Helvetica,sans-Serif" font-size="10.00">algorithm</text>
</a>
</g>
</g>
<!-- Node13&#45;&gt;Node17 -->
<g id="edge18_Node000013_Node000017" class="edge">
<title>Node13&#45;&gt;Node17</title>
<g id="a_edge18_Node000013_Node000017"><a xlink:title=" ">
<path fill="none" stroke="#63b8ff" d="M591.08,-54.98C601.78,-47 618.01,-34.88 630.84,-25.31"/>
<polygon fill="#63b8ff" stroke="#63b8ff" points="633.14,-27.96 639.06,-19.17 628.95,-22.35 633.14,-27.96"/>
</a>
</g>
</g>
<!-- Node18 -->
<g id="Node000018" class="node">
<title>Node18</title>
<g id="a_Node000018"><a xlink:title=" ">
<polygon fill="#e0e0e0" stroke="#999999" points="774.17,-19 701.17,-19 701.17,0 774.17,0 774.17,-19"/>
<text text-anchor="middle" x="737.67" y="-7" font-family="Helvetica,sans-Serif" font-size="10.00">string_view</text>
</a>
</g>
</g>
<!-- Node13&#45;&gt;Node18 -->
<g id="edge19_Node000013_Node000018" class="edge">
<title>Node13&#45;&gt;Node18</title>
<g id="a_edge19_Node000013_Node000018"><a xlink:title=" ">
<path fill="none" stroke="#63b8ff" d="M605.06,-54.98C631.47,-46.13 673.02,-32.19 702.57,-22.28"/>
<polygon fill="#63b8ff" stroke="#63b8ff" points="703.72,-25.58 712.09,-19.08 701.5,-18.94 703.72,-25.58"/>
</a>
</g>
</g>
<!-- Node19&#45;&gt;Node3 -->
<g id="edge21_Node000019_Node000003" class="edge">
<title>Node19&#45;&gt;Node3</title>
<g id="a_edge21_Node000019_Node000003"><a xlink:title=" ">
<path fill="none" stroke="#63b8ff" d="M680.42,-167C623.85,-157.39 517.89,-139.39 455.7,-128.83"/>
<polygon fill="#63b8ff" stroke="#63b8ff" points="456.18,-125.36 445.73,-127.14 455.01,-132.26 456.18,-125.36"/>
</a>
</g>
</g>
<!-- Node19&#45;&gt;Node5 -->
<g id="edge25_Node000019_Node000005" class="edge">
<title>Node19&#45;&gt;Node5</title>
<g id="a_edge25_Node000019_Node000005"><a xlink:title=" ">
<path fill="none" stroke="#63b8ff" d="M746.64,-164.92C775.53,-154.49 814.35,-135.12 798.67,-110 787.94,-92.8 768.42,-82.07 750.2,-75.47"/>
<polygon fill="#63b8ff" stroke="#63b8ff" points="751.16,-72.1 740.57,-72.29 748.97,-78.74 751.16,-72.1"/>
</a>
</g>
</g>
<!-- Node19&#45;&gt;Node13 -->
<g id="edge24_Node000019_Node000013" class="edge">
<title>Node19&#45;&gt;Node13</title>
<g id="a_edge24_Node000019_Node000013"><a xlink:title=" ">
<path fill="none" stroke="#63b8ff" d="M713.21,-164.73C704.63,-151.51 686.86,-126.28 666.67,-110 650.23,-96.73 629.19,-85.84 611.92,-78.16"/>
<polygon fill="#63b8ff" stroke="#63b8ff" points="612.82,-74.73 602.25,-74.01 610.06,-81.17 612.82,-74.73"/>
</a>
</g>
</g>
<!-- Node19&#45;&gt;Node17 -->
<g id="edge26_Node000019_Node000017" class="edge">
<title>Node19&#45;&gt;Node17</title>
<g id="a_edge26_Node000019_Node000017"><a xlink:title=" ">
<path fill="none" stroke="#63b8ff" d="M750.88,-164.97C771.17,-158.15 796.66,-146.75 813.67,-129 837.51,-104.14 858.01,-82.04 836.67,-55 832.16,-49.28 746.25,-30.45 692.78,-19.2"/>
<polygon fill="#63b8ff" stroke="#63b8ff" points="693.38,-15.75 682.88,-17.13 691.95,-22.6 693.38,-15.75"/>
</a>
</g>
</g>
<!-- Node19&#45;&gt;Node18 -->
<g id="edge29_Node000019_Node000018" class="edge">
<title>Node19&#45;&gt;Node18</title>
<g id="a_edge29_Node000019_Node000018"><a xlink:title=" ">
<path fill="none" stroke="#63b8ff" d="M756.75,-174.13C792.36,-172.43 843.81,-163.58 869.67,-129 889.37,-102.66 888.86,-81.71 869.67,-55 850.43,-28.2 814.21,-17.33 784.58,-13.02"/>
<polygon fill="#63b8ff" stroke="#63b8ff" points="784.76,-9.51 774.41,-11.75 783.9,-16.46 784.76,-9.51"/>
</a>
</g>
</g>
<!-- Node20 -->
<g id="Node000020" class="node">
<title>Node20</title>
<g id="a_Node000020"><a xlink:href="shm__span_8h.html" target="_top" xlink:title=" ">
<polygon fill="white" stroke="#666666" points="789.17,-129 714.17,-129 714.17,-110 789.17,-110 789.17,-129"/>
<text text-anchor="middle" x="751.67" y="-117" font-family="Helvetica,sans-Serif" font-size="10.00">shm_span.h</text>
</a>
</g>
</g>
<!-- Node19&#45;&gt;Node20 -->
<g id="edge22_Node000019_Node000020" class="edge">
<title>Node19&#45;&gt;Node20</title>
<g id="a_edge22_Node000019_Node000020"><a xlink:title=" ">
<path fill="none" stroke="#63b8ff" d="M724.12,-164.75C728.69,-157.42 735.34,-146.73 740.97,-137.7"/>
<polygon fill="#63b8ff" stroke="#63b8ff" points="744.01,-139.43 746.33,-129.09 738.07,-135.73 744.01,-139.43"/>
</a>
</g>
</g>
<!-- Node22 -->
<g id="Node000022" class="node">
<title>Node22</title>
<g id="a_Node000022"><a xlink:title=" ">
<polygon fill="#e0e0e0" stroke="#999999" points="657.67,-129 597.67,-129 597.67,-110 657.67,-110 657.67,-129"/>
<text text-anchor="middle" x="627.67" y="-117" font-family="Helvetica,sans-Serif" font-size="10.00">concepts</text>
</a>
</g>
</g>
<!-- Node19&#45;&gt;Node22 -->
<g id="edge27_Node000019_Node000022" class="edge">
<title>Node19&#45;&gt;Node22</title>
<g id="a_edge27_Node000019_Node000022"><a xlink:title=" ">
<path fill="none" stroke="#63b8ff" d="M704.05,-164.98C689.81,-156.69 667.92,-143.94 651.22,-134.22"/>
<polygon fill="#63b8ff" stroke="#63b8ff" points="652.96,-131.18 642.56,-129.17 649.44,-137.23 652.96,-131.18"/>
</a>
</g>
</g>
<!-- Node23 -->
<g id="Node000023" class="node">
<title>Node23</title>
<g id="a_Node000023"><a xlink:title=" ">
<polygon fill="#e0e0e0" stroke="#999999" points="579.67,-129 539.67,-129 539.67,-110 579.67,-110 579.67,-129"/>
<text text-anchor="middle" x="559.67" y="-117" font-family="Helvetica,sans-Serif" font-size="10.00">span</text>
</a>
</g>
</g>
<!-- Node19&#45;&gt;Node23 -->
<g id="edge28_Node000019_Node000023" class="edge">
<title>Node19&#45;&gt;Node23</title>
<g id="a_edge28_Node000019_Node000023"><a xlink:title=" ">
<path fill="none" stroke="#63b8ff" d="M693.13,-164.98C664.89,-155.57 619.47,-140.43 589.59,-130.47"/>
<polygon fill="#63b8ff" stroke="#63b8ff" points="590.7,-127.15 580.1,-127.31 588.48,-133.79 590.7,-127.15"/>
</a>
</g>
</g>
<!-- Node24 -->
<g id="Node000024" class="node">
<title>Node24</title>
<g id="a_Node000024"><a xlink:title=" ">
<polygon fill="#e0e0e0" stroke="#999999" points="975.17,-129 922.17,-129 922.17,-110 975.17,-110 975.17,-129"/>
<text text-anchor="middle" x="948.67" y="-117" font-family="Helvetica,sans-Serif" font-size="10.00">iterator</text>
</a>
</g>
</g>
<!-- Node19&#45;&gt;Node24 -->
<g id="edge30_Node000019_Node000024" class="edge">
<title>Node19&#45;&gt;Node24</title>
<g id="a_edge30_Node000019_Node000024"><a xlink:title=" ">
<path fill="none" stroke="#63b8ff" d="M755.63,-164.98C798.56,-155.09 868.98,-138.86 911.86,-128.98"/>
<polygon fill="#63b8ff" stroke="#63b8ff" points="912.91,-132.33 921.87,-126.68 911.34,-125.51 912.91,-132.33"/>
</a>
</g>
</g>
<!-- Node21 -->
<g id="Node000021" class="node">
<title>Node21</title>
<g id="a_Node000021"><a xlink:title=" ">
<polygon fill="#e0e0e0" stroke="#999999" points="827.17,-74 758.17,-74 758.17,-55 827.17,-55 827.17,-74"/>
<text text-anchor="middle" x="792.67" y="-62" font-family="Helvetica,sans-Serif" font-size="10.00">type_traits</text>
</a>
</g>
</g>
<!-- Node20&#45;&gt;Node21 -->
<g id="edge23_Node000020_Node000021" class="edge">
<title>Node20&#45;&gt;Node21</title>
<g id="a_edge23_Node000020_Node000021"><a xlink:title=" ">
<path fill="none" stroke="#63b8ff" d="M758.44,-109.75C764.24,-102.26 772.73,-91.28 779.81,-82.13"/>
<polygon fill="#63b8ff" stroke="#63b8ff" points="782.68,-84.14 786.03,-74.09 777.14,-79.86 782.68,-84.14"/>
</a>
</g>
</g>
<!-- Node25&#45;&gt;Node3 -->
<g id="edge32_Node000025_Node000003" class="edge">
<title>Node25&#45;&gt;Node3</title>
<g id="a_edge32_Node000025_Node000003"><a xlink:title=" ">
<path fill="none" stroke="#63b8ff" d="M479.7,-164.98C466.2,-156.77 445.54,-144.18 429.63,-134.49"/>
<polygon fill="#63b8ff" stroke="#63b8ff" points="431.27,-131.38 420.91,-129.17 427.63,-137.36 431.27,-131.38"/>
</a>
</g>
</g>
<!-- Node25&#45;&gt;Node11 -->
<g id="edge35_Node000025_Node000011" class="edge">
<title>Node25&#45;&gt;Node11</title>
<g id="a_edge35_Node000025_Node000011"><a xlink:title=" ">
<path fill="none" stroke="#63b8ff" d="M457.59,-164.94C372.14,-144.65 158.27,-93.89 73.79,-73.84"/>
<polygon fill="#63b8ff" stroke="#63b8ff" points="74.45,-70.4 63.92,-71.49 72.84,-77.21 74.45,-70.4"/>
</a>
</g>
</g>
<!-- Node25&#45;&gt;Node13 -->
<g id="edge34_Node000025_Node000013" class="edge">
<title>Node25&#45;&gt;Node13</title>
<g id="a_edge34_Node000025_Node000013"><a xlink:title=" ">
<path fill="none" stroke="#63b8ff" d="M491.77,-164.9C489.4,-151.89 486.85,-126.94 497.67,-110 507.2,-95.08 523.54,-84.78 539.14,-77.89"/>
<polygon fill="#63b8ff" stroke="#63b8ff" points="540.74,-81.02 548.69,-74.02 538.11,-74.53 540.74,-81.02"/>
</a>
</g>
</g>
<!-- Node25&#45;&gt;Node16 -->
<g id="edge38_Node000025_Node000016" class="edge">
<title>Node25&#45;&gt;Node16</title>
<g id="a_edge38_Node000025_Node000016"><a xlink:title=" ">
<path fill="none" stroke="#63b8ff" d="M452.31,-168.15C339.43,-153.15 32.66,-109.44 4.67,-74 -11.24,-53.85 18.08,-34.95 43.95,-23.1"/>
<polygon fill="#63b8ff" stroke="#63b8ff" points="45.46,-26.26 53.24,-19.06 42.67,-19.84 45.46,-26.26"/>
</a>
</g>
</g>
<!-- Node25&#45;&gt;Node18 -->
<g id="edge39_Node000025_Node000018" class="edge">
<title>Node25&#45;&gt;Node18</title>
<g id="a_edge39_Node000025_Node000018"><a xlink:title=" ">
<path fill="none" stroke="#63b8ff" d="M496.55,-164.85C501.47,-151.32 512.73,-125.14 530.67,-110 565.5,-80.61 585.43,-93.38 626.67,-74 658.67,-58.97 693.81,-38.06 715.81,-24.41"/>
<polygon fill="#63b8ff" stroke="#63b8ff" points="717.76,-27.32 724.38,-19.04 714.05,-21.38 717.76,-27.32"/>
</a>
</g>
</g>
<!-- Node25&#45;&gt;Node20 -->
<g id="edge33_Node000025_Node000020" class="edge">
<title>Node25&#45;&gt;Node20</title>
<g id="a_edge33_Node000025_Node000020"><a xlink:title=" ">
<path fill="none" stroke="#63b8ff" d="M534.84,-165.04C580.93,-155.58 655.5,-140.26 704.06,-130.28"/>
<polygon fill="#63b8ff" stroke="#63b8ff" points="704.92,-133.68 714.01,-128.24 703.51,-126.82 704.92,-133.68"/>
</a>
</g>
</g>
<!-- Node25&#45;&gt;Node22 -->
<g id="edge36_Node000025_Node000022" class="edge">
<title>Node25&#45;&gt;Node22</title>
<g id="a_edge36_Node000025_Node000022"><a xlink:title=" ">
<path fill="none" stroke="#63b8ff" d="M515.2,-164.98C537.15,-156.3 571.42,-142.75 596.36,-132.88"/>
<polygon fill="#63b8ff" stroke="#63b8ff" points="597.74,-136.1 605.75,-129.17 595.17,-129.59 597.74,-136.1"/>
</a>
</g>
</g>
<!-- Node25&#45;&gt;Node23 -->
<g id="edge37_Node000025_Node000023" class="edge">
<title>Node25&#45;&gt;Node23</title>
<g id="a_edge37_Node000025_Node000023"><a xlink:title=" ">
<path fill="none" stroke="#63b8ff" d="M504.28,-164.98C514.13,-157.07 529.02,-145.11 540.89,-135.58"/>
<polygon fill="#63b8ff" stroke="#63b8ff" points="543.27,-138.16 548.88,-129.17 538.89,-132.7 543.27,-138.16"/>
</a>
</g>
</g>
</g>
</svg>
