<?xml version="1.0" encoding="UTF-8" standalone="no"?>
<!DOCTYPE svg PUBLIC "-//W3C//DTD SVG 1.1//EN"
 "http://www.w3.org/Graphics/SVG/1.1/DTD/svg11.dtd">
<!-- Generated by graphviz version 2.43.0 (0)
 -->
<!-- Title: include/posix_shm.h Pages: 1 -->
<svg width="1037pt" height="214pt"
 viewBox="0.00 0.00 1037.00 214.00" xmlns="http://www.w3.org/2000/svg" xmlns:xlink="http://www.w3.org/1999/xlink">
<g id="graph0" class="graph" transform="scale(1 1) rotate(0) translate(4 210)">
<title>include/posix_shm.h</title>
<!-- Node1 -->
<g id="Node000001" class="node">
<title>Node1</title>
<g id="a_Node000001"><a xlink:title="Core POSIX shared memory management with automatic reference counting.">
<polygon fill="#999999" stroke="#666666" points="564,-206 448,-206 448,-187 564,-187 564,-206"/>
<text text-anchor="middle" x="506" y="-194" font-family="Helvetica,sans-Serif" font-size="10.00">include/posix_shm.h</text>
</a>
</g>
</g>
<!-- Node2 -->
<g id="Node000002" class="node">
<title>Node2</title>
<g id="a_Node000002"><a xlink:href="basic__usage_8cpp.html" target="_top" xlink:title=" ">
<polygon fill="white" stroke="#666666" points="148,-79.5 0,-79.5 0,-60.5 148,-60.5 148,-79.5"/>
<text text-anchor="middle" x="74" y="-67.5" font-family="Helvetica,sans-Serif" font-size="10.00">examples/basic_usage.cpp</text>
</a>
</g>
</g>
<!-- Node1&#45;&gt;Node2 -->
<g id="edge1_Node000001_Node000002" class="edge">
<title>Node1&#45;&gt;Node2</title>
<g id="a_edge1_Node000001_Node000002"><a xlink:title=" ">
<path fill="none" stroke="#63b8ff" d="M437.7,-191.38C352.24,-185.4 211.37,-172.61 164,-151 126.91,-134.08 94.11,-96.52 80.58,-79.58"/>
<polygon fill="#63b8ff" stroke="#63b8ff" points="437.62,-194.88 447.83,-192.07 438.09,-187.89 437.62,-194.88"/>
</a>
</g>
</g>
<!-- Node3 -->
<g id="Node000003" class="node">
<title>Node3</title>
<g id="a_Node000003"><a xlink:href="benchmark__reads_8cpp.html" target="_top" xlink:title=" ">
<polygon fill="white" stroke="#666666" points="440,-85 318,-85 318,-55 440,-55 440,-85"/>
<text text-anchor="start" x="326" y="-73" font-family="Helvetica,sans-Serif" font-size="10.00">examples/benchmark</text>
<text text-anchor="middle" x="379" y="-62" font-family="Helvetica,sans-Serif" font-size="10.00">_reads.cpp</text>
</a>
</g>
</g>
<!-- Node1&#45;&gt;Node3 -->
<g id="edge2_Node000001_Node000003" class="edge">
<title>Node1&#45;&gt;Node3</title>
<g id="a_edge2_Node000001_Node000003"><a xlink:title=" ">
<path fill="none" stroke="#63b8ff" d="M451.2,-183.94C431.89,-177.3 411.63,-166.97 398,-151 382.06,-132.32 378.96,-102.63 378.65,-85.16"/>
<polygon fill="#63b8ff" stroke="#63b8ff" points="450.28,-187.32 460.87,-187 452.39,-180.64 450.28,-187.32"/>
</a>
</g>
</g>
<!-- Node4 -->
<g id="Node000004" class="node">
<title>Node4</title>
<g id="a_Node000004"><a xlink:href="custom__table__sizes_8cpp.html" target="_top" xlink:title=" ">
<polygon fill="white" stroke="#666666" points="300,-85 166,-85 166,-55 300,-55 300,-85"/>
<text text-anchor="start" x="174" y="-73" font-family="Helvetica,sans-Serif" font-size="10.00">examples/custom_table</text>
<text text-anchor="middle" x="233" y="-62" font-family="Helvetica,sans-Serif" font-size="10.00">_sizes.cpp</text>
</a>
</g>
</g>
<!-- Node1&#45;&gt;Node4 -->
<g id="edge3_Node000001_Node000004" class="edge">
<title>Node1&#45;&gt;Node4</title>
<g id="a_edge3_Node000001_Node000004"><a xlink:title=" ">
<path fill="none" stroke="#63b8ff" d="M468.12,-183.86C442.78,-175.66 408.91,-163.87 380,-151 334.74,-130.85 284.57,-102.05 256.09,-85.07"/>
<polygon fill="#63b8ff" stroke="#63b8ff" points="467.14,-187.23 477.73,-186.94 469.27,-180.56 467.14,-187.23"/>
</a>
</g>
</g>
<!-- Node5 -->
<g id="Node000005" class="node">
<title>Node5</title>
<g id="a_Node000005"><a xlink:href="simd__simulation_8cpp.html" target="_top" xlink:title="Example of SIMD&#45;optimized particle simulation using shared memory.">
<polygon fill="white" stroke="#666666" points="650.5,-19 481.5,-19 481.5,0 650.5,0 650.5,-19"/>
<text text-anchor="middle" x="566" y="-7" font-family="Helvetica,sans-Serif" font-size="10.00">examples/simd_simulation.cpp</text>
</a>
</g>
</g>
<!-- Node1&#45;&gt;Node5 -->
<g id="edge4_Node000001_Node000005" class="edge">
<title>Node1&#45;&gt;Node5</title>
<g id="a_edge4_Node000001_Node000005"><a xlink:title=" ">
<path fill="none" stroke="#63b8ff" d="M517.49,-178.02C528.96,-161.61 547.9,-137.23 569,-121 598.63,-98.21 625.01,-116.58 645,-85 652.13,-73.73 651.73,-66.51 645,-55 634.52,-37.06 613.84,-25.79 596.27,-19.08"/>
<polygon fill="#63b8ff" stroke="#63b8ff" points="514.36,-176.39 511.63,-186.63 520.15,-180.33 514.36,-176.39"/>
</a>
</g>
</g>
<!-- Node6 -->
<g id="Node000006" class="node">
<title>Node6</title>
<g id="a_Node000006"><a xlink:href="simulation__patterns_8cpp.html" target="_top" xlink:title=" ">
<polygon fill="white" stroke="#666666" points="837.5,-85 718.5,-85 718.5,-55 837.5,-55 837.5,-85"/>
<text text-anchor="start" x="726.5" y="-73" font-family="Helvetica,sans-Serif" font-size="10.00">examples/simulation</text>
<text text-anchor="middle" x="778" y="-62" font-family="Helvetica,sans-Serif" font-size="10.00">_patterns.cpp</text>
</a>
</g>
</g>
<!-- Node1&#45;&gt;Node6 -->
<g id="edge5_Node000001_Node000006" class="edge">
<title>Node1&#45;&gt;Node6</title>
<g id="a_edge5_Node000001_Node000006"><a xlink:title=" ">
<path fill="none" stroke="#63b8ff" d="M574.04,-191.67C671.07,-185.51 839.56,-171.92 858,-151 879.37,-126.76 840.24,-100.64 809.54,-85.07"/>
<polygon fill="#63b8ff" stroke="#63b8ff" points="573.78,-188.18 564.02,-192.3 574.22,-195.17 573.78,-188.18"/>
</a>
</g>
</g>
<!-- Node7 -->
<g id="Node000007" class="node">
<title>Node7</title>
<g id="a_Node000007"><a xlink:href="shm__array_8h.html" target="_top" xlink:title="Fixed&#45;size shared memory array with STL compatibility.">
<polygon fill="white" stroke="#666666" points="521,-145.5 407,-145.5 407,-126.5 521,-126.5 521,-145.5"/>
<text text-anchor="middle" x="464" y="-133.5" font-family="Helvetica,sans-Serif" font-size="10.00">include/shm_array.h</text>
</a>
</g>
</g>
<!-- Node1&#45;&gt;Node7 -->
<g id="edge6_Node000001_Node000007" class="edge">
<title>Node1&#45;&gt;Node7</title>
<g id="a_edge6_Node000001_Node000007"><a xlink:title=" ">
<path fill="none" stroke="#63b8ff" d="M493.89,-178.63C486.15,-167.85 476.44,-154.32 470.22,-145.67"/>
<polygon fill="#63b8ff" stroke="#63b8ff" points="491.13,-180.79 499.8,-186.87 496.81,-176.7 491.13,-180.79"/>
</a>
</g>
</g>
<!-- Node9 -->
<g id="Node000009" class="node">
<title>Node9</title>
<g id="a_Node000009"><a xlink:href="shm__atomic_8h.html" target="_top" xlink:title=" ">
<polygon fill="white" stroke="#666666" points="1029,-145.5 905,-145.5 905,-126.5 1029,-126.5 1029,-145.5"/>
<text text-anchor="middle" x="967" y="-133.5" font-family="Helvetica,sans-Serif" font-size="10.00">include/shm_atomic.h</text>
</a>
</g>
</g>
<!-- Node1&#45;&gt;Node9 -->
<g id="edge14_Node000001_Node000009" class="edge">
<title>Node1&#45;&gt;Node9</title>
<g id="a_edge14_Node000001_Node000009"><a xlink:title=" ">
<path fill="none" stroke="#63b8ff" d="M574.27,-189.01C651.38,-181.35 780.51,-167.54 891,-151 901.48,-149.43 912.73,-147.5 923.28,-145.57"/>
<polygon fill="#63b8ff" stroke="#63b8ff" points="573.82,-185.53 564.21,-190 574.51,-192.5 573.82,-185.53"/>
</a>
</g>
</g>
<!-- Node10 -->
<g id="Node000010" class="node">
<title>Node10</title>
<g id="a_Node000010"><a xlink:href="shm__object__pool_8h.html" target="_top" xlink:title=" ">
<polygon fill="white" stroke="#666666" points="688.5,-151 577.5,-151 577.5,-121 688.5,-121 688.5,-151"/>
<text text-anchor="start" x="585.5" y="-139" font-family="Helvetica,sans-Serif" font-size="10.00">include/shm_object</text>
<text text-anchor="middle" x="633" y="-128" font-family="Helvetica,sans-Serif" font-size="10.00">_pool.h</text>
</a>
</g>
</g>
<!-- Node1&#45;&gt;Node10 -->
<g id="edge16_Node000001_Node000010" class="edge">
<title>Node1&#45;&gt;Node10</title>
<g id="a_edge16_Node000001_Node000010"><a xlink:title=" ">
<path fill="none" stroke="#63b8ff" d="M533.75,-182.72C553.96,-173.41 581.34,-160.8 602.22,-151.18"/>
<polygon fill="#63b8ff" stroke="#63b8ff" points="532.09,-179.63 524.47,-186.99 535.01,-185.99 532.09,-179.63"/>
</a>
</g>
</g>
<!-- Node11 -->
<g id="Node000011" class="node">
<title>Node11</title>
<g id="a_Node000011"><a xlink:href="shm__queue_8h.html" target="_top" xlink:title=" ">
<polygon fill="white" stroke="#666666" points="293,-145.5 173,-145.5 173,-126.5 293,-126.5 293,-145.5"/>
<text text-anchor="middle" x="233" y="-133.5" font-family="Helvetica,sans-Serif" font-size="10.00">include/shm_queue.h</text>
</a>
</g>
</g>
<!-- Node1&#45;&gt;Node11 -->
<g id="edge18_Node000001_Node000011" class="edge">
<title>Node1&#45;&gt;Node11</title>
<g id="a_edge18_Node000001_Node000011"><a xlink:title=" ">
<path fill="none" stroke="#63b8ff" d="M456.5,-184.89C403.78,-173.6 321.39,-155.94 272.74,-145.52"/>
<polygon fill="#63b8ff" stroke="#63b8ff" points="455.79,-188.32 466.3,-186.99 457.26,-181.48 455.79,-188.32"/>
</a>
</g>
</g>
<!-- Node12 -->
<g id="Node000012" class="node">
<title>Node12</title>
<g id="a_Node000012"><a xlink:href="shm__ring__buffer_8h.html" target="_top" xlink:title=" ">
<polygon fill="white" stroke="#666666" points="849,-145.5 707,-145.5 707,-126.5 849,-126.5 849,-145.5"/>
<text text-anchor="middle" x="778" y="-133.5" font-family="Helvetica,sans-Serif" font-size="10.00">include/shm_ring_buffer.h</text>
</a>
</g>
</g>
<!-- Node1&#45;&gt;Node12 -->
<g id="edge21_Node000001_Node000012" class="edge">
<title>Node1&#45;&gt;Node12</title>
<g id="a_edge21_Node000001_Node000012"><a xlink:title=" ">
<path fill="none" stroke="#63b8ff" d="M555.65,-184.82C608.18,-173.52 690.03,-155.92 738.4,-145.52"/>
<polygon fill="#63b8ff" stroke="#63b8ff" points="554.59,-181.47 545.55,-186.99 556.06,-188.31 554.59,-181.47"/>
</a>
</g>
</g>
<!-- Node7&#45;&gt;Node2 -->
<g id="edge7_Node000007_Node000002" class="edge">
<title>Node7&#45;&gt;Node2</title>
<g id="a_edge7_Node000007_Node000002"><a xlink:title=" ">
<path fill="none" stroke="#63b8ff" d="M400.99,-124.84C338.92,-114.81 241.4,-98.99 157,-85 146.48,-83.26 135.2,-81.37 124.47,-79.56"/>
<polygon fill="#63b8ff" stroke="#63b8ff" points="400.59,-128.32 411.02,-126.46 401.7,-121.41 400.59,-128.32"/>
</a>
</g>
</g>
<!-- Node7&#45;&gt;Node3 -->
<g id="edge8_Node000007_Node000003" class="edge">
<title>Node7&#45;&gt;Node3</title>
<g id="a_edge8_Node000007_Node000003"><a xlink:title=" ">
<path fill="none" stroke="#63b8ff" d="M444.5,-120.32C430.45,-109.74 411.62,-95.56 397.75,-85.12"/>
<polygon fill="#63b8ff" stroke="#63b8ff" points="442.44,-123.15 452.54,-126.37 446.65,-117.56 442.44,-123.15"/>
</a>
</g>
</g>
<!-- Node7&#45;&gt;Node4 -->
<g id="edge9_Node000007_Node000004" class="edge">
<title>Node7&#45;&gt;Node4</title>
<g id="a_edge9_Node000007_Node000004"><a xlink:title=" ">
<path fill="none" stroke="#63b8ff" d="M422.93,-123.62C384.1,-112.86 325.73,-96.69 283.95,-85.12"/>
<polygon fill="#63b8ff" stroke="#63b8ff" points="422.27,-127.07 432.85,-126.37 424.14,-120.33 422.27,-127.07"/>
</a>
</g>
</g>
<!-- Node7&#45;&gt;Node5 -->
<g id="edge10_Node000007_Node000005" class="edge">
<title>Node7&#45;&gt;Node5</title>
<g id="a_edge10_Node000007_Node000005"><a xlink:title=" ">
<path fill="none" stroke="#63b8ff" d="M465.36,-116.24C467.49,-98.75 472.96,-72.76 487,-55 500.57,-37.83 522.69,-26.19 540.08,-19.13"/>
<polygon fill="#63b8ff" stroke="#63b8ff" points="461.86,-116.04 464.38,-126.33 468.83,-116.72 461.86,-116.04"/>
</a>
</g>
</g>
<!-- Node7&#45;&gt;Node6 -->
<g id="edge11_Node000007_Node000006" class="edge">
<title>Node7&#45;&gt;Node6</title>
<g id="a_edge11_Node000007_Node000006"><a xlink:title=" ">
<path fill="none" stroke="#63b8ff" d="M516.02,-124.4C571.67,-113.05 659.8,-95.09 718.25,-83.18"/>
<polygon fill="#63b8ff" stroke="#63b8ff" points="515.12,-121.01 506.02,-126.44 516.52,-127.87 515.12,-121.01"/>
</a>
</g>
</g>
<!-- Node8 -->
<g id="Node000008" class="node">
<title>Node8</title>
<g id="a_Node000008"><a xlink:href="shm__simd__utils_8h.html" target="_top" xlink:title="SIMD&#45;optimized utilities for simulation workloads.">
<polygon fill="white" stroke="#666666" points="636,-79.5 496,-79.5 496,-60.5 636,-60.5 636,-79.5"/>
<text text-anchor="middle" x="566" y="-67.5" font-family="Helvetica,sans-Serif" font-size="10.00">include/shm_simd_utils.h</text>
</a>
</g>
</g>
<!-- Node7&#45;&gt;Node8 -->
<g id="edge12_Node000007_Node000008" class="edge">
<title>Node7&#45;&gt;Node8</title>
<g id="a_edge12_Node000007_Node000008"><a xlink:title=" ">
<path fill="none" stroke="#63b8ff" d="M486.28,-121.02C506.34,-108.43 535.2,-90.32 552.14,-79.7"/>
<polygon fill="#63b8ff" stroke="#63b8ff" points="484.37,-118.09 477.76,-126.37 488.09,-124.02 484.37,-118.09"/>
</a>
</g>
</g>
<!-- Node8&#45;&gt;Node5 -->
<g id="edge13_Node000008_Node000005" class="edge">
<title>Node8&#45;&gt;Node5</title>
<g id="a_edge13_Node000008_Node000005"><a xlink:title=" ">
<path fill="none" stroke="#63b8ff" d="M566,-50.16C566,-39.74 566,-27.3 566,-19.17"/>
<polygon fill="#63b8ff" stroke="#63b8ff" points="562.5,-50.37 566,-60.37 569.5,-50.37 562.5,-50.37"/>
</a>
</g>
</g>
<!-- Node9&#45;&gt;Node6 -->
<g id="edge15_Node000009_Node000006" class="edge">
<title>Node9&#45;&gt;Node6</title>
<g id="a_edge15_Node000009_Node000006"><a xlink:title=" ">
<path fill="none" stroke="#63b8ff" d="M931.76,-123.07C900.01,-112.31 853.29,-96.49 819.69,-85.12"/>
<polygon fill="#63b8ff" stroke="#63b8ff" points="930.92,-126.48 941.51,-126.37 933.16,-119.85 930.92,-126.48"/>
</a>
</g>
</g>
<!-- Node10&#45;&gt;Node6 -->
<g id="edge17_Node000010_Node000006" class="edge">
<title>Node10&#45;&gt;Node6</title>
<g id="a_edge17_Node000010_Node000006"><a xlink:title=" ">
<path fill="none" stroke="#63b8ff" d="M674.27,-116.78C697.13,-106.69 725.12,-94.34 746.25,-85.01"/>
<polygon fill="#63b8ff" stroke="#63b8ff" points="672.56,-113.71 664.82,-120.95 675.38,-120.12 672.56,-113.71"/>
</a>
</g>
</g>
<!-- Node11&#45;&gt;Node2 -->
<g id="edge19_Node000011_Node000002" class="edge">
<title>Node11&#45;&gt;Node2</title>
<g id="a_edge19_Node000011_Node000002"><a xlink:title=" ">
<path fill="none" stroke="#63b8ff" d="M201.97,-122.51C170.55,-109.86 122.77,-90.63 95.36,-79.6"/>
<polygon fill="#63b8ff" stroke="#63b8ff" points="200.97,-125.88 211.56,-126.37 203.59,-119.39 200.97,-125.88"/>
</a>
</g>
</g>
<!-- Node11&#45;&gt;Node4 -->
<g id="edge20_Node000011_Node000004" class="edge">
<title>Node11&#45;&gt;Node4</title>
<g id="a_edge20_Node000011_Node000004"><a xlink:title=" ">
<path fill="none" stroke="#63b8ff" d="M233,-116.35C233,-106.47 233,-94.51 233,-85.36"/>
<polygon fill="#63b8ff" stroke="#63b8ff" points="229.5,-116.37 233,-126.37 236.5,-116.37 229.5,-116.37"/>
</a>
</g>
</g>
<!-- Node12&#45;&gt;Node6 -->
<g id="edge22_Node000012_Node000006" class="edge">
<title>Node12&#45;&gt;Node6</title>
<g id="a_edge22_Node000012_Node000006"><a xlink:title=" ">
<path fill="none" stroke="#63b8ff" d="M778,-116.35C778,-106.47 778,-94.51 778,-85.36"/>
<polygon fill="#63b8ff" stroke="#63b8ff" points="774.5,-116.37 778,-126.37 781.5,-116.37 774.5,-116.37"/>
</a>
</g>
</g>
</g>
</svg>
