<?xml version="1.0" encoding="UTF-8" standalone="no"?>
<!DOCTYPE svg PUBLIC "-//W3C//DTD SVG 1.1//EN"
 "http://www.w3.org/Graphics/SVG/1.1/DTD/svg11.dtd">
<!-- Generated by graphviz version 2.43.0 (0)
 -->
<!-- Title: include/shm_object_pool.h Pages: 1 -->
<svg width="883pt" height="203pt"
 viewBox="0.00 0.00 883.00 203.00" xmlns="http://www.w3.org/2000/svg" xmlns:xlink="http://www.w3.org/1999/xlink">
<g id="graph0" class="graph" transform="scale(1 1) rotate(0) translate(4 199)">
<title>include/shm_object_pool.h</title>
<!-- Node1 -->
<g id="Node000001" class="node">
<title>Node1</title>
<g id="a_Node000001"><a xlink:title=" ">
<polygon fill="#999999" stroke="#666666" points="619.5,-195 508.5,-195 508.5,-165 619.5,-165 619.5,-195"/>
<text text-anchor="start" x="516.5" y="-183" font-family="Helvetica,sans-Serif" font-size="10.00">include/shm_object</text>
<text text-anchor="middle" x="564" y="-172" font-family="Helvetica,sans-Serif" font-size="10.00">_pool.h</text>
</a>
</g>
</g>
<!-- Node2 -->
<g id="Node000002" class="node">
<title>Node2</title>
<g id="a_Node000002"><a xlink:href="posix__shm_8h.html" target="_top" xlink:title="Core POSIX shared memory management with automatic reference counting.">
<polygon fill="white" stroke="#666666" points="570,-129 492,-129 492,-110 570,-110 570,-129"/>
<text text-anchor="middle" x="531" y="-117" font-family="Helvetica,sans-Serif" font-size="10.00">posix_shm.h</text>
</a>
</g>
</g>
<!-- Node1&#45;&gt;Node2 -->
<g id="edge1_Node000001_Node000002" class="edge">
<title>Node1&#45;&gt;Node2</title>
<g id="a_edge1_Node000001_Node000002"><a xlink:title=" ">
<path fill="none" stroke="#63b8ff" d="M556.01,-164.84C551.47,-156.78 545.73,-146.62 540.9,-138.06"/>
<polygon fill="#63b8ff" stroke="#63b8ff" points="543.91,-136.26 535.94,-129.27 537.81,-139.7 543.91,-136.26"/>
</a>
</g>
</g>
<!-- Node10 -->
<g id="Node000010" class="node">
<title>Node10</title>
<g id="a_Node000010"><a xlink:title=" ">
<polygon fill="#e0e0e0" stroke="#999999" points="875,-74 825,-74 825,-55 875,-55 875,-74"/>
<text text-anchor="middle" x="850" y="-62" font-family="Helvetica,sans-Serif" font-size="10.00">atomic</text>
</a>
</g>
</g>
<!-- Node1&#45;&gt;Node10 -->
<g id="edge20_Node000001_Node000010" class="edge">
<title>Node1&#45;&gt;Node10</title>
<g id="a_edge20_Node000001_Node000010"><a xlink:title=" ">
<path fill="none" stroke="#63b8ff" d="M570.82,-164.86C579.32,-148.87 595.4,-123.31 617,-110 625.41,-104.82 752.03,-82.42 815,-71.51"/>
<polygon fill="#63b8ff" stroke="#63b8ff" points="815.63,-74.95 824.89,-69.8 814.44,-68.06 815.63,-74.95"/>
</a>
</g>
</g>
<!-- Node12 -->
<g id="Node000012" class="node">
<title>Node12</title>
<g id="a_Node000012"><a xlink:href="shm__table_8h.html" target="_top" xlink:title=" ">
<polygon fill="white" stroke="#666666" points="263.5,-74 186.5,-74 186.5,-55 263.5,-55 263.5,-74"/>
<text text-anchor="middle" x="225" y="-62" font-family="Helvetica,sans-Serif" font-size="10.00">shm_table.h</text>
</a>
</g>
</g>
<!-- Node1&#45;&gt;Node12 -->
<g id="edge19_Node000001_Node000012" class="edge">
<title>Node1&#45;&gt;Node12</title>
<g id="a_edge19_Node000001_Node000012"><a xlink:title=" ">
<path fill="none" stroke="#63b8ff" d="M522.09,-164.97C454.66,-142.39 323.29,-98.41 260.32,-77.33"/>
<polygon fill="#63b8ff" stroke="#63b8ff" points="261.41,-74 250.82,-74.14 259.19,-80.64 261.41,-74"/>
</a>
</g>
</g>
<!-- Node15 -->
<g id="Node000015" class="node">
<title>Node15</title>
<g id="a_Node000015"><a xlink:title=" ">
<polygon fill="#e0e0e0" stroke="#999999" points="56,-19 0,-19 0,0 56,0 56,-19"/>
<text text-anchor="middle" x="28" y="-7" font-family="Helvetica,sans-Serif" font-size="10.00">optional</text>
</a>
</g>
</g>
<!-- Node1&#45;&gt;Node15 -->
<g id="edge21_Node000001_Node000015" class="edge">
<title>Node1&#45;&gt;Node15</title>
<g id="a_edge21_Node000001_Node000015"><a xlink:title=" ">
<path fill="none" stroke="#63b8ff" d="M508.33,-166.92C432.34,-149.74 292.4,-115.69 177,-74 133.99,-58.46 85.5,-37.04 55.85,-23.48"/>
<polygon fill="#63b8ff" stroke="#63b8ff" points="57.09,-20.2 46.55,-19.2 54.17,-26.56 57.09,-20.2"/>
</a>
</g>
</g>
<!-- Node18 -->
<g id="Node000018" class="node">
<title>Node18</title>
<g id="a_Node000018"><a xlink:title=" ">
<polygon fill="#e0e0e0" stroke="#999999" points="666,-129 626,-129 626,-110 666,-110 666,-129"/>
<text text-anchor="middle" x="646" y="-117" font-family="Helvetica,sans-Serif" font-size="10.00">span</text>
</a>
</g>
</g>
<!-- Node1&#45;&gt;Node18 -->
<g id="edge22_Node000001_Node000018" class="edge">
<title>Node1&#45;&gt;Node18</title>
<g id="a_edge22_Node000001_Node000018"><a xlink:title=" ">
<path fill="none" stroke="#63b8ff" d="M583.85,-164.84C596.48,-155.83 612.8,-144.18 625.55,-135.09"/>
<polygon fill="#63b8ff" stroke="#63b8ff" points="627.6,-137.92 633.71,-129.27 623.54,-132.22 627.6,-137.92"/>
</a>
</g>
</g>
<!-- Node19 -->
<g id="Node000019" class="node">
<title>Node19</title>
<g id="a_Node000019"><a xlink:title=" ">
<polygon fill="#e0e0e0" stroke="#999999" points="713.5,-129 684.5,-129 684.5,-110 713.5,-110 713.5,-129"/>
<text text-anchor="middle" x="699" y="-117" font-family="Helvetica,sans-Serif" font-size="10.00">bit</text>
</a>
</g>
</g>
<!-- Node1&#45;&gt;Node19 -->
<g id="edge23_Node000001_Node000019" class="edge">
<title>Node1&#45;&gt;Node19</title>
<g id="a_edge23_Node000001_Node000019"><a xlink:title=" ">
<path fill="none" stroke="#63b8ff" d="M596.34,-164.99C620.55,-154.49 653.15,-140.37 675.06,-130.88"/>
<polygon fill="#63b8ff" stroke="#63b8ff" points="676.52,-134.06 684.3,-126.87 673.74,-127.63 676.52,-134.06"/>
</a>
</g>
</g>
<!-- Node3 -->
<g id="Node000003" class="node">
<title>Node3</title>
<g id="a_Node000003"><a xlink:title=" ">
<polygon fill="#e0e0e0" stroke="#999999" points="638,-19 594,-19 594,0 638,0 638,-19"/>
<text text-anchor="middle" x="616" y="-7" font-family="Helvetica,sans-Serif" font-size="10.00">string</text>
</a>
</g>
</g>
<!-- Node2&#45;&gt;Node3 -->
<g id="edge2_Node000002_Node000003" class="edge">
<title>Node2&#45;&gt;Node3</title>
<g id="a_edge2_Node000002_Node000003"><a xlink:title=" ">
<path fill="none" stroke="#63b8ff" d="M570.04,-112.12C638.81,-100.8 774.66,-77.99 778,-74 815.21,-29.49 705.42,-16.02 648.25,-12.08"/>
<polygon fill="#63b8ff" stroke="#63b8ff" points="648.43,-8.58 638.23,-11.44 647.99,-15.57 648.43,-8.58"/>
</a>
</g>
</g>
<!-- Node4 -->
<g id="Node000004" class="node">
<title>Node4</title>
<g id="a_Node000004"><a xlink:title=" ">
<polygon fill="#e0e0e0" stroke="#999999" points="385.5,-74 320.5,-74 320.5,-55 385.5,-55 385.5,-74"/>
<text text-anchor="middle" x="353" y="-62" font-family="Helvetica,sans-Serif" font-size="10.00">stdexcept</text>
</a>
</g>
</g>
<!-- Node2&#45;&gt;Node4 -->
<g id="edge3_Node000002_Node000004" class="edge">
<title>Node2&#45;&gt;Node4</title>
<g id="a_edge3_Node000002_Node000004"><a xlink:title=" ">
<path fill="none" stroke="#63b8ff" d="M502.4,-109.98C472.39,-101.05 425.02,-86.94 391.68,-77.02"/>
<polygon fill="#63b8ff" stroke="#63b8ff" points="392.41,-73.58 381.82,-74.08 390.41,-80.29 392.41,-73.58"/>
</a>
</g>
</g>
<!-- Node5 -->
<g id="Node000005" class="node">
<title>Node5</title>
<g id="a_Node000005"><a xlink:title=" ">
<polygon fill="#e0e0e0" stroke="#999999" points="480.5,-74 403.5,-74 403.5,-55 480.5,-55 480.5,-74"/>
<text text-anchor="middle" x="442" y="-62" font-family="Helvetica,sans-Serif" font-size="10.00">sys/mman.h</text>
</a>
</g>
</g>
<!-- Node2&#45;&gt;Node5 -->
<g id="edge4_Node000002_Node000005" class="edge">
<title>Node2&#45;&gt;Node5</title>
<g id="a_edge4_Node000002_Node000005"><a xlink:title=" ">
<path fill="none" stroke="#63b8ff" d="M516.7,-109.98C502.9,-101.77 481.76,-89.18 465.49,-79.49"/>
<polygon fill="#63b8ff" stroke="#63b8ff" points="466.94,-76.28 456.56,-74.17 463.36,-82.29 466.94,-76.28"/>
</a>
</g>
</g>
<!-- Node6 -->
<g id="Node000006" class="node">
<title>Node6</title>
<g id="a_Node000006"><a xlink:title=" ">
<polygon fill="#e0e0e0" stroke="#999999" points="563,-74 499,-74 499,-55 563,-55 563,-74"/>
<text text-anchor="middle" x="531" y="-62" font-family="Helvetica,sans-Serif" font-size="10.00">sys/stat.h</text>
</a>
</g>
</g>
<!-- Node2&#45;&gt;Node6 -->
<g id="edge5_Node000002_Node000006" class="edge">
<title>Node2&#45;&gt;Node6</title>
<g id="a_edge5_Node000002_Node000006"><a xlink:title=" ">
<path fill="none" stroke="#63b8ff" d="M531,-109.75C531,-102.8 531,-92.85 531,-84.13"/>
<polygon fill="#63b8ff" stroke="#63b8ff" points="534.5,-84.09 531,-74.09 527.5,-84.09 534.5,-84.09"/>
</a>
</g>
</g>
<!-- Node7 -->
<g id="Node000007" class="node">
<title>Node7</title>
<g id="a_Node000007"><a xlink:title=" ">
<polygon fill="#e0e0e0" stroke="#999999" points="628.5,-74 581.5,-74 581.5,-55 628.5,-55 628.5,-74"/>
<text text-anchor="middle" x="605" y="-62" font-family="Helvetica,sans-Serif" font-size="10.00">fcntl.h</text>
</a>
</g>
</g>
<!-- Node2&#45;&gt;Node7 -->
<g id="edge6_Node000002_Node000007" class="edge">
<title>Node2&#45;&gt;Node7</title>
<g id="a_edge6_Node000002_Node000007"><a xlink:title=" ">
<path fill="none" stroke="#63b8ff" d="M542.89,-109.98C554.15,-101.92 571.29,-89.65 584.71,-80.03"/>
<polygon fill="#63b8ff" stroke="#63b8ff" points="586.8,-82.84 592.89,-74.17 582.73,-77.15 586.8,-82.84"/>
</a>
</g>
</g>
<!-- Node8 -->
<g id="Node000008" class="node">
<title>Node8</title>
<g id="a_Node000008"><a xlink:title=" ">
<polygon fill="#e0e0e0" stroke="#999999" points="703,-74 647,-74 647,-55 703,-55 703,-74"/>
<text text-anchor="middle" x="675" y="-62" font-family="Helvetica,sans-Serif" font-size="10.00">unistd.h</text>
</a>
</g>
</g>
<!-- Node2&#45;&gt;Node8 -->
<g id="edge7_Node000002_Node000008" class="edge">
<title>Node2&#45;&gt;Node8</title>
<g id="a_edge7_Node000002_Node000008"><a xlink:title=" ">
<path fill="none" stroke="#63b8ff" d="M554.14,-109.98C577.82,-101.27 614.87,-87.63 641.71,-77.75"/>
<polygon fill="#63b8ff" stroke="#63b8ff" points="643.27,-80.91 651.44,-74.17 640.85,-74.34 643.27,-80.91"/>
</a>
</g>
</g>
<!-- Node9 -->
<g id="Node000009" class="node">
<title>Node9</title>
<g id="a_Node000009"><a xlink:title=" ">
<polygon fill="#e0e0e0" stroke="#999999" points="429,-19 379,-19 379,0 429,0 429,-19"/>
<text text-anchor="middle" x="404" y="-7" font-family="Helvetica,sans-Serif" font-size="10.00">cstring</text>
</a>
</g>
</g>
<!-- Node2&#45;&gt;Node9 -->
<g id="edge8_Node000002_Node000009" class="edge">
<title>Node2&#45;&gt;Node9</title>
<g id="a_edge8_Node000002_Node000009"><a xlink:title=" ">
<path fill="none" stroke="#63b8ff" d="M491.64,-116.34C434.62,-112.3 333.39,-101.37 311,-74 290.61,-49.07 334.97,-29.93 369.2,-19.45"/>
<polygon fill="#63b8ff" stroke="#63b8ff" points="370.34,-22.76 378.96,-16.6 368.38,-16.04 370.34,-22.76"/>
</a>
</g>
</g>
<!-- Node2&#45;&gt;Node10 -->
<g id="edge9_Node000002_Node000010" class="edge">
<title>Node2&#45;&gt;Node10</title>
<g id="a_edge9_Node000002_Node000010"><a xlink:title=" ">
<path fill="none" stroke="#63b8ff" d="M570.07,-112.23C574.77,-111.47 579.49,-110.72 584,-110 684.87,-93.91 710.61,-92.88 811,-74 812.26,-73.76 813.55,-73.51 814.85,-73.26"/>
<polygon fill="#63b8ff" stroke="#63b8ff" points="815.78,-76.64 824.87,-71.2 814.37,-69.78 815.78,-76.64"/>
</a>
</g>
</g>
<!-- Node11 -->
<g id="Node000011" class="node">
<title>Node11</title>
<g id="a_Node000011"><a xlink:title=" ">
<polygon fill="#e0e0e0" stroke="#999999" points="768.5,-74 721.5,-74 721.5,-55 768.5,-55 768.5,-74"/>
<text text-anchor="middle" x="745" y="-62" font-family="Helvetica,sans-Serif" font-size="10.00">cerrno</text>
</a>
</g>
</g>
<!-- Node2&#45;&gt;Node11 -->
<g id="edge10_Node000002_Node000011" class="edge">
<title>Node2&#45;&gt;Node11</title>
<g id="a_edge10_Node000002_Node000011"><a xlink:title=" ">
<path fill="none" stroke="#63b8ff" d="M566.4,-109.92C600.92,-101.52 655.14,-88.27 711.43,-74.12"/>
<polygon fill="#63b8ff" stroke="#63b8ff" points="712.37,-77.49 721.21,-71.66 710.66,-70.71 712.37,-77.49"/>
</a>
</g>
</g>
<!-- Node2&#45;&gt;Node12 -->
<g id="edge11_Node000002_Node000012" class="edge">
<title>Node2&#45;&gt;Node12</title>
<g id="a_edge11_Node000002_Node000012"><a xlink:title=" ">
<path fill="none" stroke="#63b8ff" d="M491.93,-111.73C436.34,-102.1 334.45,-84.46 273.91,-73.97"/>
<polygon fill="#63b8ff" stroke="#63b8ff" points="274.28,-70.48 263.83,-72.23 273.09,-77.38 274.28,-70.48"/>
</a>
</g>
</g>
<!-- Node12&#45;&gt;Node3 -->
<g id="edge13_Node000012_Node000003" class="edge">
<title>Node12&#45;&gt;Node3</title>
<g id="a_edge13_Node000012_Node000003"><a xlink:title=" ">
<path fill="none" stroke="#63b8ff" d="M263.56,-58.27C340.53,-47.84 511.95,-24.6 583.57,-14.9"/>
<polygon fill="#63b8ff" stroke="#63b8ff" points="584.35,-18.32 593.79,-13.51 583.41,-11.39 584.35,-18.32"/>
</a>
</g>
</g>
<!-- Node12&#45;&gt;Node9 -->
<g id="edge15_Node000012_Node000009" class="edge">
<title>Node12&#45;&gt;Node9</title>
<g id="a_edge15_Node000012_Node000009"><a xlink:title=" ">
<path fill="none" stroke="#63b8ff" d="M253.76,-54.98C285.11,-45.7 335.27,-30.85 368.91,-20.89"/>
<polygon fill="#63b8ff" stroke="#63b8ff" points="370.19,-24.16 378.78,-17.97 368.2,-17.45 370.19,-24.16"/>
</a>
</g>
</g>
<!-- Node13 -->
<g id="Node000013" class="node">
<title>Node13</title>
<g id="a_Node000013"><a xlink:title=" ">
<polygon fill="#e0e0e0" stroke="#999999" points="218.5,-19 165.5,-19 165.5,0 218.5,0 218.5,-19"/>
<text text-anchor="middle" x="192" y="-7" font-family="Helvetica,sans-Serif" font-size="10.00">cstddef</text>
</a>
</g>
</g>
<!-- Node12&#45;&gt;Node13 -->
<g id="edge12_Node000012_Node000013" class="edge">
<title>Node12&#45;&gt;Node13</title>
<g id="a_edge12_Node000012_Node000013"><a xlink:title=" ">
<path fill="none" stroke="#63b8ff" d="M219.55,-54.75C214.99,-47.42 208.33,-36.73 202.71,-27.7"/>
<polygon fill="#63b8ff" stroke="#63b8ff" points="205.6,-25.73 197.35,-19.09 199.66,-29.43 205.6,-25.73"/>
</a>
</g>
</g>
<!-- Node14 -->
<g id="Node000014" class="node">
<title>Node14</title>
<g id="a_Node000014"><a xlink:title=" ">
<polygon fill="#e0e0e0" stroke="#999999" points="279,-19 237,-19 237,0 279,0 279,-19"/>
<text text-anchor="middle" x="258" y="-7" font-family="Helvetica,sans-Serif" font-size="10.00">array</text>
</a>
</g>
</g>
<!-- Node12&#45;&gt;Node14 -->
<g id="edge14_Node000012_Node000014" class="edge">
<title>Node12&#45;&gt;Node14</title>
<g id="a_edge14_Node000012_Node000014"><a xlink:title=" ">
<path fill="none" stroke="#63b8ff" d="M230.45,-54.75C235.01,-47.42 241.67,-36.73 247.29,-27.7"/>
<polygon fill="#63b8ff" stroke="#63b8ff" points="250.34,-29.43 252.65,-19.09 244.4,-25.73 250.34,-29.43"/>
</a>
</g>
</g>
<!-- Node12&#45;&gt;Node15 -->
<g id="edge16_Node000012_Node000015" class="edge">
<title>Node12&#45;&gt;Node15</title>
<g id="a_edge16_Node000012_Node000015"><a xlink:title=" ">
<path fill="none" stroke="#63b8ff" d="M193.35,-54.98C158.65,-45.65 103,-30.68 65.98,-20.72"/>
<polygon fill="#63b8ff" stroke="#63b8ff" points="66.63,-17.27 56.06,-18.05 64.81,-24.03 66.63,-17.27"/>
</a>
</g>
</g>
<!-- Node16 -->
<g id="Node000016" class="node">
<title>Node16</title>
<g id="a_Node000016"><a xlink:title=" ">
<polygon fill="#e0e0e0" stroke="#999999" points="361,-19 297,-19 297,0 361,0 361,-19"/>
<text text-anchor="middle" x="329" y="-7" font-family="Helvetica,sans-Serif" font-size="10.00">algorithm</text>
</a>
</g>
</g>
<!-- Node12&#45;&gt;Node16 -->
<g id="edge17_Node000012_Node000016" class="edge">
<title>Node12&#45;&gt;Node16</title>
<g id="a_edge17_Node000012_Node000016"><a xlink:title=" ">
<path fill="none" stroke="#63b8ff" d="M241.71,-54.98C258.21,-46.57 283.7,-33.59 302.88,-23.81"/>
<polygon fill="#63b8ff" stroke="#63b8ff" points="304.67,-26.83 311.99,-19.17 301.49,-20.59 304.67,-26.83"/>
</a>
</g>
</g>
<!-- Node17 -->
<g id="Node000017" class="node">
<title>Node17</title>
<g id="a_Node000017"><a xlink:title=" ">
<polygon fill="#e0e0e0" stroke="#999999" points="147.5,-19 74.5,-19 74.5,0 147.5,0 147.5,-19"/>
<text text-anchor="middle" x="111" y="-7" font-family="Helvetica,sans-Serif" font-size="10.00">string_view</text>
</a>
</g>
</g>
<!-- Node12&#45;&gt;Node17 -->
<g id="edge18_Node000012_Node000017" class="edge">
<title>Node12&#45;&gt;Node17</title>
<g id="a_edge18_Node000012_Node000017"><a xlink:title=" ">
<path fill="none" stroke="#63b8ff" d="M206.68,-54.98C188.34,-46.46 159.89,-33.23 138.77,-23.41"/>
<polygon fill="#63b8ff" stroke="#63b8ff" points="140.19,-20.21 129.65,-19.17 137.24,-26.56 140.19,-20.21"/>
</a>
</g>
</g>
</g>
</svg>
