<?xml version="1.0" encoding="UTF-8" standalone="no"?>
<!DOCTYPE svg PUBLIC "-//W3C//DTD SVG 1.1//EN"
 "http://www.w3.org/Graphics/SVG/1.1/DTD/svg11.dtd">
<!-- Generated by graphviz version 2.43.0 (0)
 -->
<!-- Title: include/shm_ring_buffer.h Pages: 1 -->
<svg width="891pt" height="192pt"
 viewBox="0.00 0.00 891.00 192.00" xmlns="http://www.w3.org/2000/svg" xmlns:xlink="http://www.w3.org/1999/xlink">
<g id="graph0" class="graph" transform="scale(1 1) rotate(0) translate(4 188)">
<title>include/shm_ring_buffer.h</title>
<!-- Node1 -->
<g id="Node000001" class="node">
<title>Node1</title>
<g id="a_Node000001"><a xlink:title=" ">
<polygon fill="#999999" stroke="#666666" points="610,-184 468,-184 468,-165 610,-165 610,-184"/>
<text text-anchor="middle" x="539" y="-172" font-family="Helvetica,sans-Serif" font-size="10.00">include/shm_ring_buffer.h</text>
</a>
</g>
</g>
<!-- Node2 -->
<g id="Node000002" class="node">
<title>Node2</title>
<g id="a_Node000002"><a xlink:href="posix__shm_8h.html" target="_top" xlink:title="Core POSIX shared memory management with automatic reference counting.">
<polygon fill="white" stroke="#666666" points="578,-129 500,-129 500,-110 578,-110 578,-129"/>
<text text-anchor="middle" x="539" y="-117" font-family="Helvetica,sans-Serif" font-size="10.00">posix_shm.h</text>
</a>
</g>
</g>
<!-- Node1&#45;&gt;Node2 -->
<g id="edge1_Node000001_Node000002" class="edge">
<title>Node1&#45;&gt;Node2</title>
<g id="a_edge1_Node000001_Node000002"><a xlink:title=" ">
<path fill="none" stroke="#63b8ff" d="M539,-164.75C539,-157.8 539,-147.85 539,-139.13"/>
<polygon fill="#63b8ff" stroke="#63b8ff" points="542.5,-139.09 539,-129.09 535.5,-139.09 542.5,-139.09"/>
</a>
</g>
</g>
<!-- Node10 -->
<g id="Node000010" class="node">
<title>Node10</title>
<g id="a_Node000010"><a xlink:title=" ">
<polygon fill="#e0e0e0" stroke="#999999" points="883,-74 833,-74 833,-55 883,-55 883,-74"/>
<text text-anchor="middle" x="858" y="-62" font-family="Helvetica,sans-Serif" font-size="10.00">atomic</text>
</a>
</g>
</g>
<!-- Node1&#45;&gt;Node10 -->
<g id="edge20_Node000001_Node000010" class="edge">
<title>Node1&#45;&gt;Node10</title>
<g id="a_edge20_Node000001_Node000010"><a xlink:title=" ">
<path fill="none" stroke="#63b8ff" d="M547.68,-164.96C562.31,-151.09 593.37,-123.84 625,-110 642.92,-102.16 762.6,-81.44 823.11,-71.28"/>
<polygon fill="#63b8ff" stroke="#63b8ff" points="823.7,-74.73 832.98,-69.63 822.54,-67.83 823.7,-74.73"/>
</a>
</g>
</g>
<!-- Node12 -->
<g id="Node000012" class="node">
<title>Node12</title>
<g id="a_Node000012"><a xlink:href="shm__table_8h.html" target="_top" xlink:title=" ">
<polygon fill="white" stroke="#666666" points="271.5,-74 194.5,-74 194.5,-55 271.5,-55 271.5,-74"/>
<text text-anchor="middle" x="233" y="-62" font-family="Helvetica,sans-Serif" font-size="10.00">shm_table.h</text>
</a>
</g>
</g>
<!-- Node1&#45;&gt;Node12 -->
<g id="edge19_Node000001_Node000012" class="edge">
<title>Node1&#45;&gt;Node12</title>
<g id="a_edge19_Node000001_Node000012"><a xlink:title=" ">
<path fill="none" stroke="#63b8ff" d="M514.73,-164.94C460.5,-145.79 329.36,-99.51 267.02,-77.51"/>
<polygon fill="#63b8ff" stroke="#63b8ff" points="267.86,-74.09 257.27,-74.07 265.53,-80.69 267.86,-74.09"/>
</a>
</g>
</g>
<!-- Node16 -->
<g id="Node000016" class="node">
<title>Node16</title>
<g id="a_Node000016"><a xlink:title=" ">
<polygon fill="#e0e0e0" stroke="#999999" points="64,-19 0,-19 0,0 64,0 64,-19"/>
<text text-anchor="middle" x="32" y="-7" font-family="Helvetica,sans-Serif" font-size="10.00">algorithm</text>
</a>
</g>
</g>
<!-- Node1&#45;&gt;Node16 -->
<g id="edge22_Node000001_Node000016" class="edge">
<title>Node1&#45;&gt;Node16</title>
<g id="a_edge22_Node000001_Node000016"><a xlink:title=" ">
<path fill="none" stroke="#63b8ff" d="M502.02,-164.96C437,-149.55 298.37,-114.84 185,-74 140.81,-58.08 90.73,-36.63 60.26,-23.18"/>
<polygon fill="#63b8ff" stroke="#63b8ff" points="61.65,-19.97 51.09,-19.11 58.81,-26.37 61.65,-19.97"/>
</a>
</g>
</g>
<!-- Node18 -->
<g id="Node000018" class="node">
<title>Node18</title>
<g id="a_Node000018"><a xlink:title=" ">
<polygon fill="#e0e0e0" stroke="#999999" points="674,-129 634,-129 634,-110 674,-110 674,-129"/>
<text text-anchor="middle" x="654" y="-117" font-family="Helvetica,sans-Serif" font-size="10.00">span</text>
</a>
</g>
</g>
<!-- Node1&#45;&gt;Node18 -->
<g id="edge21_Node000001_Node000018" class="edge">
<title>Node1&#45;&gt;Node18</title>
<g id="a_edge21_Node000001_Node000018"><a xlink:title=" ">
<path fill="none" stroke="#63b8ff" d="M557.48,-164.98C575.98,-156.46 604.68,-143.23 625.98,-133.41"/>
<polygon fill="#63b8ff" stroke="#63b8ff" points="627.57,-136.53 635.19,-129.17 624.64,-130.18 627.57,-136.53"/>
</a>
</g>
</g>
<!-- Node3 -->
<g id="Node000003" class="node">
<title>Node3</title>
<g id="a_Node000003"><a xlink:title=" ">
<polygon fill="#e0e0e0" stroke="#999999" points="642,-19 598,-19 598,0 642,0 642,-19"/>
<text text-anchor="middle" x="620" y="-7" font-family="Helvetica,sans-Serif" font-size="10.00">string</text>
</a>
</g>
</g>
<!-- Node2&#45;&gt;Node3 -->
<g id="edge2_Node000002_Node000003" class="edge">
<title>Node2&#45;&gt;Node3</title>
<g id="a_edge2_Node000002_Node000003"><a xlink:title=" ">
<path fill="none" stroke="#63b8ff" d="M578.04,-112.12C646.81,-100.8 782.66,-77.99 786,-74 824.1,-28.42 711.02,-15.48 652.59,-11.87"/>
<polygon fill="#63b8ff" stroke="#63b8ff" points="652.54,-8.36 642.36,-11.3 652.15,-15.35 652.54,-8.36"/>
</a>
</g>
</g>
<!-- Node4 -->
<g id="Node000004" class="node">
<title>Node4</title>
<g id="a_Node000004"><a xlink:title=" ">
<polygon fill="#e0e0e0" stroke="#999999" points="393.5,-74 328.5,-74 328.5,-55 393.5,-55 393.5,-74"/>
<text text-anchor="middle" x="361" y="-62" font-family="Helvetica,sans-Serif" font-size="10.00">stdexcept</text>
</a>
</g>
</g>
<!-- Node2&#45;&gt;Node4 -->
<g id="edge3_Node000002_Node000004" class="edge">
<title>Node2&#45;&gt;Node4</title>
<g id="a_edge3_Node000002_Node000004"><a xlink:title=" ">
<path fill="none" stroke="#63b8ff" d="M510.4,-109.98C480.39,-101.05 433.02,-86.94 399.68,-77.02"/>
<polygon fill="#63b8ff" stroke="#63b8ff" points="400.41,-73.58 389.82,-74.08 398.41,-80.29 400.41,-73.58"/>
</a>
</g>
</g>
<!-- Node5 -->
<g id="Node000005" class="node">
<title>Node5</title>
<g id="a_Node000005"><a xlink:title=" ">
<polygon fill="#e0e0e0" stroke="#999999" points="488.5,-74 411.5,-74 411.5,-55 488.5,-55 488.5,-74"/>
<text text-anchor="middle" x="450" y="-62" font-family="Helvetica,sans-Serif" font-size="10.00">sys/mman.h</text>
</a>
</g>
</g>
<!-- Node2&#45;&gt;Node5 -->
<g id="edge4_Node000002_Node000005" class="edge">
<title>Node2&#45;&gt;Node5</title>
<g id="a_edge4_Node000002_Node000005"><a xlink:title=" ">
<path fill="none" stroke="#63b8ff" d="M524.7,-109.98C510.9,-101.77 489.76,-89.18 473.49,-79.49"/>
<polygon fill="#63b8ff" stroke="#63b8ff" points="474.94,-76.28 464.56,-74.17 471.36,-82.29 474.94,-76.28"/>
</a>
</g>
</g>
<!-- Node6 -->
<g id="Node000006" class="node">
<title>Node6</title>
<g id="a_Node000006"><a xlink:title=" ">
<polygon fill="#e0e0e0" stroke="#999999" points="571,-74 507,-74 507,-55 571,-55 571,-74"/>
<text text-anchor="middle" x="539" y="-62" font-family="Helvetica,sans-Serif" font-size="10.00">sys/stat.h</text>
</a>
</g>
</g>
<!-- Node2&#45;&gt;Node6 -->
<g id="edge5_Node000002_Node000006" class="edge">
<title>Node2&#45;&gt;Node6</title>
<g id="a_edge5_Node000002_Node000006"><a xlink:title=" ">
<path fill="none" stroke="#63b8ff" d="M539,-109.75C539,-102.8 539,-92.85 539,-84.13"/>
<polygon fill="#63b8ff" stroke="#63b8ff" points="542.5,-84.09 539,-74.09 535.5,-84.09 542.5,-84.09"/>
</a>
</g>
</g>
<!-- Node7 -->
<g id="Node000007" class="node">
<title>Node7</title>
<g id="a_Node000007"><a xlink:title=" ">
<polygon fill="#e0e0e0" stroke="#999999" points="636.5,-74 589.5,-74 589.5,-55 636.5,-55 636.5,-74"/>
<text text-anchor="middle" x="613" y="-62" font-family="Helvetica,sans-Serif" font-size="10.00">fcntl.h</text>
</a>
</g>
</g>
<!-- Node2&#45;&gt;Node7 -->
<g id="edge6_Node000002_Node000007" class="edge">
<title>Node2&#45;&gt;Node7</title>
<g id="a_edge6_Node000002_Node000007"><a xlink:title=" ">
<path fill="none" stroke="#63b8ff" d="M550.89,-109.98C562.15,-101.92 579.29,-89.65 592.71,-80.03"/>
<polygon fill="#63b8ff" stroke="#63b8ff" points="594.8,-82.84 600.89,-74.17 590.73,-77.15 594.8,-82.84"/>
</a>
</g>
</g>
<!-- Node8 -->
<g id="Node000008" class="node">
<title>Node8</title>
<g id="a_Node000008"><a xlink:title=" ">
<polygon fill="#e0e0e0" stroke="#999999" points="711,-74 655,-74 655,-55 711,-55 711,-74"/>
<text text-anchor="middle" x="683" y="-62" font-family="Helvetica,sans-Serif" font-size="10.00">unistd.h</text>
</a>
</g>
</g>
<!-- Node2&#45;&gt;Node8 -->
<g id="edge7_Node000002_Node000008" class="edge">
<title>Node2&#45;&gt;Node8</title>
<g id="a_edge7_Node000002_Node000008"><a xlink:title=" ">
<path fill="none" stroke="#63b8ff" d="M562.14,-109.98C585.82,-101.27 622.87,-87.63 649.71,-77.75"/>
<polygon fill="#63b8ff" stroke="#63b8ff" points="651.27,-80.91 659.44,-74.17 648.85,-74.34 651.27,-80.91"/>
</a>
</g>
</g>
<!-- Node9 -->
<g id="Node000009" class="node">
<title>Node9</title>
<g id="a_Node000009"><a xlink:title=" ">
<polygon fill="#e0e0e0" stroke="#999999" points="429,-19 379,-19 379,0 429,0 429,-19"/>
<text text-anchor="middle" x="404" y="-7" font-family="Helvetica,sans-Serif" font-size="10.00">cstring</text>
</a>
</g>
</g>
<!-- Node2&#45;&gt;Node9 -->
<g id="edge8_Node000002_Node000009" class="edge">
<title>Node2&#45;&gt;Node9</title>
<g id="a_edge8_Node000002_Node000009"><a xlink:title=" ">
<path fill="none" stroke="#63b8ff" d="M499.64,-116.34C442.62,-112.3 341.39,-101.37 319,-74 300.37,-51.23 338.07,-32.15 369.07,-21.03"/>
<polygon fill="#63b8ff" stroke="#63b8ff" points="370.48,-24.24 378.81,-17.7 368.22,-17.62 370.48,-24.24"/>
</a>
</g>
</g>
<!-- Node2&#45;&gt;Node10 -->
<g id="edge9_Node000002_Node000010" class="edge">
<title>Node2&#45;&gt;Node10</title>
<g id="a_edge9_Node000002_Node000010"><a xlink:title=" ">
<path fill="none" stroke="#63b8ff" d="M578.07,-112.23C582.77,-111.47 587.49,-110.72 592,-110 692.87,-93.91 718.61,-92.88 819,-74 820.26,-73.76 821.55,-73.51 822.85,-73.26"/>
<polygon fill="#63b8ff" stroke="#63b8ff" points="823.78,-76.64 832.87,-71.2 822.37,-69.78 823.78,-76.64"/>
</a>
</g>
</g>
<!-- Node11 -->
<g id="Node000011" class="node">
<title>Node11</title>
<g id="a_Node000011"><a xlink:title=" ">
<polygon fill="#e0e0e0" stroke="#999999" points="776.5,-74 729.5,-74 729.5,-55 776.5,-55 776.5,-74"/>
<text text-anchor="middle" x="753" y="-62" font-family="Helvetica,sans-Serif" font-size="10.00">cerrno</text>
</a>
</g>
</g>
<!-- Node2&#45;&gt;Node11 -->
<g id="edge10_Node000002_Node000011" class="edge">
<title>Node2&#45;&gt;Node11</title>
<g id="a_edge10_Node000002_Node000011"><a xlink:title=" ">
<path fill="none" stroke="#63b8ff" d="M574.4,-109.92C608.92,-101.52 663.14,-88.27 719.43,-74.12"/>
<polygon fill="#63b8ff" stroke="#63b8ff" points="720.37,-77.49 729.21,-71.66 718.66,-70.71 720.37,-77.49"/>
</a>
</g>
</g>
<!-- Node2&#45;&gt;Node12 -->
<g id="edge11_Node000002_Node000012" class="edge">
<title>Node2&#45;&gt;Node12</title>
<g id="a_edge11_Node000002_Node000012"><a xlink:title=" ">
<path fill="none" stroke="#63b8ff" d="M499.93,-111.73C444.34,-102.1 342.45,-84.46 281.91,-73.97"/>
<polygon fill="#63b8ff" stroke="#63b8ff" points="282.28,-70.48 271.83,-72.23 281.09,-77.38 282.28,-70.48"/>
</a>
</g>
</g>
<!-- Node12&#45;&gt;Node3 -->
<g id="edge13_Node000012_Node000003" class="edge">
<title>Node12&#45;&gt;Node3</title>
<g id="a_edge13_Node000012_Node000003"><a xlink:title=" ">
<path fill="none" stroke="#63b8ff" d="M271.52,-58.22C347.72,-47.79 516.44,-24.68 587.47,-14.95"/>
<polygon fill="#63b8ff" stroke="#63b8ff" points="588.18,-18.39 597.61,-13.57 587.23,-11.46 588.18,-18.39"/>
</a>
</g>
</g>
<!-- Node12&#45;&gt;Node9 -->
<g id="edge15_Node000012_Node000009" class="edge">
<title>Node12&#45;&gt;Node9</title>
<g id="a_edge15_Node000012_Node000009"><a xlink:title=" ">
<path fill="none" stroke="#63b8ff" d="M260.47,-54.98C289.95,-45.85 336.85,-31.31 368.96,-21.36"/>
<polygon fill="#63b8ff" stroke="#63b8ff" points="370.31,-24.61 378.82,-18.3 368.24,-17.92 370.31,-24.61"/>
</a>
</g>
</g>
<!-- Node13 -->
<g id="Node000013" class="node">
<title>Node13</title>
<g id="a_Node000013"><a xlink:title=" ">
<polygon fill="#e0e0e0" stroke="#999999" points="226.5,-19 173.5,-19 173.5,0 226.5,0 226.5,-19"/>
<text text-anchor="middle" x="200" y="-7" font-family="Helvetica,sans-Serif" font-size="10.00">cstddef</text>
</a>
</g>
</g>
<!-- Node12&#45;&gt;Node13 -->
<g id="edge12_Node000012_Node000013" class="edge">
<title>Node12&#45;&gt;Node13</title>
<g id="a_edge12_Node000012_Node000013"><a xlink:title=" ">
<path fill="none" stroke="#63b8ff" d="M227.55,-54.75C222.99,-47.42 216.33,-36.73 210.71,-27.7"/>
<polygon fill="#63b8ff" stroke="#63b8ff" points="213.6,-25.73 205.35,-19.09 207.66,-29.43 213.6,-25.73"/>
</a>
</g>
</g>
<!-- Node14 -->
<g id="Node000014" class="node">
<title>Node14</title>
<g id="a_Node000014"><a xlink:title=" ">
<polygon fill="#e0e0e0" stroke="#999999" points="287,-19 245,-19 245,0 287,0 287,-19"/>
<text text-anchor="middle" x="266" y="-7" font-family="Helvetica,sans-Serif" font-size="10.00">array</text>
</a>
</g>
</g>
<!-- Node12&#45;&gt;Node14 -->
<g id="edge14_Node000012_Node000014" class="edge">
<title>Node12&#45;&gt;Node14</title>
<g id="a_edge14_Node000012_Node000014"><a xlink:title=" ">
<path fill="none" stroke="#63b8ff" d="M238.45,-54.75C243.01,-47.42 249.67,-36.73 255.29,-27.7"/>
<polygon fill="#63b8ff" stroke="#63b8ff" points="258.34,-29.43 260.65,-19.09 252.4,-25.73 258.34,-29.43"/>
</a>
</g>
</g>
<!-- Node15 -->
<g id="Node000015" class="node">
<title>Node15</title>
<g id="a_Node000015"><a xlink:title=" ">
<polygon fill="#e0e0e0" stroke="#999999" points="361,-19 305,-19 305,0 361,0 361,-19"/>
<text text-anchor="middle" x="333" y="-7" font-family="Helvetica,sans-Serif" font-size="10.00">optional</text>
</a>
</g>
</g>
<!-- Node12&#45;&gt;Node15 -->
<g id="edge16_Node000012_Node000015" class="edge">
<title>Node12&#45;&gt;Node15</title>
<g id="a_edge16_Node000012_Node000015"><a xlink:title=" ">
<path fill="none" stroke="#63b8ff" d="M249.07,-54.98C264.86,-46.61 289.22,-33.7 307.63,-23.95"/>
<polygon fill="#63b8ff" stroke="#63b8ff" points="309.44,-26.95 316.64,-19.17 306.17,-20.76 309.44,-26.95"/>
</a>
</g>
</g>
<!-- Node12&#45;&gt;Node16 -->
<g id="edge17_Node000012_Node000016" class="edge">
<title>Node12&#45;&gt;Node16</title>
<g id="a_edge17_Node000012_Node000016"><a xlink:title=" ">
<path fill="none" stroke="#63b8ff" d="M200.71,-54.98C166.27,-45.91 111.62,-31.49 73.89,-21.55"/>
<polygon fill="#63b8ff" stroke="#63b8ff" points="74.78,-18.16 64.21,-18.99 72.99,-24.93 74.78,-18.16"/>
</a>
</g>
</g>
<!-- Node17 -->
<g id="Node000017" class="node">
<title>Node17</title>
<g id="a_Node000017"><a xlink:title=" ">
<polygon fill="#e0e0e0" stroke="#999999" points="155.5,-19 82.5,-19 82.5,0 155.5,0 155.5,-19"/>
<text text-anchor="middle" x="119" y="-7" font-family="Helvetica,sans-Serif" font-size="10.00">string_view</text>
</a>
</g>
</g>
<!-- Node12&#45;&gt;Node17 -->
<g id="edge18_Node000012_Node000017" class="edge">
<title>Node12&#45;&gt;Node17</title>
<g id="a_edge18_Node000012_Node000017"><a xlink:title=" ">
<path fill="none" stroke="#63b8ff" d="M214.68,-54.98C196.34,-46.46 167.89,-33.23 146.77,-23.41"/>
<polygon fill="#63b8ff" stroke="#63b8ff" points="148.19,-20.21 137.65,-19.17 145.24,-26.56 148.19,-20.21"/>
</a>
</g>
</g>
</g>
</svg>
