<?xml version="1.0" encoding="UTF-8" standalone="no"?>
<!DOCTYPE svg PUBLIC "-//W3C//DTD SVG 1.1//EN"
 "http://www.w3.org/Graphics/SVG/1.1/DTD/svg11.dtd">
<!-- Generated by graphviz version 2.43.0 (0)
 -->
<!-- Title: include/shm_array.h Pages: 1 -->
<svg width="782pt" height="148pt"
 viewBox="0.00 0.00 782.00 148.00" xmlns="http://www.w3.org/2000/svg" xmlns:xlink="http://www.w3.org/1999/xlink">
<g id="graph0" class="graph" transform="scale(1 1) rotate(0) translate(4 144)">
<title>include/shm_array.h</title>
<!-- Node1 -->
<g id="Node000001" class="node">
<title>Node1</title>
<g id="a_Node000001"><a xlink:title="Fixed&#45;size shared memory array with STL compatibility.">
<polygon fill="#999999" stroke="#666666" points="477,-140 363,-140 363,-121 477,-121 477,-140"/>
<text text-anchor="middle" x="420" y="-128" font-family="Helvetica,sans-Serif" font-size="10.00">include/shm_array.h</text>
</a>
</g>
</g>
<!-- Node2 -->
<g id="Node000002" class="node">
<title>Node2</title>
<g id="a_Node000002"><a xlink:href="basic__usage_8cpp.html" target="_top" xlink:title=" ">
<polygon fill="white" stroke="#666666" points="148,-79.5 0,-79.5 0,-60.5 148,-60.5 148,-79.5"/>
<text text-anchor="middle" x="74" y="-67.5" font-family="Helvetica,sans-Serif" font-size="10.00">examples/basic_usage.cpp</text>
</a>
</g>
</g>
<!-- Node1&#45;&gt;Node2 -->
<g id="edge1_Node000001_Node000002" class="edge">
<title>Node1&#45;&gt;Node2</title>
<g id="a_edge1_Node000001_Node000002"><a xlink:title=" ">
<path fill="none" stroke="#63b8ff" d="M359.74,-119.31C293.06,-108.04 186.8,-90.07 124.37,-79.52"/>
<polygon fill="#63b8ff" stroke="#63b8ff" points="359.25,-122.78 369.69,-120.99 360.41,-115.88 359.25,-122.78"/>
</a>
</g>
</g>
<!-- Node3 -->
<g id="Node000003" class="node">
<title>Node3</title>
<g id="a_Node000003"><a xlink:href="benchmark__reads_8cpp.html" target="_top" xlink:title=" ">
<polygon fill="white" stroke="#666666" points="288,-85 166,-85 166,-55 288,-55 288,-85"/>
<text text-anchor="start" x="174" y="-73" font-family="Helvetica,sans-Serif" font-size="10.00">examples/benchmark</text>
<text text-anchor="middle" x="227" y="-62" font-family="Helvetica,sans-Serif" font-size="10.00">_reads.cpp</text>
</a>
</g>
</g>
<!-- Node1&#45;&gt;Node3 -->
<g id="edge2_Node000001_Node000003" class="edge">
<title>Node1&#45;&gt;Node3</title>
<g id="a_edge2_Node000001_Node000003"><a xlink:title=" ">
<path fill="none" stroke="#63b8ff" d="M382.31,-118.08C351.15,-108.63 306.75,-95.17 273.4,-85.06"/>
<polygon fill="#63b8ff" stroke="#63b8ff" points="381.35,-121.44 391.94,-120.99 383.38,-114.74 381.35,-121.44"/>
</a>
</g>
</g>
<!-- Node4 -->
<g id="Node000004" class="node">
<title>Node4</title>
<g id="a_Node000004"><a xlink:href="custom__table__sizes_8cpp.html" target="_top" xlink:title=" ">
<polygon fill="white" stroke="#666666" points="440,-85 306,-85 306,-55 440,-55 440,-85"/>
<text text-anchor="start" x="314" y="-73" font-family="Helvetica,sans-Serif" font-size="10.00">examples/custom_table</text>
<text text-anchor="middle" x="373" y="-62" font-family="Helvetica,sans-Serif" font-size="10.00">_sizes.cpp</text>
</a>
</g>
</g>
<!-- Node1&#45;&gt;Node4 -->
<g id="edge3_Node000001_Node000004" class="edge">
<title>Node1&#45;&gt;Node4</title>
<g id="a_edge3_Node000001_Node000004"><a xlink:title=" ">
<path fill="none" stroke="#63b8ff" d="M406.65,-112.88C399.61,-104.11 391.06,-93.48 384.34,-85.11"/>
<polygon fill="#63b8ff" stroke="#63b8ff" points="404.07,-115.26 413.06,-120.87 409.53,-110.88 404.07,-115.26"/>
</a>
</g>
</g>
<!-- Node5 -->
<g id="Node000005" class="node">
<title>Node5</title>
<g id="a_Node000005"><a xlink:href="simd__simulation_8cpp.html" target="_top" xlink:title="Example of SIMD&#45;optimized particle simulation using shared memory.">
<polygon fill="white" stroke="#666666" points="670.5,-19 501.5,-19 501.5,0 670.5,0 670.5,-19"/>
<text text-anchor="middle" x="586" y="-7" font-family="Helvetica,sans-Serif" font-size="10.00">examples/simd_simulation.cpp</text>
</a>
</g>
</g>
<!-- Node1&#45;&gt;Node5 -->
<g id="edge4_Node000001_Node000005" class="edge">
<title>Node1&#45;&gt;Node5</title>
<g id="a_edge4_Node000001_Node000005"><a xlink:title=" ">
<path fill="none" stroke="#63b8ff" d="M432.28,-112.45C444.8,-96.03 465.53,-71.33 488,-55 510.22,-38.85 539.23,-26.57 559.91,-19.05"/>
<polygon fill="#63b8ff" stroke="#63b8ff" points="429.36,-110.51 426.21,-120.62 434.98,-114.68 429.36,-110.51"/>
</a>
</g>
</g>
<!-- Node6 -->
<g id="Node000006" class="node">
<title>Node6</title>
<g id="a_Node000006"><a xlink:href="simulation__patterns_8cpp.html" target="_top" xlink:title=" ">
<polygon fill="white" stroke="#666666" points="615.5,-85 496.5,-85 496.5,-55 615.5,-55 615.5,-85"/>
<text text-anchor="start" x="504.5" y="-73" font-family="Helvetica,sans-Serif" font-size="10.00">examples/simulation</text>
<text text-anchor="middle" x="556" y="-62" font-family="Helvetica,sans-Serif" font-size="10.00">_patterns.cpp</text>
</a>
</g>
</g>
<!-- Node1&#45;&gt;Node6 -->
<g id="edge5_Node000001_Node000006" class="edge">
<title>Node1&#45;&gt;Node6</title>
<g id="a_edge5_Node000001_Node000006"><a xlink:title=" ">
<path fill="none" stroke="#63b8ff" d="M449.17,-116.95C470.94,-107.59 500.72,-94.78 523.3,-85.06"/>
<polygon fill="#63b8ff" stroke="#63b8ff" points="447.58,-113.83 439.78,-120.99 450.34,-120.26 447.58,-113.83"/>
</a>
</g>
</g>
<!-- Node7 -->
<g id="Node000007" class="node">
<title>Node7</title>
<g id="a_Node000007"><a xlink:href="shm__simd__utils_8h.html" target="_top" xlink:title="SIMD&#45;optimized utilities for simulation workloads.">
<polygon fill="white" stroke="#666666" points="774,-79.5 634,-79.5 634,-60.5 774,-60.5 774,-79.5"/>
<text text-anchor="middle" x="704" y="-67.5" font-family="Helvetica,sans-Serif" font-size="10.00">include/shm_simd_utils.h</text>
</a>
</g>
</g>
<!-- Node1&#45;&gt;Node7 -->
<g id="edge6_Node000001_Node000007" class="edge">
<title>Node1&#45;&gt;Node7</title>
<g id="a_edge6_Node000001_Node000007"><a xlink:title=" ">
<path fill="none" stroke="#63b8ff" d="M471.15,-118.96C525.98,-107.67 611.94,-89.96 662.65,-79.52"/>
<polygon fill="#63b8ff" stroke="#63b8ff" points="470.38,-115.55 461.3,-120.99 471.8,-122.4 470.38,-115.55"/>
</a>
</g>
</g>
<!-- Node7&#45;&gt;Node5 -->
<g id="edge7_Node000007_Node000005" class="edge">
<title>Node7&#45;&gt;Node5</title>
<g id="a_edge7_Node000007_Node000005"><a xlink:title=" ">
<path fill="none" stroke="#63b8ff" d="M677.74,-55.98C655,-44.71 622.76,-28.73 603.18,-19.02"/>
<polygon fill="#63b8ff" stroke="#63b8ff" points="676.33,-59.19 686.84,-60.49 679.44,-52.92 676.33,-59.19"/>
</a>
</g>
</g>
</g>
</svg>
