<?xml version="1.0" encoding="UTF-8" standalone="no"?>
<!DOCTYPE svg PUBLIC "-//W3C//DTD SVG 1.1//EN"
 "http://www.w3.org/Graphics/SVG/1.1/DTD/svg11.dtd">
<!-- Generated by graphviz version 2.43.0 (0)
 -->
<!-- Title: include/shm_queue.h Pages: 1 -->
<svg width="1002pt" height="192pt"
 viewBox="0.00 0.00 1001.50 192.00" xmlns="http://www.w3.org/2000/svg" xmlns:xlink="http://www.w3.org/1999/xlink">
<g id="graph0" class="graph" transform="scale(1 1) rotate(0) translate(4 188)">
<title>include/shm_queue.h</title>
<!-- Node1 -->
<g id="Node000001" class="node">
<title>Node1</title>
<g id="a_Node000001"><a xlink:title=" ">
<polygon fill="#999999" stroke="#666666" points="795.5,-184 675.5,-184 675.5,-165 795.5,-165 795.5,-184"/>
<text text-anchor="middle" x="735.5" y="-172" font-family="Helvetica,sans-Serif" font-size="10.00">include/shm_queue.h</text>
</a>
</g>
</g>
<!-- Node2 -->
<g id="Node000002" class="node">
<title>Node2</title>
<g id="a_Node000002"><a xlink:href="posix__shm_8h.html" target="_top" xlink:title="Core POSIX shared memory management with automatic reference counting.">
<polygon fill="white" stroke="#666666" points="427.5,-129 349.5,-129 349.5,-110 427.5,-110 427.5,-129"/>
<text text-anchor="middle" x="388.5" y="-117" font-family="Helvetica,sans-Serif" font-size="10.00">posix_shm.h</text>
</a>
</g>
</g>
<!-- Node1&#45;&gt;Node2 -->
<g id="edge1_Node000001_Node000002" class="edge">
<title>Node1&#45;&gt;Node2</title>
<g id="a_edge1_Node000001_Node000002"><a xlink:title=" ">
<path fill="none" stroke="#63b8ff" d="M679.75,-164.98C612.96,-154.78 502.11,-137.85 438.15,-128.08"/>
<polygon fill="#63b8ff" stroke="#63b8ff" points="438.34,-124.57 427.93,-126.52 437.28,-131.49 438.34,-124.57"/>
</a>
</g>
</g>
<!-- Node10 -->
<g id="Node000010" class="node">
<title>Node10</title>
<g id="a_Node000010"><a xlink:title=" ">
<polygon fill="#e0e0e0" stroke="#999999" points="592.5,-74 542.5,-74 542.5,-55 592.5,-55 592.5,-74"/>
<text text-anchor="middle" x="567.5" y="-62" font-family="Helvetica,sans-Serif" font-size="10.00">atomic</text>
</a>
</g>
</g>
<!-- Node1&#45;&gt;Node10 -->
<g id="edge22_Node000001_Node000010" class="edge">
<title>Node1&#45;&gt;Node10</title>
<g id="a_edge22_Node000001_Node000010"><a xlink:title=" ">
<path fill="none" stroke="#63b8ff" d="M722.04,-164.84C693.16,-146.28 625.04,-102.49 589.67,-79.75"/>
<polygon fill="#63b8ff" stroke="#63b8ff" points="591.33,-76.66 581.03,-74.2 587.55,-82.55 591.33,-76.66"/>
</a>
</g>
</g>
<!-- Node12 -->
<g id="Node000012" class="node">
<title>Node12</title>
<g id="a_Node000012"><a xlink:href="shm__table_8h.html" target="_top" xlink:title=" ">
<polygon fill="white" stroke="#666666" points="688,-74 611,-74 611,-55 688,-55 688,-74"/>
<text text-anchor="middle" x="649.5" y="-62" font-family="Helvetica,sans-Serif" font-size="10.00">shm_table.h</text>
</a>
</g>
</g>
<!-- Node1&#45;&gt;Node12 -->
<g id="edge21_Node000001_Node000012" class="edge">
<title>Node1&#45;&gt;Node12</title>
<g id="a_edge21_Node000001_Node000012"><a xlink:title=" ">
<path fill="none" stroke="#63b8ff" d="M728.46,-164.66C714.09,-146.61 681.17,-105.28 662.7,-82.08"/>
<polygon fill="#63b8ff" stroke="#63b8ff" points="665.36,-79.8 656.39,-74.16 659.89,-84.16 665.36,-79.8"/>
</a>
</g>
</g>
<!-- Node15 -->
<g id="Node000015" class="node">
<title>Node15</title>
<g id="a_Node000015"><a xlink:title=" ">
<polygon fill="#e0e0e0" stroke="#999999" points="755.5,-19 699.5,-19 699.5,0 755.5,0 755.5,-19"/>
<text text-anchor="middle" x="727.5" y="-7" font-family="Helvetica,sans-Serif" font-size="10.00">optional</text>
</a>
</g>
</g>
<!-- Node1&#45;&gt;Node15 -->
<g id="edge25_Node000001_Node000015" class="edge">
<title>Node1&#45;&gt;Node15</title>
<g id="a_edge25_Node000001_Node000015"><a xlink:title=" ">
<path fill="none" stroke="#63b8ff" d="M735.07,-164.74C733.82,-139.31 730.18,-65.08 728.44,-29.69"/>
<polygon fill="#63b8ff" stroke="#63b8ff" points="731.92,-29.12 727.93,-19.31 724.93,-29.47 731.92,-29.12"/>
</a>
</g>
</g>
<!-- Node17 -->
<g id="Node000017" class="node">
<title>Node17</title>
<g id="a_Node000017"><a xlink:title=" ">
<polygon fill="#e0e0e0" stroke="#999999" points="847,-19 774,-19 774,0 847,0 847,-19"/>
<text text-anchor="middle" x="810.5" y="-7" font-family="Helvetica,sans-Serif" font-size="10.00">string_view</text>
</a>
</g>
</g>
<!-- Node1&#45;&gt;Node17 -->
<g id="edge26_Node000001_Node000017" class="edge">
<title>Node1&#45;&gt;Node17</title>
<g id="a_edge26_Node000001_Node000017"><a xlink:title=" ">
<path fill="none" stroke="#63b8ff" d="M737.63,-164.8C742.75,-144.69 756.88,-93.72 777.5,-55 782.75,-45.15 790.02,-35.09 796.4,-27.03"/>
<polygon fill="#63b8ff" stroke="#63b8ff" points="799.2,-29.13 802.84,-19.17 793.79,-24.69 799.2,-29.13"/>
</a>
</g>
</g>
<!-- Node18 -->
<g id="Node000018" class="node">
<title>Node18</title>
<g id="a_Node000018"><a xlink:href="shm__span_8h.html" target="_top" xlink:title=" ">
<polygon fill="white" stroke="#666666" points="858,-129 783,-129 783,-110 858,-110 858,-129"/>
<text text-anchor="middle" x="820.5" y="-117" font-family="Helvetica,sans-Serif" font-size="10.00">shm_span.h</text>
</a>
</g>
</g>
<!-- Node1&#45;&gt;Node18 -->
<g id="edge19_Node000001_Node000018" class="edge">
<title>Node1&#45;&gt;Node18</title>
<g id="a_edge19_Node000001_Node000018"><a xlink:title=" ">
<path fill="none" stroke="#63b8ff" d="M749.16,-164.98C762.34,-156.77 782.53,-144.18 798.07,-134.49"/>
<polygon fill="#63b8ff" stroke="#63b8ff" points="799.96,-137.43 806.59,-129.17 796.26,-131.49 799.96,-137.43"/>
</a>
</g>
</g>
<!-- Node20 -->
<g id="Node000020" class="node">
<title>Node20</title>
<g id="a_Node000020"><a xlink:title=" ">
<polygon fill="#e0e0e0" stroke="#999999" points="935.5,-129 875.5,-129 875.5,-110 935.5,-110 935.5,-129"/>
<text text-anchor="middle" x="905.5" y="-117" font-family="Helvetica,sans-Serif" font-size="10.00">concepts</text>
</a>
</g>
</g>
<!-- Node1&#45;&gt;Node20 -->
<g id="edge23_Node000001_Node000020" class="edge">
<title>Node1&#45;&gt;Node20</title>
<g id="a_edge23_Node000001_Node000020"><a xlink:title=" ">
<path fill="none" stroke="#63b8ff" d="M762.81,-164.98C791.35,-156.09 836.33,-142.07 868.14,-132.15"/>
<polygon fill="#63b8ff" stroke="#63b8ff" points="869.47,-135.4 877.97,-129.08 867.38,-128.72 869.47,-135.4"/>
</a>
</g>
</g>
<!-- Node21 -->
<g id="Node000021" class="node">
<title>Node21</title>
<g id="a_Node000021"><a xlink:title=" ">
<polygon fill="#e0e0e0" stroke="#999999" points="993.5,-129 953.5,-129 953.5,-110 993.5,-110 993.5,-129"/>
<text text-anchor="middle" x="973.5" y="-117" font-family="Helvetica,sans-Serif" font-size="10.00">span</text>
</a>
</g>
</g>
<!-- Node1&#45;&gt;Node21 -->
<g id="edge24_Node000001_Node000021" class="edge">
<title>Node1&#45;&gt;Node21</title>
<g id="a_edge24_Node000001_Node000021"><a xlink:title=" ">
<path fill="none" stroke="#63b8ff" d="M780.57,-164.92C820.9,-157.02 881.81,-144.53 943.39,-129.13"/>
<polygon fill="#63b8ff" stroke="#63b8ff" points="944.43,-132.48 953.27,-126.64 942.72,-125.69 944.43,-132.48"/>
</a>
</g>
</g>
<!-- Node3 -->
<g id="Node000003" class="node">
<title>Node3</title>
<g id="a_Node000003"><a xlink:title=" ">
<polygon fill="#e0e0e0" stroke="#999999" points="248.5,-19 204.5,-19 204.5,0 248.5,0 248.5,-19"/>
<text text-anchor="middle" x="226.5" y="-7" font-family="Helvetica,sans-Serif" font-size="10.00">string</text>
</a>
</g>
</g>
<!-- Node2&#45;&gt;Node3 -->
<g id="edge2_Node000002_Node000003" class="edge">
<title>Node2&#45;&gt;Node3</title>
<g id="a_edge2_Node000002_Node000003"><a xlink:title=" ">
<path fill="none" stroke="#63b8ff" d="M349.47,-118.6C277.2,-117.87 126.94,-111.72 94.5,-74 63.91,-38.43 145.94,-21.15 194.17,-14.27"/>
<polygon fill="#63b8ff" stroke="#63b8ff" points="194.74,-17.73 204.19,-12.92 193.81,-10.79 194.74,-17.73"/>
</a>
</g>
</g>
<!-- Node4 -->
<g id="Node000004" class="node">
<title>Node4</title>
<g id="a_Node000004"><a xlink:title=" ">
<polygon fill="#e0e0e0" stroke="#999999" points="169,-74 104,-74 104,-55 169,-55 169,-74"/>
<text text-anchor="middle" x="136.5" y="-62" font-family="Helvetica,sans-Serif" font-size="10.00">stdexcept</text>
</a>
</g>
</g>
<!-- Node2&#45;&gt;Node4 -->
<g id="edge3_Node000002_Node000004" class="edge">
<title>Node2&#45;&gt;Node4</title>
<g id="a_edge3_Node000002_Node000004"><a xlink:title=" ">
<path fill="none" stroke="#63b8ff" d="M349.4,-110.28C303.29,-100.58 226.91,-84.52 179.26,-74.49"/>
<polygon fill="#63b8ff" stroke="#63b8ff" points="179.77,-71.02 169.26,-72.39 178.33,-77.87 179.77,-71.02"/>
</a>
</g>
</g>
<!-- Node5 -->
<g id="Node000005" class="node">
<title>Node5</title>
<g id="a_Node000005"><a xlink:title=" ">
<polygon fill="#e0e0e0" stroke="#999999" points="264,-74 187,-74 187,-55 264,-55 264,-74"/>
<text text-anchor="middle" x="225.5" y="-62" font-family="Helvetica,sans-Serif" font-size="10.00">sys/mman.h</text>
</a>
</g>
</g>
<!-- Node2&#45;&gt;Node5 -->
<g id="edge4_Node000002_Node000005" class="edge">
<title>Node2&#45;&gt;Node5</title>
<g id="a_edge4_Node000002_Node000005"><a xlink:title=" ">
<path fill="none" stroke="#63b8ff" d="M362.31,-109.98C335.06,-101.13 292.2,-87.19 261.72,-77.28"/>
<polygon fill="#63b8ff" stroke="#63b8ff" points="262.49,-73.85 251.89,-74.08 260.32,-80.5 262.49,-73.85"/>
</a>
</g>
</g>
<!-- Node6 -->
<g id="Node000006" class="node">
<title>Node6</title>
<g id="a_Node000006"><a xlink:title=" ">
<polygon fill="#e0e0e0" stroke="#999999" points="346.5,-74 282.5,-74 282.5,-55 346.5,-55 346.5,-74"/>
<text text-anchor="middle" x="314.5" y="-62" font-family="Helvetica,sans-Serif" font-size="10.00">sys/stat.h</text>
</a>
</g>
</g>
<!-- Node2&#45;&gt;Node6 -->
<g id="edge5_Node000002_Node000006" class="edge">
<title>Node2&#45;&gt;Node6</title>
<g id="a_edge5_Node000002_Node000006"><a xlink:title=" ">
<path fill="none" stroke="#63b8ff" d="M376.61,-109.98C365.35,-101.92 348.21,-89.65 334.79,-80.03"/>
<polygon fill="#63b8ff" stroke="#63b8ff" points="336.77,-77.15 326.61,-74.17 332.7,-82.84 336.77,-77.15"/>
</a>
</g>
</g>
<!-- Node7 -->
<g id="Node000007" class="node">
<title>Node7</title>
<g id="a_Node000007"><a xlink:title=" ">
<polygon fill="#e0e0e0" stroke="#999999" points="412,-74 365,-74 365,-55 412,-55 412,-74"/>
<text text-anchor="middle" x="388.5" y="-62" font-family="Helvetica,sans-Serif" font-size="10.00">fcntl.h</text>
</a>
</g>
</g>
<!-- Node2&#45;&gt;Node7 -->
<g id="edge6_Node000002_Node000007" class="edge">
<title>Node2&#45;&gt;Node7</title>
<g id="a_edge6_Node000002_Node000007"><a xlink:title=" ">
<path fill="none" stroke="#63b8ff" d="M388.5,-109.75C388.5,-102.8 388.5,-92.85 388.5,-84.13"/>
<polygon fill="#63b8ff" stroke="#63b8ff" points="392,-84.09 388.5,-74.09 385,-84.09 392,-84.09"/>
</a>
</g>
</g>
<!-- Node8 -->
<g id="Node000008" class="node">
<title>Node8</title>
<g id="a_Node000008"><a xlink:title=" ">
<polygon fill="#e0e0e0" stroke="#999999" points="486.5,-74 430.5,-74 430.5,-55 486.5,-55 486.5,-74"/>
<text text-anchor="middle" x="458.5" y="-62" font-family="Helvetica,sans-Serif" font-size="10.00">unistd.h</text>
</a>
</g>
</g>
<!-- Node2&#45;&gt;Node8 -->
<g id="edge7_Node000002_Node000008" class="edge">
<title>Node2&#45;&gt;Node8</title>
<g id="a_edge7_Node000002_Node000008"><a xlink:title=" ">
<path fill="none" stroke="#63b8ff" d="M399.75,-109.98C410.3,-102 426.3,-89.88 438.94,-80.31"/>
<polygon fill="#63b8ff" stroke="#63b8ff" points="441.19,-83 447.05,-74.17 436.96,-77.42 441.19,-83"/>
</a>
</g>
</g>
<!-- Node9 -->
<g id="Node000009" class="node">
<title>Node9</title>
<g id="a_Node000009"><a xlink:title=" ">
<polygon fill="#e0e0e0" stroke="#999999" points="467.5,-19 417.5,-19 417.5,0 467.5,0 467.5,-19"/>
<text text-anchor="middle" x="442.5" y="-7" font-family="Helvetica,sans-Serif" font-size="10.00">cstring</text>
</a>
</g>
</g>
<!-- Node2&#45;&gt;Node9 -->
<g id="edge8_Node000002_Node000009" class="edge">
<title>Node2&#45;&gt;Node9</title>
<g id="a_edge8_Node000002_Node000009"><a xlink:title=" ">
<path fill="none" stroke="#63b8ff" d="M427.51,-113.22C451.5,-107.73 480.43,-96.59 495.5,-74 507.61,-55.85 486.67,-36.88 467.66,-24.45"/>
<polygon fill="#63b8ff" stroke="#63b8ff" points="469.25,-21.32 458.9,-19.07 465.59,-27.29 469.25,-21.32"/>
</a>
</g>
</g>
<!-- Node2&#45;&gt;Node10 -->
<g id="edge9_Node000002_Node000010" class="edge">
<title>Node2&#45;&gt;Node10</title>
<g id="a_edge9_Node000002_Node000010"><a xlink:title=" ">
<path fill="none" stroke="#63b8ff" d="M417.26,-109.98C448.61,-100.7 498.77,-85.85 532.41,-75.89"/>
<polygon fill="#63b8ff" stroke="#63b8ff" points="533.69,-79.16 542.28,-72.97 531.7,-72.45 533.69,-79.16"/>
</a>
</g>
</g>
<!-- Node11 -->
<g id="Node000011" class="node">
<title>Node11</title>
<g id="a_Node000011"><a xlink:title=" ">
<polygon fill="#e0e0e0" stroke="#999999" points="47,-74 0,-74 0,-55 47,-55 47,-74"/>
<text text-anchor="middle" x="23.5" y="-62" font-family="Helvetica,sans-Serif" font-size="10.00">cerrno</text>
</a>
</g>
</g>
<!-- Node2&#45;&gt;Node11 -->
<g id="edge10_Node000002_Node000011" class="edge">
<title>Node2&#45;&gt;Node11</title>
<g id="a_edge10_Node000002_Node000011"><a xlink:title=" ">
<path fill="none" stroke="#63b8ff" d="M349.32,-114.26C287.79,-107.35 164.84,-92.55 61.5,-74 60.04,-73.74 58.56,-73.46 57.06,-73.17"/>
<polygon fill="#63b8ff" stroke="#63b8ff" points="57.66,-69.72 47.15,-71.12 56.24,-76.57 57.66,-69.72"/>
</a>
</g>
</g>
<!-- Node2&#45;&gt;Node12 -->
<g id="edge11_Node000002_Node000012" class="edge">
<title>Node2&#45;&gt;Node12</title>
<g id="a_edge11_Node000002_Node000012"><a xlink:title=" ">
<path fill="none" stroke="#63b8ff" d="M427.57,-110.57C473.74,-101.19 550.58,-85.59 600.64,-75.42"/>
<polygon fill="#63b8ff" stroke="#63b8ff" points="601.48,-78.82 610.59,-73.4 600.09,-71.96 601.48,-78.82"/>
</a>
</g>
</g>
<!-- Node12&#45;&gt;Node3 -->
<g id="edge13_Node000012_Node000003" class="edge">
<title>Node12&#45;&gt;Node3</title>
<g id="a_edge13_Node000012_Node000003"><a xlink:title=" ">
<path fill="none" stroke="#63b8ff" d="M610.76,-56.44C607.63,-55.93 604.51,-55.45 601.5,-55 474.94,-36.3 323.44,-20.25 258.55,-13.68"/>
<polygon fill="#63b8ff" stroke="#63b8ff" points="258.84,-10.19 248.54,-12.67 258.14,-17.16 258.84,-10.19"/>
</a>
</g>
</g>
<!-- Node12&#45;&gt;Node9 -->
<g id="edge15_Node000012_Node000009" class="edge">
<title>Node12&#45;&gt;Node9</title>
<g id="a_edge15_Node000012_Node000009"><a xlink:title=" ">
<path fill="none" stroke="#63b8ff" d="M616.24,-54.98C578.16,-45.23 516.05,-29.33 477.33,-19.42"/>
<polygon fill="#63b8ff" stroke="#63b8ff" points="478.09,-16 467.54,-16.91 476.36,-22.78 478.09,-16"/>
</a>
</g>
</g>
<!-- Node13 -->
<g id="Node000013" class="node">
<title>Node13</title>
<g id="a_Node000013"><a xlink:title=" ">
<polygon fill="#e0e0e0" stroke="#999999" points="539,-19 486,-19 486,0 539,0 539,-19"/>
<text text-anchor="middle" x="512.5" y="-7" font-family="Helvetica,sans-Serif" font-size="10.00">cstddef</text>
</a>
</g>
</g>
<!-- Node12&#45;&gt;Node13 -->
<g id="edge12_Node000012_Node000013" class="edge">
<title>Node12&#45;&gt;Node13</title>
<g id="a_edge12_Node000012_Node000013"><a xlink:title=" ">
<path fill="none" stroke="#63b8ff" d="M627.49,-54.98C605.05,-46.3 570.02,-32.75 544.51,-22.88"/>
<polygon fill="#63b8ff" stroke="#63b8ff" points="545.5,-19.51 534.91,-19.17 542.98,-26.04 545.5,-19.51"/>
</a>
</g>
</g>
<!-- Node14 -->
<g id="Node000014" class="node">
<title>Node14</title>
<g id="a_Node000014"><a xlink:title=" ">
<polygon fill="#e0e0e0" stroke="#999999" points="599.5,-19 557.5,-19 557.5,0 599.5,0 599.5,-19"/>
<text text-anchor="middle" x="578.5" y="-7" font-family="Helvetica,sans-Serif" font-size="10.00">array</text>
</a>
</g>
</g>
<!-- Node12&#45;&gt;Node14 -->
<g id="edge14_Node000012_Node000014" class="edge">
<title>Node12&#45;&gt;Node14</title>
<g id="a_edge14_Node000012_Node000014"><a xlink:title=" ">
<path fill="none" stroke="#63b8ff" d="M638.09,-54.98C627.39,-47 611.16,-34.88 598.34,-25.31"/>
<polygon fill="#63b8ff" stroke="#63b8ff" points="600.22,-22.35 590.11,-19.17 596.03,-27.96 600.22,-22.35"/>
</a>
</g>
</g>
<!-- Node12&#45;&gt;Node15 -->
<g id="edge16_Node000012_Node000015" class="edge">
<title>Node12&#45;&gt;Node15</title>
<g id="a_edge16_Node000012_Node000015"><a xlink:title=" ">
<path fill="none" stroke="#63b8ff" d="M662.03,-54.98C673.9,-46.92 691.96,-34.65 706.11,-25.03"/>
<polygon fill="#63b8ff" stroke="#63b8ff" points="708.44,-27.69 714.74,-19.17 704.5,-21.9 708.44,-27.69"/>
</a>
</g>
</g>
<!-- Node16 -->
<g id="Node000016" class="node">
<title>Node16</title>
<g id="a_Node000016"><a xlink:title=" ">
<polygon fill="#e0e0e0" stroke="#999999" points="681.5,-19 617.5,-19 617.5,0 681.5,0 681.5,-19"/>
<text text-anchor="middle" x="649.5" y="-7" font-family="Helvetica,sans-Serif" font-size="10.00">algorithm</text>
</a>
</g>
</g>
<!-- Node12&#45;&gt;Node16 -->
<g id="edge17_Node000012_Node000016" class="edge">
<title>Node12&#45;&gt;Node16</title>
<g id="a_edge17_Node000012_Node000016"><a xlink:title=" ">
<path fill="none" stroke="#63b8ff" d="M649.5,-54.75C649.5,-47.8 649.5,-37.85 649.5,-29.13"/>
<polygon fill="#63b8ff" stroke="#63b8ff" points="653,-29.09 649.5,-19.09 646,-29.09 653,-29.09"/>
</a>
</g>
</g>
<!-- Node12&#45;&gt;Node17 -->
<g id="edge18_Node000012_Node000017" class="edge">
<title>Node12&#45;&gt;Node17</title>
<g id="a_edge18_Node000012_Node000017"><a xlink:title=" ">
<path fill="none" stroke="#63b8ff" d="M675.37,-54.98C702.28,-46.13 744.62,-32.19 774.73,-22.28"/>
<polygon fill="#63b8ff" stroke="#63b8ff" points="776.03,-25.53 784.43,-19.08 773.84,-18.88 776.03,-25.53"/>
</a>
</g>
</g>
<!-- Node19 -->
<g id="Node000019" class="node">
<title>Node19</title>
<g id="a_Node000019"><a xlink:title=" ">
<polygon fill="#e0e0e0" stroke="#999999" points="855,-74 786,-74 786,-55 855,-55 855,-74"/>
<text text-anchor="middle" x="820.5" y="-62" font-family="Helvetica,sans-Serif" font-size="10.00">type_traits</text>
</a>
</g>
</g>
<!-- Node18&#45;&gt;Node19 -->
<g id="edge20_Node000018_Node000019" class="edge">
<title>Node18&#45;&gt;Node19</title>
<g id="a_edge20_Node000018_Node000019"><a xlink:title=" ">
<path fill="none" stroke="#63b8ff" d="M820.5,-109.75C820.5,-102.8 820.5,-92.85 820.5,-84.13"/>
<polygon fill="#63b8ff" stroke="#63b8ff" points="824,-84.09 820.5,-74.09 817,-84.09 824,-84.09"/>
</a>
</g>
</g>
</g>
</svg>
