<?xml version="1.0" encoding="UTF-8" standalone="no"?>
<!DOCTYPE svg PUBLIC "-//W3C//DTD SVG 1.1//EN"
 "http://www.w3.org/Graphics/SVG/1.1/DTD/svg11.dtd">
<!-- Generated by graphviz version 2.43.0 (0)
 -->
<!-- Title: include/shm_array.h Pages: 1 -->
<svg width="1073pt" height="192pt"
 viewBox="0.00 0.00 1073.00 192.00" xmlns="http://www.w3.org/2000/svg" xmlns:xlink="http://www.w3.org/1999/xlink">
<g id="graph0" class="graph" transform="scale(1 1) rotate(0) translate(4 188)">
<title>include/shm_array.h</title>
<!-- Node1 -->
<g id="Node000001" class="node">
<title>Node1</title>
<g id="a_Node000001"><a xlink:title="Fixed&#45;size shared memory array with STL compatibility.">
<polygon fill="#999999" stroke="#666666" points="811.5,-184 697.5,-184 697.5,-165 811.5,-165 811.5,-184"/>
<text text-anchor="middle" x="754.5" y="-172" font-family="Helvetica,sans-Serif" font-size="10.00">include/shm_array.h</text>
</a>
</g>
</g>
<!-- Node2 -->
<g id="Node000002" class="node">
<title>Node2</title>
<g id="a_Node000002"><a xlink:href="posix__shm_8h.html" target="_top" xlink:title="Core POSIX shared memory management with automatic reference counting.">
<polygon fill="white" stroke="#666666" points="427.5,-129 349.5,-129 349.5,-110 427.5,-110 427.5,-129"/>
<text text-anchor="middle" x="388.5" y="-117" font-family="Helvetica,sans-Serif" font-size="10.00">posix_shm.h</text>
</a>
</g>
</g>
<!-- Node1&#45;&gt;Node2 -->
<g id="edge1_Node000001_Node000002" class="edge">
<title>Node1&#45;&gt;Node2</title>
<g id="a_edge1_Node000001_Node000002"><a xlink:title=" ">
<path fill="none" stroke="#63b8ff" d="M697.31,-165.22C625.89,-154.88 504.9,-137.36 437.52,-127.6"/>
<polygon fill="#63b8ff" stroke="#63b8ff" points="437.98,-124.13 427.58,-126.16 436.98,-131.06 437.98,-124.13"/>
</a>
</g>
</g>
<!-- Node4 -->
<g id="Node000004" class="node">
<title>Node4</title>
<g id="a_Node000004"><a xlink:title=" ">
<polygon fill="#e0e0e0" stroke="#999999" points="65,-74 0,-74 0,-55 65,-55 65,-74"/>
<text text-anchor="middle" x="32.5" y="-62" font-family="Helvetica,sans-Serif" font-size="10.00">stdexcept</text>
</a>
</g>
</g>
<!-- Node1&#45;&gt;Node4 -->
<g id="edge22_Node000001_Node000004" class="edge">
<title>Node1&#45;&gt;Node4</title>
<g id="a_edge22_Node000001_Node000004"><a xlink:title=" ">
<path fill="none" stroke="#63b8ff" d="M697.35,-169.11C617.28,-162.55 467.27,-148.82 340.5,-129 223.95,-110.78 193.73,-99.14 75.02,-74.32"/>
<polygon fill="#63b8ff" stroke="#63b8ff" points="75.68,-70.89 65.17,-72.28 74.25,-77.74 75.68,-70.89"/>
</a>
</g>
</g>
<!-- Node12 -->
<g id="Node000012" class="node">
<title>Node12</title>
<g id="a_Node000012"><a xlink:href="shm__table_8h.html" target="_top" xlink:title=" ">
<polygon fill="white" stroke="#666666" points="688,-74 611,-74 611,-55 688,-55 688,-74"/>
<text text-anchor="middle" x="649.5" y="-62" font-family="Helvetica,sans-Serif" font-size="10.00">shm_table.h</text>
</a>
</g>
</g>
<!-- Node1&#45;&gt;Node12 -->
<g id="edge21_Node000001_Node000012" class="edge">
<title>Node1&#45;&gt;Node12</title>
<g id="a_edge21_Node000001_Node000012"><a xlink:title=" ">
<path fill="none" stroke="#63b8ff" d="M743.27,-164.8C732.41,-156.18 715.69,-142.36 702.5,-129 687.74,-114.06 672.55,-95.46 662.23,-82.27"/>
<polygon fill="#63b8ff" stroke="#63b8ff" points="664.82,-79.89 655.94,-74.1 659.27,-84.16 664.82,-79.89"/>
</a>
</g>
</g>
<!-- Node16 -->
<g id="Node000016" class="node">
<title>Node16</title>
<g id="a_Node000016"><a xlink:title=" ">
<polygon fill="#e0e0e0" stroke="#999999" points="759.5,-19 695.5,-19 695.5,0 759.5,0 759.5,-19"/>
<text text-anchor="middle" x="727.5" y="-7" font-family="Helvetica,sans-Serif" font-size="10.00">algorithm</text>
</a>
</g>
</g>
<!-- Node1&#45;&gt;Node16 -->
<g id="edge23_Node000001_Node000016" class="edge">
<title>Node1&#45;&gt;Node16</title>
<g id="a_edge23_Node000001_Node000016"><a xlink:title=" ">
<path fill="none" stroke="#63b8ff" d="M751.19,-164.77C747.97,-155.89 743.16,-141.68 740.5,-129 733.19,-94.19 729.83,-52.71 728.42,-29.2"/>
<polygon fill="#63b8ff" stroke="#63b8ff" points="731.91,-29.01 727.87,-19.22 724.93,-29.39 731.91,-29.01"/>
</a>
</g>
</g>
<!-- Node17 -->
<g id="Node000017" class="node">
<title>Node17</title>
<g id="a_Node000017"><a xlink:title=" ">
<polygon fill="#e0e0e0" stroke="#999999" points="851,-19 778,-19 778,0 851,0 851,-19"/>
<text text-anchor="middle" x="814.5" y="-7" font-family="Helvetica,sans-Serif" font-size="10.00">string_view</text>
</a>
</g>
</g>
<!-- Node1&#45;&gt;Node17 -->
<g id="edge26_Node000001_Node000017" class="edge">
<title>Node1&#45;&gt;Node17</title>
<g id="a_edge26_Node000001_Node000017"><a xlink:title=" ">
<path fill="none" stroke="#63b8ff" d="M754.73,-164.71C755.57,-144.41 759.46,-93.06 777.5,-55 782.48,-44.49 790.53,-34.38 797.84,-26.47"/>
<polygon fill="#63b8ff" stroke="#63b8ff" points="800.57,-28.68 805.05,-19.08 795.56,-23.8 800.57,-28.68"/>
</a>
</g>
</g>
<!-- Node18 -->
<g id="Node000018" class="node">
<title>Node18</title>
<g id="a_Node000018"><a xlink:href="shm__span_8h.html" target="_top" xlink:title=" ">
<polygon fill="white" stroke="#666666" points="858,-129 783,-129 783,-110 858,-110 858,-129"/>
<text text-anchor="middle" x="820.5" y="-117" font-family="Helvetica,sans-Serif" font-size="10.00">shm_span.h</text>
</a>
</g>
</g>
<!-- Node1&#45;&gt;Node18 -->
<g id="edge19_Node000001_Node000018" class="edge">
<title>Node1&#45;&gt;Node18</title>
<g id="a_edge19_Node000001_Node000018"><a xlink:title=" ">
<path fill="none" stroke="#63b8ff" d="M765.1,-164.98C774.96,-157.07 789.85,-145.11 801.72,-135.58"/>
<polygon fill="#63b8ff" stroke="#63b8ff" points="804.1,-138.16 809.7,-129.17 799.71,-132.7 804.1,-138.16"/>
</a>
</g>
</g>
<!-- Node20 -->
<g id="Node000020" class="node">
<title>Node20</title>
<g id="a_Node000020"><a xlink:title=" ">
<polygon fill="#e0e0e0" stroke="#999999" points="935.5,-129 875.5,-129 875.5,-110 935.5,-110 935.5,-129"/>
<text text-anchor="middle" x="905.5" y="-117" font-family="Helvetica,sans-Serif" font-size="10.00">concepts</text>
</a>
</g>
</g>
<!-- Node1&#45;&gt;Node20 -->
<g id="edge24_Node000001_Node000020" class="edge">
<title>Node1&#45;&gt;Node20</title>
<g id="a_edge24_Node000001_Node000020"><a xlink:title=" ">
<path fill="none" stroke="#63b8ff" d="M778.76,-164.98C803.82,-156.19 843.13,-142.39 871.33,-132.49"/>
<polygon fill="#63b8ff" stroke="#63b8ff" points="872.52,-135.78 880.8,-129.17 870.2,-129.18 872.52,-135.78"/>
</a>
</g>
</g>
<!-- Node21 -->
<g id="Node000021" class="node">
<title>Node21</title>
<g id="a_Node000021"><a xlink:title=" ">
<polygon fill="#e0e0e0" stroke="#999999" points="993.5,-129 953.5,-129 953.5,-110 993.5,-110 993.5,-129"/>
<text text-anchor="middle" x="973.5" y="-117" font-family="Helvetica,sans-Serif" font-size="10.00">span</text>
</a>
</g>
</g>
<!-- Node1&#45;&gt;Node21 -->
<g id="edge25_Node000001_Node000021" class="edge">
<title>Node1&#45;&gt;Node21</title>
<g id="a_edge25_Node000001_Node000021"><a xlink:title=" ">
<path fill="none" stroke="#63b8ff" d="M793.96,-164.92C830.39,-156.86 886.21,-144.13 943.34,-129.2"/>
<polygon fill="#63b8ff" stroke="#63b8ff" points="944.48,-132.52 953.26,-126.59 942.7,-125.75 944.48,-132.52"/>
</a>
</g>
</g>
<!-- Node22 -->
<g id="Node000022" class="node">
<title>Node22</title>
<g id="a_Node000022"><a xlink:title=" ">
<polygon fill="#e0e0e0" stroke="#999999" points="1065,-129 1012,-129 1012,-110 1065,-110 1065,-129"/>
<text text-anchor="middle" x="1038.5" y="-117" font-family="Helvetica,sans-Serif" font-size="10.00">iterator</text>
</a>
</g>
</g>
<!-- Node1&#45;&gt;Node22 -->
<g id="edge27_Node000001_Node000022" class="edge">
<title>Node1&#45;&gt;Node22</title>
<g id="a_edge27_Node000001_Node000022"><a xlink:title=" ">
<path fill="none" stroke="#63b8ff" d="M806.91,-164.95C855.05,-156.9 928.6,-144.12 1001.93,-129.02"/>
<polygon fill="#63b8ff" stroke="#63b8ff" points="1002.72,-132.43 1011.8,-126.97 1001.3,-125.58 1002.72,-132.43"/>
</a>
</g>
</g>
<!-- Node3 -->
<g id="Node000003" class="node">
<title>Node3</title>
<g id="a_Node000003"><a xlink:title=" ">
<polygon fill="#e0e0e0" stroke="#999999" points="292.5,-19 248.5,-19 248.5,0 292.5,0 292.5,-19"/>
<text text-anchor="middle" x="270.5" y="-7" font-family="Helvetica,sans-Serif" font-size="10.00">string</text>
</a>
</g>
</g>
<!-- Node2&#45;&gt;Node3 -->
<g id="edge2_Node000002_Node000003" class="edge">
<title>Node2&#45;&gt;Node3</title>
<g id="a_edge2_Node000002_Node000003"><a xlink:title=" ">
<path fill="none" stroke="#63b8ff" d="M349.36,-115.98C294.42,-111.54 198.73,-100.17 177.5,-74 156.65,-48.3 204.05,-28.82 238.54,-18.57"/>
<polygon fill="#63b8ff" stroke="#63b8ff" points="239.63,-21.9 248.3,-15.81 237.73,-15.17 239.63,-21.9"/>
</a>
</g>
</g>
<!-- Node2&#45;&gt;Node4 -->
<g id="edge3_Node000002_Node000004" class="edge">
<title>Node2&#45;&gt;Node4</title>
<g id="a_edge3_Node000002_Node000004"><a xlink:title=" ">
<path fill="none" stroke="#63b8ff" d="M349.09,-113.76C291.19,-106.61 179.52,-92.14 75.21,-74.21"/>
<polygon fill="#63b8ff" stroke="#63b8ff" points="75.59,-70.72 65.14,-72.46 74.39,-77.62 75.59,-70.72"/>
</a>
</g>
</g>
<!-- Node5 -->
<g id="Node000005" class="node">
<title>Node5</title>
<g id="a_Node000005"><a xlink:title=" ">
<polygon fill="#e0e0e0" stroke="#999999" points="264,-74 187,-74 187,-55 264,-55 264,-74"/>
<text text-anchor="middle" x="225.5" y="-62" font-family="Helvetica,sans-Serif" font-size="10.00">sys/mman.h</text>
</a>
</g>
</g>
<!-- Node2&#45;&gt;Node5 -->
<g id="edge4_Node000002_Node000005" class="edge">
<title>Node2&#45;&gt;Node5</title>
<g id="a_edge4_Node000002_Node000005"><a xlink:title=" ">
<path fill="none" stroke="#63b8ff" d="M362.31,-109.98C335.06,-101.13 292.2,-87.19 261.72,-77.28"/>
<polygon fill="#63b8ff" stroke="#63b8ff" points="262.49,-73.85 251.89,-74.08 260.32,-80.5 262.49,-73.85"/>
</a>
</g>
</g>
<!-- Node6 -->
<g id="Node000006" class="node">
<title>Node6</title>
<g id="a_Node000006"><a xlink:title=" ">
<polygon fill="#e0e0e0" stroke="#999999" points="346.5,-74 282.5,-74 282.5,-55 346.5,-55 346.5,-74"/>
<text text-anchor="middle" x="314.5" y="-62" font-family="Helvetica,sans-Serif" font-size="10.00">sys/stat.h</text>
</a>
</g>
</g>
<!-- Node2&#45;&gt;Node6 -->
<g id="edge5_Node000002_Node000006" class="edge">
<title>Node2&#45;&gt;Node6</title>
<g id="a_edge5_Node000002_Node000006"><a xlink:title=" ">
<path fill="none" stroke="#63b8ff" d="M376.61,-109.98C365.35,-101.92 348.21,-89.65 334.79,-80.03"/>
<polygon fill="#63b8ff" stroke="#63b8ff" points="336.77,-77.15 326.61,-74.17 332.7,-82.84 336.77,-77.15"/>
</a>
</g>
</g>
<!-- Node7 -->
<g id="Node000007" class="node">
<title>Node7</title>
<g id="a_Node000007"><a xlink:title=" ">
<polygon fill="#e0e0e0" stroke="#999999" points="412,-74 365,-74 365,-55 412,-55 412,-74"/>
<text text-anchor="middle" x="388.5" y="-62" font-family="Helvetica,sans-Serif" font-size="10.00">fcntl.h</text>
</a>
</g>
</g>
<!-- Node2&#45;&gt;Node7 -->
<g id="edge6_Node000002_Node000007" class="edge">
<title>Node2&#45;&gt;Node7</title>
<g id="a_edge6_Node000002_Node000007"><a xlink:title=" ">
<path fill="none" stroke="#63b8ff" d="M388.5,-109.75C388.5,-102.8 388.5,-92.85 388.5,-84.13"/>
<polygon fill="#63b8ff" stroke="#63b8ff" points="392,-84.09 388.5,-74.09 385,-84.09 392,-84.09"/>
</a>
</g>
</g>
<!-- Node8 -->
<g id="Node000008" class="node">
<title>Node8</title>
<g id="a_Node000008"><a xlink:title=" ">
<polygon fill="#e0e0e0" stroke="#999999" points="486.5,-74 430.5,-74 430.5,-55 486.5,-55 486.5,-74"/>
<text text-anchor="middle" x="458.5" y="-62" font-family="Helvetica,sans-Serif" font-size="10.00">unistd.h</text>
</a>
</g>
</g>
<!-- Node2&#45;&gt;Node8 -->
<g id="edge7_Node000002_Node000008" class="edge">
<title>Node2&#45;&gt;Node8</title>
<g id="a_edge7_Node000002_Node000008"><a xlink:title=" ">
<path fill="none" stroke="#63b8ff" d="M399.75,-109.98C410.3,-102 426.3,-89.88 438.94,-80.31"/>
<polygon fill="#63b8ff" stroke="#63b8ff" points="441.19,-83 447.05,-74.17 436.96,-77.42 441.19,-83"/>
</a>
</g>
</g>
<!-- Node9 -->
<g id="Node000009" class="node">
<title>Node9</title>
<g id="a_Node000009"><a xlink:title=" ">
<polygon fill="#e0e0e0" stroke="#999999" points="471.5,-19 421.5,-19 421.5,0 471.5,0 471.5,-19"/>
<text text-anchor="middle" x="446.5" y="-7" font-family="Helvetica,sans-Serif" font-size="10.00">cstring</text>
</a>
</g>
</g>
<!-- Node2&#45;&gt;Node9 -->
<g id="edge8_Node000002_Node000009" class="edge">
<title>Node2&#45;&gt;Node9</title>
<g id="a_edge8_Node000002_Node000009"><a xlink:title=" ">
<path fill="none" stroke="#63b8ff" d="M427.51,-113.22C451.5,-107.73 480.43,-96.59 495.5,-74 507.26,-56.38 487.74,-37.28 469.97,-24.68"/>
<polygon fill="#63b8ff" stroke="#63b8ff" points="471.79,-21.69 461.53,-19.05 467.9,-27.51 471.79,-21.69"/>
</a>
</g>
</g>
<!-- Node10 -->
<g id="Node000010" class="node">
<title>Node10</title>
<g id="a_Node000010"><a xlink:title=" ">
<polygon fill="#e0e0e0" stroke="#999999" points="592.5,-74 542.5,-74 542.5,-55 592.5,-55 592.5,-74"/>
<text text-anchor="middle" x="567.5" y="-62" font-family="Helvetica,sans-Serif" font-size="10.00">atomic</text>
</a>
</g>
</g>
<!-- Node2&#45;&gt;Node10 -->
<g id="edge9_Node000002_Node000010" class="edge">
<title>Node2&#45;&gt;Node10</title>
<g id="a_edge9_Node000002_Node000010"><a xlink:title=" ">
<path fill="none" stroke="#63b8ff" d="M417.26,-109.98C448.61,-100.7 498.77,-85.85 532.41,-75.89"/>
<polygon fill="#63b8ff" stroke="#63b8ff" points="533.69,-79.16 542.28,-72.97 531.7,-72.45 533.69,-79.16"/>
</a>
</g>
</g>
<!-- Node11 -->
<g id="Node000011" class="node">
<title>Node11</title>
<g id="a_Node000011"><a xlink:title=" ">
<polygon fill="#e0e0e0" stroke="#999999" points="130,-74 83,-74 83,-55 130,-55 130,-74"/>
<text text-anchor="middle" x="106.5" y="-62" font-family="Helvetica,sans-Serif" font-size="10.00">cerrno</text>
</a>
</g>
</g>
<!-- Node2&#45;&gt;Node11 -->
<g id="edge10_Node000002_Node000011" class="edge">
<title>Node2&#45;&gt;Node11</title>
<g id="a_edge10_Node000002_Node000011"><a xlink:title=" ">
<path fill="none" stroke="#63b8ff" d="M349.11,-111.81C300.79,-103.49 216.45,-88.6 144.5,-74 143.05,-73.71 141.57,-73.4 140.08,-73.09"/>
<polygon fill="#63b8ff" stroke="#63b8ff" points="140.7,-69.64 130.19,-70.95 139.22,-76.48 140.7,-69.64"/>
</a>
</g>
</g>
<!-- Node2&#45;&gt;Node12 -->
<g id="edge11_Node000002_Node000012" class="edge">
<title>Node2&#45;&gt;Node12</title>
<g id="a_edge11_Node000002_Node000012"><a xlink:title=" ">
<path fill="none" stroke="#63b8ff" d="M427.57,-110.57C473.74,-101.19 550.58,-85.59 600.64,-75.42"/>
<polygon fill="#63b8ff" stroke="#63b8ff" points="601.48,-78.82 610.59,-73.4 600.09,-71.96 601.48,-78.82"/>
</a>
</g>
</g>
<!-- Node12&#45;&gt;Node3 -->
<g id="edge13_Node000012_Node000003" class="edge">
<title>Node12&#45;&gt;Node3</title>
<g id="a_edge13_Node000012_Node000003"><a xlink:title=" ">
<path fill="none" stroke="#63b8ff" d="M610.75,-56.5C607.62,-55.97 604.51,-55.47 601.5,-55 492.28,-38 362.18,-21.64 302.86,-14.4"/>
<polygon fill="#63b8ff" stroke="#63b8ff" points="302.98,-10.88 292.63,-13.15 302.13,-17.83 302.98,-10.88"/>
</a>
</g>
</g>
<!-- Node12&#45;&gt;Node9 -->
<g id="edge15_Node000012_Node000009" class="edge">
<title>Node12&#45;&gt;Node9</title>
<g id="a_edge15_Node000012_Node000009"><a xlink:title=" ">
<path fill="none" stroke="#63b8ff" d="M616.88,-54.98C579.9,-45.33 519.82,-29.64 481.77,-19.71"/>
<polygon fill="#63b8ff" stroke="#63b8ff" points="482.22,-16.21 471.66,-17.07 480.45,-22.98 482.22,-16.21"/>
</a>
</g>
</g>
<!-- Node13 -->
<g id="Node000013" class="node">
<title>Node13</title>
<g id="a_Node000013"><a xlink:title=" ">
<polygon fill="#e0e0e0" stroke="#999999" points="543,-19 490,-19 490,0 543,0 543,-19"/>
<text text-anchor="middle" x="516.5" y="-7" font-family="Helvetica,sans-Serif" font-size="10.00">cstddef</text>
</a>
</g>
</g>
<!-- Node12&#45;&gt;Node13 -->
<g id="edge12_Node000012_Node000013" class="edge">
<title>Node12&#45;&gt;Node13</title>
<g id="a_edge12_Node000012_Node000013"><a xlink:title=" ">
<path fill="none" stroke="#63b8ff" d="M628.13,-54.98C606.35,-46.3 572.34,-32.75 547.58,-22.88"/>
<polygon fill="#63b8ff" stroke="#63b8ff" points="548.84,-19.62 538.26,-19.17 546.25,-26.12 548.84,-19.62"/>
</a>
</g>
</g>
<!-- Node14 -->
<g id="Node000014" class="node">
<title>Node14</title>
<g id="a_Node000014"><a xlink:title=" ">
<polygon fill="#e0e0e0" stroke="#999999" points="603.5,-19 561.5,-19 561.5,0 603.5,0 603.5,-19"/>
<text text-anchor="middle" x="582.5" y="-7" font-family="Helvetica,sans-Serif" font-size="10.00">array</text>
</a>
</g>
</g>
<!-- Node12&#45;&gt;Node14 -->
<g id="edge14_Node000012_Node000014" class="edge">
<title>Node12&#45;&gt;Node14</title>
<g id="a_edge14_Node000012_Node000014"><a xlink:title=" ">
<path fill="none" stroke="#63b8ff" d="M638.74,-54.98C628.73,-47.07 613.61,-35.11 601.57,-25.58"/>
<polygon fill="#63b8ff" stroke="#63b8ff" points="603.47,-22.63 593.46,-19.17 599.13,-28.12 603.47,-22.63"/>
</a>
</g>
</g>
<!-- Node15 -->
<g id="Node000015" class="node">
<title>Node15</title>
<g id="a_Node000015"><a xlink:title=" ">
<polygon fill="#e0e0e0" stroke="#999999" points="677.5,-19 621.5,-19 621.5,0 677.5,0 677.5,-19"/>
<text text-anchor="middle" x="649.5" y="-7" font-family="Helvetica,sans-Serif" font-size="10.00">optional</text>
</a>
</g>
</g>
<!-- Node12&#45;&gt;Node15 -->
<g id="edge16_Node000012_Node000015" class="edge">
<title>Node12&#45;&gt;Node15</title>
<g id="a_edge16_Node000012_Node000015"><a xlink:title=" ">
<path fill="none" stroke="#63b8ff" d="M649.5,-54.75C649.5,-47.8 649.5,-37.85 649.5,-29.13"/>
<polygon fill="#63b8ff" stroke="#63b8ff" points="653,-29.09 649.5,-19.09 646,-29.09 653,-29.09"/>
</a>
</g>
</g>
<!-- Node12&#45;&gt;Node16 -->
<g id="edge17_Node000012_Node000016" class="edge">
<title>Node12&#45;&gt;Node16</title>
<g id="a_edge17_Node000012_Node000016"><a xlink:title=" ">
<path fill="none" stroke="#63b8ff" d="M662.03,-54.98C673.9,-46.92 691.96,-34.65 706.11,-25.03"/>
<polygon fill="#63b8ff" stroke="#63b8ff" points="708.44,-27.69 714.74,-19.17 704.5,-21.9 708.44,-27.69"/>
</a>
</g>
</g>
<!-- Node12&#45;&gt;Node17 -->
<g id="edge18_Node000012_Node000017" class="edge">
<title>Node12&#45;&gt;Node17</title>
<g id="a_edge18_Node000012_Node000017"><a xlink:title=" ">
<path fill="none" stroke="#63b8ff" d="M676.01,-54.98C703.71,-46.09 747.36,-32.07 778.24,-22.15"/>
<polygon fill="#63b8ff" stroke="#63b8ff" points="779.33,-25.47 787.78,-19.08 777.19,-18.81 779.33,-25.47"/>
</a>
</g>
</g>
<!-- Node19 -->
<g id="Node000019" class="node">
<title>Node19</title>
<g id="a_Node000019"><a xlink:title=" ">
<polygon fill="#e0e0e0" stroke="#999999" points="855,-74 786,-74 786,-55 855,-55 855,-74"/>
<text text-anchor="middle" x="820.5" y="-62" font-family="Helvetica,sans-Serif" font-size="10.00">type_traits</text>
</a>
</g>
</g>
<!-- Node18&#45;&gt;Node19 -->
<g id="edge20_Node000018_Node000019" class="edge">
<title>Node18&#45;&gt;Node19</title>
<g id="a_edge20_Node000018_Node000019"><a xlink:title=" ">
<path fill="none" stroke="#63b8ff" d="M820.5,-109.75C820.5,-102.8 820.5,-92.85 820.5,-84.13"/>
<polygon fill="#63b8ff" stroke="#63b8ff" points="824,-84.09 820.5,-74.09 817,-84.09 824,-84.09"/>
</a>
</g>
</g>
</g>
</svg>
