<?xml version="1.0" encoding="UTF-8" standalone="no"?>
<!DOCTYPE svg PUBLIC "-//W3C//DTD SVG 1.1//EN"
 "http://www.w3.org/Graphics/SVG/1.1/DTD/svg11.dtd">
<!-- Generated by graphviz version 2.43.0 (0)
 -->
<!-- Title: include/shm_table.h Pages: 1 -->
<!--zoomable 269 -->

<svg id="main" version="1.1" xmlns="http://www.w3.org/2000/svg" xmlns:xlink="http://www.w3.org/1999/xlink" xml:space="preserve" onload="init(evt)">
<style type="text/css"><![CDATA[
.node, .edge {opacity: 0.7;}
.node.selected, .edge.selected {opacity: 1;}
.edge:hover path { stroke: red; }
.edge:hover polygon { stroke: red; fill: red; }
]]></style>

<defs>
  <circle id="rim" cx="0" cy="0" r="7"/>
  <circle id="rim2" cx="0" cy="0" r="3.5"/>
  <g id="zoomPlus">
    <use xlink:href="#rim" fill="#404040"><set attributeName="fill" to="#808080" begin="zoomplus.mouseover" end="zoomplus.mouseout"/></use>
    <path d="M-4,0h8M0,-4v8" fill="none" stroke="white" stroke-width="1.5" pointer-events="none"/>
  </g>
  <g id="zoomMin">
    <use xlink:href="#rim" fill="#404040"><set attributeName="fill" to="#808080" begin="zoomminus.mouseover" end="zoomminus.mouseout"/></use>
    <path d="M-4,0h8" fill="none" stroke="white" stroke-width="1.5" pointer-events="none"/>
  </g>
  <g id="arrowUp" transform="translate(30 24)">
    <use xlink:href="#rim"/>
    <path pointer-events="none" fill="none" stroke="white" stroke-width="1.5" d="M0,-3.0v7 M-2.5,-0.5L0,-3.0L2.5,-0.5"/>
  </g>
  <g id="arrowRight" transform="rotate(90) translate(36 -43)">
    <use xlink:href="#rim"/>
    <path pointer-events="none" fill="none" stroke="white" stroke-width="1.5" d="M0,-3.0v7 M-2.5,-0.5L0,-3.0L2.5,-0.5"/>
  </g>
  <g id="arrowDown" transform="rotate(180) translate(-30 -48)">
    <use xlink:href="#rim"/>
    <path pointer-events="none" fill="none" stroke="white" stroke-width="1.5" d="M0,-3.0v7 M-2.5,-0.5L0,-3.0L2.5,-0.5"/>
  </g>
  <g id="arrowLeft" transform="rotate(270) translate(-36 17)">
    <use xlink:href="#rim"/>
    <path pointer-events="none" fill="none" stroke="white" stroke-width="1.5" d="M0,-3.0v7 M-2.5,-0.5L0,-3.0L2.5,-0.5"/>
  </g>
  <g id="resetDef">
    <use xlink:href="#rim2" fill="#404040"><set attributeName="fill" to="#808080" begin="reset.mouseover" end="reset.mouseout"/></use>
  </g>
</defs>
<script type="application/ecmascript">
var viewWidth = 1097;
var viewHeight = 269;
var sectionId = 'dynsection-1';
</script>
<script type="application/ecmascript" xlink:href="svg.min.js"/>
<svg id="graph" class="graph">
<g id="viewport">
<title>include/shm_table.h</title>
<!-- Node1 -->
<g id="Node000001" class="node">
<title>Node1</title>
<g id="a_Node000001"><a xlink:title=" ">
<polygon fill="#999999" stroke="#666666" points="709.5,-261 594.5,-261 594.5,-242 709.5,-242 709.5,-261"/>
<text text-anchor="middle" x="652" y="-249" font-family="Helvetica,sans-Serif" font-size="10.00">include/shm_table.h</text>
</a>
</g>
</g>
<!-- Node2 -->
<g id="Node000002" class="node">
<title>Node2</title>
<g id="a_Node000002"><a xlink:href="posix__shm_8h.html" target="_top" xlink:title="Core POSIX shared memory management with automatic reference counting.">
<polygon fill="white" stroke="#666666" points="667,-206 551,-206 551,-187 667,-187 667,-206"/>
<text text-anchor="middle" x="609" y="-194" font-family="Helvetica,sans-Serif" font-size="10.00">include/posix_shm.h</text>
</a>
</g>
</g>
<!-- Node1&#45;&gt;Node2 -->
<g id="edge1_Node000001_Node000002" class="edge">
<title>Node1&#45;&gt;Node2</title>
<g id="a_edge1_Node000001_Node000002"><a xlink:title=" ">
<path fill="none" stroke="#63b8ff" d="M638.58,-233.96C631.09,-224.72 622.06,-213.6 615.97,-206.09"/>
<polygon fill="#63b8ff" stroke="#63b8ff" points="635.88,-236.19 644.9,-241.75 641.32,-231.78 635.88,-236.19"/>
</a>
</g>
</g>
<!-- Node8 -->
<g id="Node000008" class="node">
<title>Node8</title>
<g id="a_Node000008"><a xlink:href="shm__array_8h.html" target="_top" xlink:title="Fixed&#45;size shared memory array with STL compatibility.">
<polygon fill="white" stroke="#666666" points="543,-145.5 429,-145.5 429,-126.5 543,-126.5 543,-145.5"/>
<text text-anchor="middle" x="486" y="-133.5" font-family="Helvetica,sans-Serif" font-size="10.00">include/shm_array.h</text>
</a>
</g>
</g>
<!-- Node1&#45;&gt;Node8 -->
<g id="edge24_Node000001_Node000008" class="edge">
<title>Node1&#45;&gt;Node8</title>
<g id="a_edge24_Node000001_Node000008"><a xlink:title=" ">
<path fill="none" stroke="#63b8ff" d="M609.43,-238.86C587.89,-231.64 562.11,-220.87 542,-206 518.93,-188.94 499.82,-160.24 491.1,-145.83"/>
<polygon fill="#63b8ff" stroke="#63b8ff" points="608.4,-242.21 619,-241.93 610.54,-235.54 608.4,-242.21"/>
</a>
</g>
</g>
<!-- Node10 -->
<g id="Node000010" class="node">
<title>Node10</title>
<g id="a_Node000010"><a xlink:href="shm__atomic_8h.html" target="_top" xlink:title=" ">
<polygon fill="white" stroke="#666666" points="799,-145.5 675,-145.5 675,-126.5 799,-126.5 799,-145.5"/>
<text text-anchor="middle" x="737" y="-133.5" font-family="Helvetica,sans-Serif" font-size="10.00">include/shm_atomic.h</text>
</a>
</g>
</g>
<!-- Node1&#45;&gt;Node10 -->
<g id="edge25_Node000001_Node000010" class="edge">
<title>Node1&#45;&gt;Node10</title>
<g id="a_edge25_Node000001_Node000010"><a xlink:title=" ">
<path fill="none" stroke="#63b8ff" d="M664.38,-233.96C682.72,-209.48 716.44,-164.46 730.54,-145.63"/>
<polygon fill="#63b8ff" stroke="#63b8ff" points="661.58,-231.87 658.39,-241.97 667.18,-236.06 661.58,-231.87"/>
</a>
</g>
</g>
<!-- Node11 -->
<g id="Node000011" class="node">
<title>Node11</title>
<g id="a_Node000011"><a xlink:href="shm__object__pool_8h.html" target="_top" xlink:title=" ">
<polygon fill="white" stroke="#666666" points="928.5,-151 817.5,-151 817.5,-121 928.5,-121 928.5,-151"/>
<text text-anchor="start" x="825.5" y="-139" font-family="Helvetica,sans-Serif" font-size="10.00">include/shm_object</text>
<text text-anchor="middle" x="873" y="-128" font-family="Helvetica,sans-Serif" font-size="10.00">_pool.h</text>
</a>
</g>
</g>
<!-- Node1&#45;&gt;Node11 -->
<g id="edge26_Node000001_Node000011" class="edge">
<title>Node1&#45;&gt;Node11</title>
<g id="a_edge26_Node000001_Node000011"><a xlink:title=" ">
<path fill="none" stroke="#63b8ff" d="M677.61,-237.35C719.49,-215.84 802.25,-173.33 845.39,-151.18"/>
<polygon fill="#63b8ff" stroke="#63b8ff" points="675.91,-234.29 668.61,-241.97 679.11,-240.51 675.91,-234.29"/>
</a>
</g>
</g>
<!-- Node12 -->
<g id="Node000012" class="node">
<title>Node12</title>
<g id="a_Node000012"><a xlink:href="shm__queue_8h.html" target="_top" xlink:title=" ">
<polygon fill="white" stroke="#666666" points="299,-145.5 179,-145.5 179,-126.5 299,-126.5 299,-145.5"/>
<text text-anchor="middle" x="239" y="-133.5" font-family="Helvetica,sans-Serif" font-size="10.00">include/shm_queue.h</text>
</a>
</g>
</g>
<!-- Node1&#45;&gt;Node12 -->
<g id="edge27_Node000001_Node000012" class="edge">
<title>Node1&#45;&gt;Node12</title>
<g id="a_edge27_Node000001_Node000012"><a xlink:title=" ">
<path fill="none" stroke="#63b8ff" d="M611.19,-239.28C528.7,-216.62 343.76,-165.79 270.12,-145.55"/>
<polygon fill="#63b8ff" stroke="#63b8ff" points="610.39,-242.69 620.96,-241.97 612.24,-235.94 610.39,-242.69"/>
</a>
</g>
</g>
<!-- Node13 -->
<g id="Node000013" class="node">
<title>Node13</title>
<g id="a_Node000013"><a xlink:href="shm__ring__buffer_8h.html" target="_top" xlink:title=" ">
<polygon fill="white" stroke="#666666" points="1089,-145.5 947,-145.5 947,-126.5 1089,-126.5 1089,-145.5"/>
<text text-anchor="middle" x="1018" y="-133.5" font-family="Helvetica,sans-Serif" font-size="10.00">include/shm_ring_buffer.h</text>
</a>
</g>
</g>
<!-- Node1&#45;&gt;Node13 -->
<g id="edge28_Node000001_Node000013" class="edge">
<title>Node1&#45;&gt;Node13</title>
<g id="a_edge28_Node000001_Node000013"><a xlink:title=" ">
<path fill="none" stroke="#63b8ff" d="M689.28,-238.94C762.82,-216.14 925.07,-165.82 990.17,-145.63"/>
<polygon fill="#63b8ff" stroke="#63b8ff" points="688.02,-235.66 679.51,-241.97 690.1,-242.35 688.02,-235.66"/>
</a>
</g>
</g>
<!-- Node3 -->
<g id="Node000003" class="node">
<title>Node3</title>
<g id="a_Node000003"><a xlink:href="basic__usage_8cpp.html" target="_top" xlink:title=" ">
<polygon fill="white" stroke="#666666" points="148,-79.5 0,-79.5 0,-60.5 148,-60.5 148,-79.5"/>
<text text-anchor="middle" x="74" y="-67.5" font-family="Helvetica,sans-Serif" font-size="10.00">examples/basic_usage.cpp</text>
</a>
</g>
</g>
<!-- Node2&#45;&gt;Node3 -->
<g id="edge2_Node000002_Node000003" class="edge">
<title>Node2&#45;&gt;Node3</title>
<g id="a_edge2_Node000002_Node000003"><a xlink:title=" ">
<path fill="none" stroke="#63b8ff" d="M540.81,-189.31C490.33,-183.28 420.45,-171.85 362,-151 336.14,-141.77 333.71,-130.64 308,-121 274.5,-108.44 180.14,-90.14 121.99,-79.52"/>
<polygon fill="#63b8ff" stroke="#63b8ff" points="540.63,-192.81 550.96,-190.48 541.43,-185.86 540.63,-192.81"/>
</a>
</g>
</g>
<!-- Node4 -->
<g id="Node000004" class="node">
<title>Node4</title>
<g id="a_Node000004"><a xlink:href="benchmark__reads_8cpp.html" target="_top" xlink:title=" ">
<polygon fill="white" stroke="#666666" points="636,-85 514,-85 514,-55 636,-55 636,-85"/>
<text text-anchor="start" x="522" y="-73" font-family="Helvetica,sans-Serif" font-size="10.00">examples/benchmark</text>
<text text-anchor="middle" x="575" y="-62" font-family="Helvetica,sans-Serif" font-size="10.00">_reads.cpp</text>
</a>
</g>
</g>
<!-- Node2&#45;&gt;Node4 -->
<g id="edge3_Node000002_Node000004" class="edge">
<title>Node2&#45;&gt;Node4</title>
<g id="a_edge3_Node000002_Node000004"><a xlink:title=" ">
<path fill="none" stroke="#63b8ff" d="M602.89,-176.95C600.34,-169 597.42,-159.57 595,-151 588.55,-128.13 582.05,-101.28 578.29,-85.23"/>
<polygon fill="#63b8ff" stroke="#63b8ff" points="599.63,-178.25 606.05,-186.68 606.29,-176.09 599.63,-178.25"/>
</a>
</g>
</g>
<!-- Node5 -->
<g id="Node000005" class="node">
<title>Node5</title>
<g id="a_Node000005"><a xlink:href="custom__table__sizes_8cpp.html" target="_top" xlink:title=" ">
<polygon fill="white" stroke="#666666" points="300,-85 166,-85 166,-55 300,-55 300,-85"/>
<text text-anchor="start" x="174" y="-73" font-family="Helvetica,sans-Serif" font-size="10.00">examples/custom_table</text>
<text text-anchor="middle" x="233" y="-62" font-family="Helvetica,sans-Serif" font-size="10.00">_sizes.cpp</text>
</a>
</g>
</g>
<!-- Node2&#45;&gt;Node5 -->
<g id="edge4_Node000002_Node000005" class="edge">
<title>Node2&#45;&gt;Node5</title>
<g id="a_edge4_Node000002_Node000005"><a xlink:title=" ">
<path fill="none" stroke="#63b8ff" d="M547.59,-185.02C510.06,-177.64 461.47,-166.34 420,-151 392.78,-140.93 388.46,-132.93 362,-121 332.44,-107.67 298.18,-94.5 272.4,-85.02"/>
<polygon fill="#63b8ff" stroke="#63b8ff" points="547.38,-188.54 557.87,-186.99 548.71,-181.67 547.38,-188.54"/>
</a>
</g>
</g>
<!-- Node6 -->
<g id="Node000006" class="node">
<title>Node6</title>
<g id="a_Node000006"><a xlink:href="simd__simulation_8cpp.html" target="_top" xlink:title="Example of SIMD&#45;optimized particle simulation using shared memory.">
<polygon fill="white" stroke="#666666" points="570.5,-19 401.5,-19 401.5,0 570.5,0 570.5,-19"/>
<text text-anchor="middle" x="486" y="-7" font-family="Helvetica,sans-Serif" font-size="10.00">examples/simd_simulation.cpp</text>
</a>
</g>
</g>
<!-- Node2&#45;&gt;Node6 -->
<g id="edge5_Node000002_Node000006" class="edge">
<title>Node2&#45;&gt;Node6</title>
<g id="a_edge5_Node000002_Node000006"><a xlink:title=" ">
<path fill="none" stroke="#63b8ff" d="M615.71,-177.27C625.32,-150.83 642.14,-103.04 645,-85 647.09,-71.83 653.06,-65.62 645,-55 632.44,-38.44 583.1,-26.37 542.67,-19"/>
<polygon fill="#63b8ff" stroke="#63b8ff" points="612.36,-176.26 612.21,-186.85 618.93,-178.66 612.36,-176.26"/>
</a>
</g>
</g>
<!-- Node7 -->
<g id="Node000007" class="node">
<title>Node7</title>
<g id="a_Node000007"><a xlink:href="simulation__patterns_8cpp.html" target="_top" xlink:title=" ">
<polygon fill="white" stroke="#666666" points="811.5,-85 692.5,-85 692.5,-55 811.5,-55 811.5,-85"/>
<text text-anchor="start" x="700.5" y="-73" font-family="Helvetica,sans-Serif" font-size="10.00">examples/simulation</text>
<text text-anchor="middle" x="752" y="-62" font-family="Helvetica,sans-Serif" font-size="10.00">_patterns.cpp</text>
</a>
</g>
</g>
<!-- Node2&#45;&gt;Node7 -->
<g id="edge6_Node000002_Node000007" class="edge">
<title>Node2&#45;&gt;Node7</title>
<g id="a_edge6_Node000002_Node000007"><a xlink:title=" ">
<path fill="none" stroke="#63b8ff" d="M619.63,-177.87C630.01,-161.69 646.97,-137.76 666,-121 682.59,-106.39 704.09,-93.89 721.44,-85.04"/>
<polygon fill="#63b8ff" stroke="#63b8ff" points="616.38,-176.47 614.07,-186.81 622.32,-180.17 616.38,-176.47"/>
</a>
</g>
</g>
<!-- Node2&#45;&gt;Node8 -->
<g id="edge7_Node000002_Node000008" class="edge">
<title>Node2&#45;&gt;Node8</title>
<g id="a_edge7_Node000002_Node000008"><a xlink:title=" ">
<path fill="none" stroke="#63b8ff" d="M581.95,-182.63C558.22,-171.35 524.41,-155.27 503.91,-145.52"/>
<polygon fill="#63b8ff" stroke="#63b8ff" points="580.58,-185.86 591.11,-186.99 583.59,-179.54 580.58,-185.86"/>
</a>
</g>
</g>
<!-- Node2&#45;&gt;Node10 -->
<g id="edge15_Node000002_Node000010" class="edge">
<title>Node2&#45;&gt;Node10</title>
<g id="a_edge15_Node000002_Node000010"><a xlink:title=" ">
<path fill="none" stroke="#63b8ff" d="M636.83,-182.78C661.53,-171.49 696.93,-155.31 718.37,-145.52"/>
<polygon fill="#63b8ff" stroke="#63b8ff" points="635.25,-179.65 627.61,-186.99 638.16,-186.02 635.25,-179.65"/>
</a>
</g>
</g>
<!-- Node2&#45;&gt;Node11 -->
<g id="edge17_Node000002_Node000011" class="edge">
<title>Node2&#45;&gt;Node11</title>
<g id="a_edge17_Node000002_Node000011"><a xlink:title=" ">
<path fill="none" stroke="#63b8ff" d="M657.22,-184.82C702.3,-174.83 769.61,-159.91 817.04,-149.4"/>
<polygon fill="#63b8ff" stroke="#63b8ff" points="656.39,-181.41 647.39,-186.99 657.91,-188.25 656.39,-181.41"/>
</a>
</g>
</g>
<!-- Node2&#45;&gt;Node12 -->
<g id="edge19_Node000002_Node000012" class="edge">
<title>Node2&#45;&gt;Node12</title>
<g id="a_edge19_Node000002_Node000012"><a xlink:title=" ">
<path fill="none" stroke="#63b8ff" d="M545,-185.38C473.73,-174.11 359.76,-156.09 292.87,-145.52"/>
<polygon fill="#63b8ff" stroke="#63b8ff" points="544.77,-188.89 555.2,-186.99 545.87,-181.97 544.77,-188.89"/>
</a>
</g>
</g>
<!-- Node2&#45;&gt;Node13 -->
<g id="edge22_Node000002_Node000013" class="edge">
<title>Node2&#45;&gt;Node13</title>
<g id="a_edge22_Node000002_Node000013"><a xlink:title=" ">
<path fill="none" stroke="#63b8ff" d="M677,-187.09C743.6,-178.66 847.93,-164.97 938,-151 948.73,-149.34 960.24,-147.41 971.09,-145.52"/>
<polygon fill="#63b8ff" stroke="#63b8ff" points="676.53,-183.62 667.04,-188.34 677.4,-190.56 676.53,-183.62"/>
</a>
</g>
</g>
<!-- Node8&#45;&gt;Node3 -->
<g id="edge8_Node000008_Node000003" class="edge">
<title>Node8&#45;&gt;Node3</title>
<g id="a_edge8_Node000008_Node000003"><a xlink:title=" ">
<path fill="none" stroke="#63b8ff" d="M418.96,-125.14C352.45,-115.28 247.61,-99.53 157,-85 146.32,-83.29 134.88,-81.4 124.01,-79.57"/>
<polygon fill="#63b8ff" stroke="#63b8ff" points="418.49,-128.61 428.9,-126.61 419.52,-121.68 418.49,-128.61"/>
</a>
</g>
</g>
<!-- Node8&#45;&gt;Node4 -->
<g id="edge9_Node000008_Node000004" class="edge">
<title>Node8&#45;&gt;Node4</title>
<g id="a_edge9_Node000008_Node000004"><a xlink:title=" ">
<path fill="none" stroke="#63b8ff" d="M506.42,-120.32C521.12,-109.74 540.85,-95.56 555.37,-85.12"/>
<polygon fill="#63b8ff" stroke="#63b8ff" points="504.08,-117.69 498,-126.37 508.17,-123.37 504.08,-117.69"/>
</a>
</g>
</g>
<!-- Node8&#45;&gt;Node5 -->
<g id="edge10_Node000008_Node000005" class="edge">
<title>Node8&#45;&gt;Node5</title>
<g id="a_edge10_Node000008_Node000005"><a xlink:title=" ">
<path fill="none" stroke="#63b8ff" d="M442.34,-123.96C399.72,-113.17 334.7,-96.73 288.44,-85.02"/>
<polygon fill="#63b8ff" stroke="#63b8ff" points="441.59,-127.38 452.14,-126.44 443.31,-120.59 441.59,-127.38"/>
</a>
</g>
</g>
<!-- Node8&#45;&gt;Node6 -->
<g id="edge11_Node000008_Node000006" class="edge">
<title>Node8&#45;&gt;Node6</title>
<g id="a_edge11_Node000008_Node000006"><a xlink:title=" ">
<path fill="none" stroke="#63b8ff" d="M486,-116.24C486,-88.86 486,-39.08 486,-19.12"/>
<polygon fill="#63b8ff" stroke="#63b8ff" points="482.5,-116.44 486,-126.44 489.5,-116.44 482.5,-116.44"/>
</a>
</g>
</g>
<!-- Node8&#45;&gt;Node7 -->
<g id="edge12_Node000008_Node000007" class="edge">
<title>Node8&#45;&gt;Node7</title>
<g id="a_edge12_Node000008_Node000007"><a xlink:title=" ">
<path fill="none" stroke="#63b8ff" d="M531.33,-124.09C576.14,-113.31 644.87,-96.78 693.71,-85.02"/>
<polygon fill="#63b8ff" stroke="#63b8ff" points="530.5,-120.69 521.6,-126.44 532.14,-127.5 530.5,-120.69"/>
</a>
</g>
</g>
<!-- Node9 -->
<g id="Node000009" class="node">
<title>Node9</title>
<g id="a_Node000009"><a xlink:href="shm__simd__utils_8h.html" target="_top" xlink:title="SIMD&#45;optimized utilities for simulation workloads.">
<polygon fill="white" stroke="#666666" points="458,-79.5 318,-79.5 318,-60.5 458,-60.5 458,-79.5"/>
<text text-anchor="middle" x="388" y="-67.5" font-family="Helvetica,sans-Serif" font-size="10.00">include/shm_simd_utils.h</text>
</a>
</g>
</g>
<!-- Node8&#45;&gt;Node9 -->
<g id="edge13_Node000008_Node000009" class="edge">
<title>Node8&#45;&gt;Node9</title>
<g id="a_edge13_Node000008_Node000009"><a xlink:title=" ">
<path fill="none" stroke="#63b8ff" d="M464.33,-120.85C445.07,-108.27 417.52,-90.28 401.32,-79.7"/>
<polygon fill="#63b8ff" stroke="#63b8ff" points="462.5,-123.83 472.78,-126.37 466.32,-117.97 462.5,-123.83"/>
</a>
</g>
</g>
<!-- Node9&#45;&gt;Node6 -->
<g id="edge14_Node000009_Node000006" class="edge">
<title>Node9&#45;&gt;Node6</title>
<g id="a_edge14_Node000009_Node000006"><a xlink:title=" ">
<path fill="none" stroke="#63b8ff" d="M411.25,-55.12C429.94,-43.96 455.61,-28.64 471.48,-19.17"/>
<polygon fill="#63b8ff" stroke="#63b8ff" points="409.25,-52.24 402.46,-60.37 412.84,-58.25 409.25,-52.24"/>
</a>
</g>
</g>
<!-- Node10&#45;&gt;Node7 -->
<g id="edge16_Node000010_Node000007" class="edge">
<title>Node10&#45;&gt;Node7</title>
<g id="a_edge16_Node000010_Node000007"><a xlink:title=" ">
<path fill="none" stroke="#63b8ff" d="M741.37,-116.35C743.69,-106.47 746.49,-94.51 748.63,-85.36"/>
<polygon fill="#63b8ff" stroke="#63b8ff" points="737.9,-115.83 739.02,-126.37 744.71,-117.43 737.9,-115.83"/>
</a>
</g>
</g>
<!-- Node11&#45;&gt;Node7 -->
<g id="edge18_Node000011_Node000007" class="edge">
<title>Node11&#45;&gt;Node7</title>
<g id="a_edge18_Node000011_Node000007"><a xlink:title=" ">
<path fill="none" stroke="#63b8ff" d="M837.53,-116.24C818.65,-106.25 795.82,-94.18 778.49,-85.01"/>
<polygon fill="#63b8ff" stroke="#63b8ff" points="835.97,-119.37 846.45,-120.95 839.24,-113.19 835.97,-119.37"/>
</a>
</g>
</g>
<!-- Node12&#45;&gt;Node3 -->
<g id="edge20_Node000012_Node000003" class="edge">
<title>Node12&#45;&gt;Node3</title>
<g id="a_edge20_Node000012_Node000003"><a xlink:title=" ">
<path fill="none" stroke="#63b8ff" d="M207.23,-122.68C174.62,-110.03 124.74,-90.68 96.16,-79.6"/>
<polygon fill="#63b8ff" stroke="#63b8ff" points="206.16,-126.02 216.75,-126.37 208.69,-119.49 206.16,-126.02"/>
</a>
</g>
</g>
<!-- Node12&#45;&gt;Node5 -->
<g id="edge21_Node000012_Node000005" class="edge">
<title>Node12&#45;&gt;Node5</title>
<g id="a_edge21_Node000012_Node000005"><a xlink:title=" ">
<path fill="none" stroke="#63b8ff" d="M237.25,-116.35C236.32,-106.47 235.2,-94.51 234.35,-85.36"/>
<polygon fill="#63b8ff" stroke="#63b8ff" points="233.77,-116.74 238.19,-126.37 240.74,-116.09 233.77,-116.74"/>
</a>
</g>
</g>
<!-- Node13&#45;&gt;Node7 -->
<g id="edge23_Node000013_Node000007" class="edge">
<title>Node13&#45;&gt;Node7</title>
<g id="a_edge23_Node000013_Node000007"><a xlink:title=" ">
<path fill="none" stroke="#63b8ff" d="M972.67,-124.09C927.86,-113.31 859.13,-96.78 810.29,-85.02"/>
<polygon fill="#63b8ff" stroke="#63b8ff" points="971.86,-127.5 982.4,-126.44 973.5,-120.69 971.86,-127.5"/>
</a>
</g>
</g>
</g>
</svg>

<g id="navigator" transform="translate(0 0)" fill="#404254">
  <rect fill="#f2f5e9" fill-opacity="0.5" stroke="#606060" stroke-width=".5" x="0" y="0" width="60" height="60"/>
  <use id="zoomplus" xlink:href="#zoomPlus" x="17" y="9" onmousedown="handleZoom(evt,'in')"/>
  <use id="zoomminus" xlink:href="#zoomMin" x="42" y="9" onmousedown="handleZoom(evt,'out')"/>
  <use id="reset" xlink:href="#resetDef" x="30" y="36" onmousedown="handleReset()"/>
   <use id="arrowup" xlink:href="#arrowUp" x="0" y="0" onmousedown="handlePan(0,-1)"/>
  <use id="arrowright" xlink:href="#arrowRight" x="0" y="0" onmousedown="handlePan(1,0)"/>
  <use id="arrowdown" xlink:href="#arrowDown" x="0" y="0" onmousedown="handlePan(0,1)"/>
  <use id="arrowleft" xlink:href="#arrowLeft" x="0" y="0" onmousedown="handlePan(-1,0)"/>
</g>
<svg viewBox="0 0 15 15" width="100%" height="30px" preserveAspectRatio="xMaxYMin meet">
 <g id="arrow_out" transform="scale(0.3 0.3)">
  <a xlink:href="shm__table_8h__dep__incl_org.svg" target="_base">
   <rect id="button" ry="5" rx="5" y="6" x="6" height="38" width="38"
        fill="#f2f5e9" fill-opacity="0.5" stroke="#606060" stroke-width="1.0"/>
   <path id="arrow"
     d="M 11.500037,31.436501 C 11.940474,20.09759 22.043105,11.32322 32.158766,21.979434 L 37.068811,17.246167 C 37.068811,17.246167 37.088388,32 37.088388,32 L 22.160133,31.978069 C 22.160133,31.978069 26.997745,27.140456 26.997745,27.140456 C 18.528582,18.264221 13.291696,25.230495 11.500037,31.436501 z"
     style="fill:#404040;"/>
  </a>
 </g>
</svg>

<style type='text/css'>
<![CDATA[
[data-mouse-over-selected='false'] { opacity: 0.7; }
[data-mouse-over-selected='true']  { opacity: 1.0; }
]]>
</style>
<script type="application/ecmascript"><![CDATA[
document.addEventListener('DOMContentLoaded', (event) => {
  highlightEdges();
  highlightAdjacentNodes();
});
]]></script>
</svg>
