<?xml version="1.0" encoding="UTF-8" standalone="no"?>
<!DOCTYPE svg PUBLIC "-//W3C//DTD SVG 1.1//EN"
 "http://www.w3.org/Graphics/SVG/1.1/DTD/svg11.dtd">
<!-- Generated by graphviz version 2.43.0 (0)
 -->
<!-- Title: examples/simd_simulation.cpp Pages: 1 -->
<!--zoomable 302 -->

<svg id="main" version="1.1" xmlns="http://www.w3.org/2000/svg" xmlns:xlink="http://www.w3.org/1999/xlink" xml:space="preserve" onload="init(evt)">
<style type="text/css"><![CDATA[
.node, .edge {opacity: 0.7;}
.node.selected, .edge.selected {opacity: 1;}
.edge:hover path { stroke: red; }
.edge:hover polygon { stroke: red; fill: red; }
]]></style>

<defs>
  <circle id="rim" cx="0" cy="0" r="7"/>
  <circle id="rim2" cx="0" cy="0" r="3.5"/>
  <g id="zoomPlus">
    <use xlink:href="#rim" fill="#404040"><set attributeName="fill" to="#808080" begin="zoomplus.mouseover" end="zoomplus.mouseout"/></use>
    <path d="M-4,0h8M0,-4v8" fill="none" stroke="white" stroke-width="1.5" pointer-events="none"/>
  </g>
  <g id="zoomMin">
    <use xlink:href="#rim" fill="#404040"><set attributeName="fill" to="#808080" begin="zoomminus.mouseover" end="zoomminus.mouseout"/></use>
    <path d="M-4,0h8" fill="none" stroke="white" stroke-width="1.5" pointer-events="none"/>
  </g>
  <g id="arrowUp" transform="translate(30 24)">
    <use xlink:href="#rim"/>
    <path pointer-events="none" fill="none" stroke="white" stroke-width="1.5" d="M0,-3.0v7 M-2.5,-0.5L0,-3.0L2.5,-0.5"/>
  </g>
  <g id="arrowRight" transform="rotate(90) translate(36 -43)">
    <use xlink:href="#rim"/>
    <path pointer-events="none" fill="none" stroke="white" stroke-width="1.5" d="M0,-3.0v7 M-2.5,-0.5L0,-3.0L2.5,-0.5"/>
  </g>
  <g id="arrowDown" transform="rotate(180) translate(-30 -48)">
    <use xlink:href="#rim"/>
    <path pointer-events="none" fill="none" stroke="white" stroke-width="1.5" d="M0,-3.0v7 M-2.5,-0.5L0,-3.0L2.5,-0.5"/>
  </g>
  <g id="arrowLeft" transform="rotate(270) translate(-36 17)">
    <use xlink:href="#rim"/>
    <path pointer-events="none" fill="none" stroke="white" stroke-width="1.5" d="M0,-3.0v7 M-2.5,-0.5L0,-3.0L2.5,-0.5"/>
  </g>
  <g id="resetDef">
    <use xlink:href="#rim2" fill="#404040"><set attributeName="fill" to="#808080" begin="reset.mouseover" end="reset.mouseout"/></use>
  </g>
</defs>
<script type="application/ecmascript">
var viewWidth = 1195;
var viewHeight = 302;
var sectionId = 'dynsection-0';
</script>
<script type="application/ecmascript" xlink:href="svg.min.js"/>
<svg id="graph" class="graph">
<g id="viewport">
<title>examples/simd_simulation.cpp</title>
<!-- Node1 -->
<g id="Node000001" class="node">
<title>Node1</title>
<g id="a_Node000001"><a xlink:title="Example of SIMD&#45;optimized particle simulation using shared memory.">
<polygon fill="#999999" stroke="#666666" points="754.26,-294 585.26,-294 585.26,-275 754.26,-275 754.26,-294"/>
<text text-anchor="middle" x="669.76" y="-282" font-family="Helvetica,sans-Serif" font-size="10.00">examples/simd_simulation.cpp</text>
</a>
</g>
</g>
<!-- Node2 -->
<g id="Node000002" class="node">
<title>Node2</title>
<g id="a_Node000002"><a xlink:title=" ">
<polygon fill="#e0e0e0" stroke="#999999" points="483.76,-239 423.76,-239 423.76,-220 483.76,-220 483.76,-239"/>
<text text-anchor="middle" x="453.76" y="-227" font-family="Helvetica,sans-Serif" font-size="10.00">iostream</text>
</a>
</g>
</g>
<!-- Node1&#45;&gt;Node2 -->
<g id="edge1_Node000001_Node000002" class="edge">
<title>Node1&#45;&gt;Node2</title>
<g id="a_edge1_Node000001_Node000002"><a xlink:title=" ">
<path fill="none" stroke="#63b8ff" d="M635.05,-274.98C596.47,-265.52 534.24,-250.25 493.67,-240.29"/>
<polygon fill="#63b8ff" stroke="#63b8ff" points="494.39,-236.87 483.85,-237.88 492.73,-243.67 494.39,-236.87"/>
</a>
</g>
</g>
<!-- Node3 -->
<g id="Node000003" class="node">
<title>Node3</title>
<g id="a_Node000003"><a xlink:title=" ">
<polygon fill="#e0e0e0" stroke="#999999" points="551.76,-239 501.76,-239 501.76,-220 551.76,-220 551.76,-239"/>
<text text-anchor="middle" x="526.76" y="-227" font-family="Helvetica,sans-Serif" font-size="10.00">chrono</text>
</a>
</g>
</g>
<!-- Node1&#45;&gt;Node3 -->
<g id="edge2_Node000001_Node000003" class="edge">
<title>Node1&#45;&gt;Node3</title>
<g id="a_edge2_Node000001_Node000003"><a xlink:title=" ">
<path fill="none" stroke="#63b8ff" d="M646.78,-274.98C623.26,-266.27 586.47,-252.63 559.82,-242.75"/>
<polygon fill="#63b8ff" stroke="#63b8ff" points="560.75,-239.36 550.15,-239.17 558.31,-245.93 560.75,-239.36"/>
</a>
</g>
</g>
<!-- Node4 -->
<g id="Node000004" class="node">
<title>Node4</title>
<g id="a_Node000004"><a xlink:title=" ">
<polygon fill="#e0e0e0" stroke="#999999" points="623.76,-239 569.76,-239 569.76,-220 623.76,-220 623.76,-239"/>
<text text-anchor="middle" x="596.76" y="-227" font-family="Helvetica,sans-Serif" font-size="10.00">random</text>
</a>
</g>
</g>
<!-- Node1&#45;&gt;Node4 -->
<g id="edge3_Node000001_Node000004" class="edge">
<title>Node1&#45;&gt;Node4</title>
<g id="a_edge3_Node000001_Node000004"><a xlink:title=" ">
<path fill="none" stroke="#63b8ff" d="M658.03,-274.98C647.03,-267 630.34,-254.88 617.15,-245.31"/>
<polygon fill="#63b8ff" stroke="#63b8ff" points="618.85,-242.21 608.7,-239.17 614.74,-247.88 618.85,-242.21"/>
</a>
</g>
</g>
<!-- Node5 -->
<g id="Node000005" class="node">
<title>Node5</title>
<g id="a_Node000005"><a xlink:title=" ">
<polygon fill="#e0e0e0" stroke="#999999" points="697.76,-239 641.76,-239 641.76,-220 697.76,-220 697.76,-239"/>
<text text-anchor="middle" x="669.76" y="-227" font-family="Helvetica,sans-Serif" font-size="10.00">iomanip</text>
</a>
</g>
</g>
<!-- Node1&#45;&gt;Node5 -->
<g id="edge4_Node000001_Node000005" class="edge">
<title>Node1&#45;&gt;Node5</title>
<g id="a_edge4_Node000001_Node000005"><a xlink:title=" ">
<path fill="none" stroke="#63b8ff" d="M669.76,-274.75C669.76,-267.8 669.76,-257.85 669.76,-249.13"/>
<polygon fill="#63b8ff" stroke="#63b8ff" points="673.26,-249.09 669.76,-239.09 666.26,-249.09 673.26,-249.09"/>
</a>
</g>
</g>
<!-- Node6 -->
<g id="Node000006" class="node">
<title>Node6</title>
<g id="a_Node000006"><a xlink:href="posix__shm_8h.html" target="_top" xlink:title="Core POSIX shared memory management with automatic reference counting.">
<polygon fill="white" stroke="#666666" points="394.76,-129 316.76,-129 316.76,-110 394.76,-110 394.76,-129"/>
<text text-anchor="middle" x="355.76" y="-117" font-family="Helvetica,sans-Serif" font-size="10.00">posix_shm.h</text>
</a>
</g>
</g>
<!-- Node1&#45;&gt;Node6 -->
<g id="edge5_Node000001_Node000006" class="edge">
<title>Node1&#45;&gt;Node6</title>
<g id="a_edge5_Node000001_Node000006"><a xlink:title=" ">
<path fill="none" stroke="#63b8ff" d="M681.27,-274.88C696.69,-262.27 720.61,-238.32 706.76,-220 670.25,-171.7 492.51,-140.05 404.85,-127.12"/>
<polygon fill="#63b8ff" stroke="#63b8ff" points="405.27,-123.64 394.88,-125.67 404.27,-130.57 405.27,-123.64"/>
</a>
</g>
</g>
<!-- Node22 -->
<g id="Node000022" class="node">
<title>Node22</title>
<g id="a_Node000022"><a xlink:href="shm__array_8h.html" target="_top" xlink:title="Fixed&#45;size shared memory array with STL compatibility.">
<polygon fill="white" stroke="#666666" points="829.76,-184 753.76,-184 753.76,-165 829.76,-165 829.76,-184"/>
<text text-anchor="middle" x="791.76" y="-172" font-family="Helvetica,sans-Serif" font-size="10.00">shm_array.h</text>
</a>
</g>
</g>
<!-- Node1&#45;&gt;Node22 -->
<g id="edge23_Node000001_Node000022" class="edge">
<title>Node1&#45;&gt;Node22</title>
<g id="a_edge23_Node000001_Node000022"><a xlink:title=" ">
<path fill="none" stroke="#63b8ff" d="M686.34,-274.94C701.21,-266.83 723.17,-253.71 739.76,-239 755.52,-225.02 770.43,-206 780.2,-192.43"/>
<polygon fill="#63b8ff" stroke="#63b8ff" points="783.22,-194.23 786.1,-184.04 777.49,-190.21 783.22,-194.23"/>
</a>
</g>
</g>
<!-- Node28 -->
<g id="Node000028" class="node">
<title>Node28</title>
<g id="a_Node000028"><a xlink:href="shm__simd__utils_8h.html" target="_top" xlink:title="SIMD&#45;optimized utilities for simulation workloads.">
<polygon fill="white" stroke="#666666" points="1078.76,-239 976.76,-239 976.76,-220 1078.76,-220 1078.76,-239"/>
<text text-anchor="middle" x="1027.76" y="-227" font-family="Helvetica,sans-Serif" font-size="10.00">shm_simd_utils.h</text>
</a>
</g>
</g>
<!-- Node1&#45;&gt;Node28 -->
<g id="edge34_Node000001_Node000028" class="edge">
<title>Node1&#45;&gt;Node28</title>
<g id="a_edge34_Node000001_Node000028"><a xlink:title=" ">
<path fill="none" stroke="#63b8ff" d="M727.28,-274.98C792.8,-265.28 899.43,-249.5 966.48,-239.57"/>
<polygon fill="#63b8ff" stroke="#63b8ff" points="967.1,-243.02 976.48,-238.09 966.07,-236.09 967.1,-243.02"/>
</a>
</g>
</g>
<!-- Node7 -->
<g id="Node000007" class="node">
<title>Node7</title>
<g id="a_Node000007"><a xlink:title=" ">
<polygon fill="#e0e0e0" stroke="#999999" points="354.76,-19 310.76,-19 310.76,0 354.76,0 354.76,-19"/>
<text text-anchor="middle" x="332.76" y="-7" font-family="Helvetica,sans-Serif" font-size="10.00">string</text>
</a>
</g>
</g>
<!-- Node6&#45;&gt;Node7 -->
<g id="edge6_Node000006_Node000007" class="edge">
<title>Node6&#45;&gt;Node7</title>
<g id="a_edge6_Node000006_Node000007"><a xlink:title=" ">
<path fill="none" stroke="#63b8ff" d="M316.36,-114C270.25,-107.84 198.11,-95.06 181.76,-74 148.73,-31.46 247.2,-17.11 300.69,-12.52"/>
<polygon fill="#63b8ff" stroke="#63b8ff" points="301.04,-16 310.73,-11.73 300.49,-9.03 301.04,-16"/>
</a>
</g>
</g>
<!-- Node8 -->
<g id="Node000008" class="node">
<title>Node8</title>
<g id="a_Node000008"><a xlink:title=" ">
<polygon fill="#e0e0e0" stroke="#999999" points="574.26,-74 509.26,-74 509.26,-55 574.26,-55 574.26,-74"/>
<text text-anchor="middle" x="541.76" y="-62" font-family="Helvetica,sans-Serif" font-size="10.00">stdexcept</text>
</a>
</g>
</g>
<!-- Node6&#45;&gt;Node8 -->
<g id="edge7_Node000006_Node000008" class="edge">
<title>Node6&#45;&gt;Node8</title>
<g id="a_edge7_Node000006_Node000008"><a xlink:title=" ">
<path fill="none" stroke="#63b8ff" d="M385.64,-109.98C417.14,-101.01 466.93,-86.82 501.79,-76.89"/>
<polygon fill="#63b8ff" stroke="#63b8ff" points="502.98,-80.19 511.64,-74.08 501.06,-73.46 502.98,-80.19"/>
</a>
</g>
</g>
<!-- Node9 -->
<g id="Node000009" class="node">
<title>Node9</title>
<g id="a_Node000009"><a xlink:title=" ">
<polygon fill="#e0e0e0" stroke="#999999" points="268.26,-74 191.26,-74 191.26,-55 268.26,-55 268.26,-74"/>
<text text-anchor="middle" x="229.76" y="-62" font-family="Helvetica,sans-Serif" font-size="10.00">sys/mman.h</text>
</a>
</g>
</g>
<!-- Node6&#45;&gt;Node9 -->
<g id="edge8_Node000006_Node000009" class="edge">
<title>Node6&#45;&gt;Node9</title>
<g id="a_edge8_Node000006_Node000009"><a xlink:title=" ">
<path fill="none" stroke="#63b8ff" d="M335.51,-109.98C315.06,-101.38 283.23,-87.99 259.83,-78.15"/>
<polygon fill="#63b8ff" stroke="#63b8ff" points="260.95,-74.82 250.37,-74.17 258.23,-81.27 260.95,-74.82"/>
</a>
</g>
</g>
<!-- Node10 -->
<g id="Node000010" class="node">
<title>Node10</title>
<g id="a_Node000010"><a xlink:title=" ">
<polygon fill="#e0e0e0" stroke="#999999" points="350.76,-74 286.76,-74 286.76,-55 350.76,-55 350.76,-74"/>
<text text-anchor="middle" x="318.76" y="-62" font-family="Helvetica,sans-Serif" font-size="10.00">sys/stat.h</text>
</a>
</g>
</g>
<!-- Node6&#45;&gt;Node10 -->
<g id="edge9_Node000006_Node000010" class="edge">
<title>Node6&#45;&gt;Node10</title>
<g id="a_edge9_Node000006_Node000010"><a xlink:title=" ">
<path fill="none" stroke="#63b8ff" d="M349.65,-109.75C344.48,-102.34 336.91,-91.5 330.56,-82.41"/>
<polygon fill="#63b8ff" stroke="#63b8ff" points="333.35,-80.29 324.75,-74.09 327.61,-84.29 333.35,-80.29"/>
</a>
</g>
</g>
<!-- Node11 -->
<g id="Node000011" class="node">
<title>Node11</title>
<g id="a_Node000011"><a xlink:title=" ">
<polygon fill="#e0e0e0" stroke="#999999" points="416.26,-74 369.26,-74 369.26,-55 416.26,-55 416.26,-74"/>
<text text-anchor="middle" x="392.76" y="-62" font-family="Helvetica,sans-Serif" font-size="10.00">fcntl.h</text>
</a>
</g>
</g>
<!-- Node6&#45;&gt;Node11 -->
<g id="edge10_Node000006_Node000011" class="edge">
<title>Node6&#45;&gt;Node11</title>
<g id="a_edge10_Node000006_Node000011"><a xlink:title=" ">
<path fill="none" stroke="#63b8ff" d="M361.87,-109.75C367.04,-102.34 374.6,-91.5 380.95,-82.41"/>
<polygon fill="#63b8ff" stroke="#63b8ff" points="383.91,-84.29 386.76,-74.09 378.17,-80.29 383.91,-84.29"/>
</a>
</g>
</g>
<!-- Node12 -->
<g id="Node000012" class="node">
<title>Node12</title>
<g id="a_Node000012"><a xlink:title=" ">
<polygon fill="#e0e0e0" stroke="#999999" points="490.76,-74 434.76,-74 434.76,-55 490.76,-55 490.76,-74"/>
<text text-anchor="middle" x="462.76" y="-62" font-family="Helvetica,sans-Serif" font-size="10.00">unistd.h</text>
</a>
</g>
</g>
<!-- Node6&#45;&gt;Node12 -->
<g id="edge11_Node000006_Node000012" class="edge">
<title>Node6&#45;&gt;Node12</title>
<g id="a_edge11_Node000006_Node000012"><a xlink:title=" ">
<path fill="none" stroke="#63b8ff" d="M372.95,-109.98C390.01,-101.54 416.39,-88.47 436.15,-78.68"/>
<polygon fill="#63b8ff" stroke="#63b8ff" points="437.85,-81.75 445.25,-74.17 434.74,-75.47 437.85,-81.75"/>
</a>
</g>
</g>
<!-- Node13 -->
<g id="Node000013" class="node">
<title>Node13</title>
<g id="a_Node000013"><a xlink:title=" ">
<polygon fill="#e0e0e0" stroke="#999999" points="239.76,-19 189.76,-19 189.76,0 239.76,0 239.76,-19"/>
<text text-anchor="middle" x="214.76" y="-7" font-family="Helvetica,sans-Serif" font-size="10.00">cstring</text>
</a>
</g>
</g>
<!-- Node6&#45;&gt;Node13 -->
<g id="edge12_Node000006_Node000013" class="edge">
<title>Node6&#45;&gt;Node13</title>
<g id="a_edge12_Node000006_Node000013"><a xlink:title=" ">
<path fill="none" stroke="#63b8ff" d="M316.53,-116.33C230.19,-111.14 29.78,-96.77 9.76,-74 -38.69,-18.92 108.65,-11 179.27,-10.28"/>
<polygon fill="#63b8ff" stroke="#63b8ff" points="179.52,-13.78 189.5,-10.22 179.48,-6.78 179.52,-13.78"/>
</a>
</g>
</g>
<!-- Node14 -->
<g id="Node000014" class="node">
<title>Node14</title>
<g id="a_Node000014"><a xlink:title=" ">
<polygon fill="#e0e0e0" stroke="#999999" points="68.76,-74 18.76,-74 18.76,-55 68.76,-55 68.76,-74"/>
<text text-anchor="middle" x="43.76" y="-62" font-family="Helvetica,sans-Serif" font-size="10.00">atomic</text>
</a>
</g>
</g>
<!-- Node6&#45;&gt;Node14 -->
<g id="edge13_Node000006_Node000014" class="edge">
<title>Node6&#45;&gt;Node14</title>
<g id="a_edge13_Node000006_Node000014"><a xlink:title=" ">
<path fill="none" stroke="#63b8ff" d="M316.43,-113.29C264.3,-106.16 169.26,-92.31 78.82,-74.07"/>
<polygon fill="#63b8ff" stroke="#63b8ff" points="79.45,-70.62 68.95,-72.06 78.05,-77.48 79.45,-70.62"/>
</a>
</g>
</g>
<!-- Node15 -->
<g id="Node000015" class="node">
<title>Node15</title>
<g id="a_Node000015"><a xlink:title=" ">
<polygon fill="#e0e0e0" stroke="#999999" points="134.26,-74 87.26,-74 87.26,-55 134.26,-55 134.26,-74"/>
<text text-anchor="middle" x="110.76" y="-62" font-family="Helvetica,sans-Serif" font-size="10.00">cerrno</text>
</a>
</g>
</g>
<!-- Node6&#45;&gt;Node15 -->
<g id="edge14_Node000006_Node000015" class="edge">
<title>Node6&#45;&gt;Node15</title>
<g id="a_edge14_Node000006_Node000015"><a xlink:title=" ">
<path fill="none" stroke="#63b8ff" d="M316.44,-110.15C274.78,-101.28 207.1,-86.8 148.76,-74 147.31,-73.68 145.84,-73.36 144.35,-73.03"/>
<polygon fill="#63b8ff" stroke="#63b8ff" points="144.99,-69.59 134.47,-70.84 143.47,-76.42 144.99,-69.59"/>
</a>
</g>
</g>
<!-- Node16 -->
<g id="Node000016" class="node">
<title>Node16</title>
<g id="a_Node000016"><a xlink:href="shm__table_8h.html" target="_top" xlink:title=" ">
<polygon fill="white" stroke="#666666" points="669.26,-74 592.26,-74 592.26,-55 669.26,-55 669.26,-74"/>
<text text-anchor="middle" x="630.76" y="-62" font-family="Helvetica,sans-Serif" font-size="10.00">shm_table.h</text>
</a>
</g>
</g>
<!-- Node6&#45;&gt;Node16 -->
<g id="edge15_Node000006_Node000016" class="edge">
<title>Node6&#45;&gt;Node16</title>
<g id="a_edge15_Node000006_Node000016"><a xlink:title=" ">
<path fill="none" stroke="#63b8ff" d="M394.87,-110.96C444.18,-101.46 528.96,-85.12 582.32,-74.84"/>
<polygon fill="#63b8ff" stroke="#63b8ff" points="583.07,-78.26 592.23,-72.93 581.75,-71.38 583.07,-78.26"/>
</a>
</g>
</g>
<!-- Node16&#45;&gt;Node7 -->
<g id="edge17_Node000016_Node000007" class="edge">
<title>Node16&#45;&gt;Node7</title>
<g id="a_edge17_Node000016_Node000007"><a xlink:title=" ">
<path fill="none" stroke="#63b8ff" d="M592.11,-56.63C532.63,-46.05 419.79,-25.98 364.67,-16.18"/>
<polygon fill="#63b8ff" stroke="#63b8ff" points="365.22,-12.72 354.76,-14.41 363.99,-19.61 365.22,-12.72"/>
</a>
</g>
</g>
<!-- Node16&#45;&gt;Node13 -->
<g id="edge19_Node000016_Node000013" class="edge">
<title>Node16&#45;&gt;Node13</title>
<g id="a_edge19_Node000016_Node000013"><a xlink:title=" ">
<path fill="none" stroke="#63b8ff" d="M592.02,-56.45C588.89,-55.94 585.77,-55.45 582.76,-55 460.96,-36.87 315.64,-20.98 250.01,-14.11"/>
<polygon fill="#63b8ff" stroke="#63b8ff" points="250.12,-10.6 239.81,-13.05 249.39,-17.57 250.12,-10.6"/>
</a>
</g>
</g>
<!-- Node17 -->
<g id="Node000017" class="node">
<title>Node17</title>
<g id="a_Node000017"><a xlink:title=" ">
<polygon fill="#e0e0e0" stroke="#999999" points="1082.26,-19 1029.26,-19 1029.26,0 1082.26,0 1082.26,-19"/>
<text text-anchor="middle" x="1055.76" y="-7" font-family="Helvetica,sans-Serif" font-size="10.00">cstddef</text>
</a>
</g>
</g>
<!-- Node16&#45;&gt;Node17 -->
<g id="edge16_Node000016_Node000017" class="edge">
<title>Node16&#45;&gt;Node17</title>
<g id="a_edge16_Node000016_Node000017"><a xlink:title=" ">
<path fill="none" stroke="#63b8ff" d="M669.45,-56.3C672.26,-55.84 675.05,-55.4 677.76,-55 816.72,-34.49 852.35,-36.25 991.76,-19 1000.55,-17.91 1010.02,-16.69 1018.91,-15.51"/>
<polygon fill="#63b8ff" stroke="#63b8ff" points="1019.54,-18.96 1028.99,-14.16 1018.62,-12.02 1019.54,-18.96"/>
</a>
</g>
</g>
<!-- Node18 -->
<g id="Node000018" class="node">
<title>Node18</title>
<g id="a_Node000018"><a xlink:title=" ">
<polygon fill="#e0e0e0" stroke="#999999" points="602.76,-19 560.76,-19 560.76,0 602.76,0 602.76,-19"/>
<text text-anchor="middle" x="581.76" y="-7" font-family="Helvetica,sans-Serif" font-size="10.00">array</text>
</a>
</g>
</g>
<!-- Node16&#45;&gt;Node18 -->
<g id="edge18_Node000016_Node000018" class="edge">
<title>Node16&#45;&gt;Node18</title>
<g id="a_edge18_Node000016_Node000018"><a xlink:title=" ">
<path fill="none" stroke="#63b8ff" d="M622.67,-54.75C615.6,-47.11 605.17,-35.82 596.61,-26.56"/>
<polygon fill="#63b8ff" stroke="#63b8ff" points="599.06,-24.06 589.7,-19.09 593.92,-28.81 599.06,-24.06"/>
</a>
</g>
</g>
<!-- Node19 -->
<g id="Node000019" class="node">
<title>Node19</title>
<g id="a_Node000019"><a xlink:title=" ">
<polygon fill="#e0e0e0" stroke="#999999" points="676.76,-19 620.76,-19 620.76,0 676.76,0 676.76,-19"/>
<text text-anchor="middle" x="648.76" y="-7" font-family="Helvetica,sans-Serif" font-size="10.00">optional</text>
</a>
</g>
</g>
<!-- Node16&#45;&gt;Node19 -->
<g id="edge20_Node000016_Node000019" class="edge">
<title>Node16&#45;&gt;Node19</title>
<g id="a_edge20_Node000016_Node000019"><a xlink:title=" ">
<path fill="none" stroke="#63b8ff" d="M633.73,-54.75C636.12,-47.72 639.55,-37.62 642.53,-28.84"/>
<polygon fill="#63b8ff" stroke="#63b8ff" points="645.94,-29.68 645.84,-19.09 639.31,-27.43 645.94,-29.68"/>
</a>
</g>
</g>
<!-- Node20 -->
<g id="Node000020" class="node">
<title>Node20</title>
<g id="a_Node000020"><a xlink:title=" ">
<polygon fill="#e0e0e0" stroke="#999999" points="982.76,-19 918.76,-19 918.76,0 982.76,0 982.76,-19"/>
<text text-anchor="middle" x="950.76" y="-7" font-family="Helvetica,sans-Serif" font-size="10.00">algorithm</text>
</a>
</g>
</g>
<!-- Node16&#45;&gt;Node20 -->
<g id="edge21_Node000016_Node000020" class="edge">
<title>Node16&#45;&gt;Node20</title>
<g id="a_edge21_Node000016_Node000020"><a xlink:title=" ">
<path fill="none" stroke="#63b8ff" d="M669.48,-56.44C672.28,-55.95 675.06,-55.46 677.76,-55 759.18,-41 854.45,-25.72 908.19,-17.2"/>
<polygon fill="#63b8ff" stroke="#63b8ff" points="909.04,-20.61 918.37,-15.59 907.95,-13.7 909.04,-20.61"/>
</a>
</g>
</g>
<!-- Node21 -->
<g id="Node000021" class="node">
<title>Node21</title>
<g id="a_Node000021"><a xlink:title=" ">
<polygon fill="#e0e0e0" stroke="#999999" points="786.26,-19 713.26,-19 713.26,0 786.26,0 786.26,-19"/>
<text text-anchor="middle" x="749.76" y="-7" font-family="Helvetica,sans-Serif" font-size="10.00">string_view</text>
</a>
</g>
</g>
<!-- Node16&#45;&gt;Node21 -->
<g id="edge22_Node000016_Node000021" class="edge">
<title>Node16&#45;&gt;Node21</title>
<g id="a_edge22_Node000016_Node000021"><a xlink:title=" ">
<path fill="none" stroke="#63b8ff" d="M649.88,-54.98C669.11,-46.42 698.99,-33.11 721.07,-23.28"/>
<polygon fill="#63b8ff" stroke="#63b8ff" points="722.58,-26.44 730.29,-19.17 719.73,-20.04 722.58,-26.44"/>
</a>
</g>
</g>
<!-- Node22&#45;&gt;Node6 -->
<g id="edge24_Node000022_Node000006" class="edge">
<title>Node22&#45;&gt;Node6</title>
<g id="a_edge24_Node000022_Node000006"><a xlink:title=" ">
<path fill="none" stroke="#63b8ff" d="M753.73,-167.07C749.03,-166.34 744.29,-165.63 739.76,-165 619.86,-148.26 478.28,-133.02 405.1,-125.47"/>
<polygon fill="#63b8ff" stroke="#63b8ff" points="405.11,-121.96 394.81,-124.42 404.4,-128.92 405.11,-121.96"/>
</a>
</g>
</g>
<!-- Node22&#45;&gt;Node8 -->
<g id="edge28_Node000022_Node000008" class="edge">
<title>Node22&#45;&gt;Node8</title>
<g id="a_edge28_Node000022_Node000008"><a xlink:title=" ">
<path fill="none" stroke="#63b8ff" d="M753.74,-166.33C721.17,-159.35 673.51,-147.13 634.76,-129 606.76,-115.9 577.87,-94.76 559.87,-80.5"/>
<polygon fill="#63b8ff" stroke="#63b8ff" points="561.94,-77.68 551.96,-74.13 557.55,-83.13 561.94,-77.68"/>
</a>
</g>
</g>
<!-- Node22&#45;&gt;Node16 -->
<g id="edge27_Node000022_Node000016" class="edge">
<title>Node22&#45;&gt;Node16</title>
<g id="a_edge27_Node000022_Node000016"><a xlink:title=" ">
<path fill="none" stroke="#63b8ff" d="M753.64,-165.78C716.77,-157.59 664.37,-143.8 649.76,-129 638.02,-117.11 633.49,-98.28 631.76,-84.21"/>
<polygon fill="#63b8ff" stroke="#63b8ff" points="635.24,-83.83 630.89,-74.17 628.27,-84.43 635.24,-83.83"/>
</a>
</g>
</g>
<!-- Node22&#45;&gt;Node20 -->
<g id="edge29_Node000022_Node000020" class="edge">
<title>Node22&#45;&gt;Node20</title>
<g id="a_edge29_Node000022_Node000020"><a xlink:title=" ">
<path fill="none" stroke="#63b8ff" d="M829.78,-171.98C861.85,-168.55 906.46,-158.37 931.76,-129 955.81,-101.07 955.7,-55.15 953.33,-29.45"/>
<polygon fill="#63b8ff" stroke="#63b8ff" points="956.77,-28.73 952.16,-19.2 949.81,-29.53 956.77,-28.73"/>
</a>
</g>
</g>
<!-- Node22&#45;&gt;Node21 -->
<g id="edge32_Node000022_Node000021" class="edge">
<title>Node22&#45;&gt;Node21</title>
<g id="a_edge32_Node000022_Node000021"><a xlink:title=" ">
<path fill="none" stroke="#63b8ff" d="M789.77,-164.68C783.8,-138.12 766.27,-60.38 764.76,-55 762.3,-46.27 759.15,-36.72 756.36,-28.72"/>
<polygon fill="#63b8ff" stroke="#63b8ff" points="759.66,-27.54 753.01,-19.28 753.06,-29.88 759.66,-27.54"/>
</a>
</g>
</g>
<!-- Node23 -->
<g id="Node000023" class="node">
<title>Node23</title>
<g id="a_Node000023"><a xlink:href="shm__span_8h.html" target="_top" xlink:title=" ">
<polygon fill="white" stroke="#666666" points="734.26,-129 659.26,-129 659.26,-110 734.26,-110 734.26,-129"/>
<text text-anchor="middle" x="696.76" y="-117" font-family="Helvetica,sans-Serif" font-size="10.00">shm_span.h</text>
</a>
</g>
</g>
<!-- Node22&#45;&gt;Node23 -->
<g id="edge25_Node000022_Node000023" class="edge">
<title>Node22&#45;&gt;Node23</title>
<g id="a_edge25_Node000022_Node000023"><a xlink:title=" ">
<path fill="none" stroke="#63b8ff" d="M776.5,-164.98C761.63,-156.69 738.78,-143.94 721.34,-134.22"/>
<polygon fill="#63b8ff" stroke="#63b8ff" points="722.74,-130.99 712.3,-129.17 719.33,-137.1 722.74,-130.99"/>
</a>
</g>
</g>
<!-- Node25 -->
<g id="Node000025" class="node">
<title>Node25</title>
<g id="a_Node000025"><a xlink:title=" ">
<polygon fill="#e0e0e0" stroke="#999999" points="850.76,-129 790.76,-129 790.76,-110 850.76,-110 850.76,-129"/>
<text text-anchor="middle" x="820.76" y="-117" font-family="Helvetica,sans-Serif" font-size="10.00">concepts</text>
</a>
</g>
</g>
<!-- Node22&#45;&gt;Node25 -->
<g id="edge30_Node000022_Node000025" class="edge">
<title>Node22&#45;&gt;Node25</title>
<g id="a_edge30_Node000022_Node000025"><a xlink:title=" ">
<path fill="none" stroke="#63b8ff" d="M796.55,-164.75C800.52,-157.49 806.28,-146.95 811.19,-137.98"/>
<polygon fill="#63b8ff" stroke="#63b8ff" points="814.33,-139.54 816.06,-129.09 808.19,-136.18 814.33,-139.54"/>
</a>
</g>
</g>
<!-- Node26 -->
<g id="Node000026" class="node">
<title>Node26</title>
<g id="a_Node000026"><a xlink:title=" ">
<polygon fill="#e0e0e0" stroke="#999999" points="1018.76,-129 978.76,-129 978.76,-110 1018.76,-110 1018.76,-129"/>
<text text-anchor="middle" x="998.76" y="-117" font-family="Helvetica,sans-Serif" font-size="10.00">span</text>
</a>
</g>
</g>
<!-- Node22&#45;&gt;Node26 -->
<g id="edge31_Node000022_Node000026" class="edge">
<title>Node22&#45;&gt;Node26</title>
<g id="a_edge31_Node000022_Node000026"><a xlink:title=" ">
<path fill="none" stroke="#63b8ff" d="M825.02,-164.98C864.71,-154.82 930.51,-137.97 968.73,-128.19"/>
<polygon fill="#63b8ff" stroke="#63b8ff" points="969.91,-131.5 978.73,-125.63 968.17,-124.72 969.91,-131.5"/>
</a>
</g>
</g>
<!-- Node27 -->
<g id="Node000027" class="node">
<title>Node27</title>
<g id="a_Node000027"><a xlink:title=" ">
<polygon fill="#e0e0e0" stroke="#999999" points="922.26,-129 869.26,-129 869.26,-110 922.26,-110 922.26,-129"/>
<text text-anchor="middle" x="895.76" y="-117" font-family="Helvetica,sans-Serif" font-size="10.00">iterator</text>
</a>
</g>
</g>
<!-- Node22&#45;&gt;Node27 -->
<g id="edge33_Node000022_Node000027" class="edge">
<title>Node22&#45;&gt;Node27</title>
<g id="a_edge33_Node000022_Node000027"><a xlink:title=" ">
<path fill="none" stroke="#63b8ff" d="M808.47,-164.98C824.97,-156.57 850.46,-143.59 869.64,-133.81"/>
<polygon fill="#63b8ff" stroke="#63b8ff" points="871.42,-136.83 878.75,-129.17 868.25,-130.59 871.42,-136.83"/>
</a>
</g>
</g>
<!-- Node24 -->
<g id="Node000024" class="node">
<title>Node24</title>
<g id="a_Node000024"><a xlink:title=" ">
<polygon fill="#e0e0e0" stroke="#999999" points="756.26,-74 687.26,-74 687.26,-55 756.26,-55 756.26,-74"/>
<text text-anchor="middle" x="721.76" y="-62" font-family="Helvetica,sans-Serif" font-size="10.00">type_traits</text>
</a>
</g>
</g>
<!-- Node23&#45;&gt;Node24 -->
<g id="edge26_Node000023_Node000024" class="edge">
<title>Node23&#45;&gt;Node24</title>
<g id="a_edge26_Node000023_Node000024"><a xlink:title=" ">
<path fill="none" stroke="#63b8ff" d="M700.89,-109.75C704.27,-102.57 709.17,-92.18 713.38,-83.27"/>
<polygon fill="#63b8ff" stroke="#63b8ff" points="716.61,-84.63 717.71,-74.09 710.28,-81.64 716.61,-84.63"/>
</a>
</g>
</g>
<!-- Node28&#45;&gt;Node17 -->
<g id="edge36_Node000028_Node000017" class="edge">
<title>Node28&#45;&gt;Node17</title>
<g id="a_edge36_Node000028_Node000017"><a xlink:title=" ">
<path fill="none" stroke="#63b8ff" d="M1036.78,-219.96C1044.83,-211.66 1056.05,-198.25 1060.76,-184 1078.6,-129.99 1067.41,-61.31 1060.31,-28.95"/>
<polygon fill="#63b8ff" stroke="#63b8ff" points="1063.69,-28.05 1058.02,-19.1 1056.87,-29.63 1063.69,-28.05"/>
</a>
</g>
</g>
<!-- Node28&#45;&gt;Node20 -->
<g id="edge38_Node000028_Node000020" class="edge">
<title>Node28&#45;&gt;Node20</title>
<g id="a_edge38_Node000028_Node000020"><a xlink:title=" ">
<path fill="none" stroke="#63b8ff" d="M1029.61,-219.86C1033.5,-199.87 1041.13,-149.13 1027.76,-110 1016.02,-75.64 987.05,-43.94 968.19,-25.94"/>
<polygon fill="#63b8ff" stroke="#63b8ff" points="970.51,-23.33 960.8,-19.1 965.76,-28.46 970.51,-23.33"/>
</a>
</g>
</g>
<!-- Node28&#45;&gt;Node22 -->
<g id="edge39_Node000028_Node000022" class="edge">
<title>Node28&#45;&gt;Node22</title>
<g id="a_edge39_Node000028_Node000022"><a xlink:title=" ">
<path fill="none" stroke="#63b8ff" d="M989.84,-219.98C949.1,-210.84 884.26,-196.27 839.94,-186.32"/>
<polygon fill="#63b8ff" stroke="#63b8ff" points="840.5,-182.86 829.97,-184.08 838.96,-189.69 840.5,-182.86"/>
</a>
</g>
</g>
<!-- Node28&#45;&gt;Node26 -->
<g id="edge37_Node000028_Node000026" class="edge">
<title>Node28&#45;&gt;Node26</title>
<g id="a_edge37_Node000028_Node000026"><a xlink:title=" ">
<path fill="none" stroke="#63b8ff" d="M1025.39,-219.66C1020.67,-202.09 1010.02,-162.45 1003.71,-138.95"/>
<polygon fill="#63b8ff" stroke="#63b8ff" points="1007.06,-137.91 1001.08,-129.16 1000.3,-139.72 1007.06,-137.91"/>
</a>
</g>
</g>
<!-- Node29 -->
<g id="Node000029" class="node">
<title>Node29</title>
<g id="a_Node000029"><a xlink:title=" ">
<polygon fill="#e0e0e0" stroke="#999999" points="1186.76,-184 1112.76,-184 1112.76,-165 1186.76,-165 1186.76,-184"/>
<text text-anchor="middle" x="1149.76" y="-172" font-family="Helvetica,sans-Serif" font-size="10.00">immintrin.h</text>
</a>
</g>
</g>
<!-- Node28&#45;&gt;Node29 -->
<g id="edge35_Node000028_Node000029" class="edge">
<title>Node28&#45;&gt;Node29</title>
<g id="a_edge35_Node000028_Node000029"><a xlink:title=" ">
<path fill="none" stroke="#63b8ff" d="M1047.36,-219.98C1067.07,-211.42 1097.71,-198.11 1120.34,-188.28"/>
<polygon fill="#63b8ff" stroke="#63b8ff" points="1122.02,-191.37 1129.8,-184.17 1119.23,-184.94 1122.02,-191.37"/>
</a>
</g>
</g>
</g>
</svg>

<g id="navigator" transform="translate(0 0)" fill="#404254">
  <rect fill="#f2f5e9" fill-opacity="0.5" stroke="#606060" stroke-width=".5" x="0" y="0" width="60" height="60"/>
  <use id="zoomplus" xlink:href="#zoomPlus" x="17" y="9" onmousedown="handleZoom(evt,'in')"/>
  <use id="zoomminus" xlink:href="#zoomMin" x="42" y="9" onmousedown="handleZoom(evt,'out')"/>
  <use id="reset" xlink:href="#resetDef" x="30" y="36" onmousedown="handleReset()"/>
   <use id="arrowup" xlink:href="#arrowUp" x="0" y="0" onmousedown="handlePan(0,-1)"/>
  <use id="arrowright" xlink:href="#arrowRight" x="0" y="0" onmousedown="handlePan(1,0)"/>
  <use id="arrowdown" xlink:href="#arrowDown" x="0" y="0" onmousedown="handlePan(0,1)"/>
  <use id="arrowleft" xlink:href="#arrowLeft" x="0" y="0" onmousedown="handlePan(-1,0)"/>
</g>
<svg viewBox="0 0 15 15" width="100%" height="30px" preserveAspectRatio="xMaxYMin meet">
 <g id="arrow_out" transform="scale(0.3 0.3)">
  <a xlink:href="simd__simulation_8cpp__incl_org.svg" target="_base">
   <rect id="button" ry="5" rx="5" y="6" x="6" height="38" width="38"
        fill="#f2f5e9" fill-opacity="0.5" stroke="#606060" stroke-width="1.0"/>
   <path id="arrow"
     d="M 11.500037,31.436501 C 11.940474,20.09759 22.043105,11.32322 32.158766,21.979434 L 37.068811,17.246167 C 37.068811,17.246167 37.088388,32 37.088388,32 L 22.160133,31.978069 C 22.160133,31.978069 26.997745,27.140456 26.997745,27.140456 C 18.528582,18.264221 13.291696,25.230495 11.500037,31.436501 z"
     style="fill:#404040;"/>
  </a>
 </g>
</svg>

<style type='text/css'>
<![CDATA[
[data-mouse-over-selected='false'] { opacity: 0.7; }
[data-mouse-over-selected='true']  { opacity: 1.0; }
]]>
</style>
<script type="application/ecmascript"><![CDATA[
document.addEventListener('DOMContentLoaded', (event) => {
  highlightEdges();
  highlightAdjacentNodes();
});
]]></script>
</svg>
