<?xml version="1.0" encoding="UTF-8" standalone="no"?>
<!DOCTYPE svg PUBLIC "-//W3C//DTD SVG 1.1//EN"
 "http://www.w3.org/Graphics/SVG/1.1/DTD/svg11.dtd">
<!-- Generated by graphviz version 2.43.0 (0)
 -->
<!-- Title: examples/simulation_patterns.cpp Pages: 1 -->
<svg width="1201pt" height="258pt"
 viewBox="0.00 0.00 1200.50 258.00" xmlns="http://www.w3.org/2000/svg" xmlns:xlink="http://www.w3.org/1999/xlink">
<g id="graph0" class="graph" transform="scale(1 1) rotate(0) translate(4 254)">
<title>examples/simulation_patterns.cpp</title>
<!-- Node1 -->
<g id="Node000001" class="node">
<title>Node1</title>
<g id="a_Node000001"><a xlink:title=" ">
<polygon fill="#999999" stroke="#666666" points="397.5,-250 278.5,-250 278.5,-220 397.5,-220 397.5,-250"/>
<text text-anchor="start" x="286.5" y="-238" font-family="Helvetica,sans-Serif" font-size="10.00">examples/simulation</text>
<text text-anchor="middle" x="338" y="-227" font-family="Helvetica,sans-Serif" font-size="10.00">_patterns.cpp</text>
</a>
</g>
</g>
<!-- Node2 -->
<g id="Node000002" class="node">
<title>Node2</title>
<g id="a_Node000002"><a xlink:title=" ">
<polygon fill="#e0e0e0" stroke="#999999" points="60,-184 0,-184 0,-165 60,-165 60,-184"/>
<text text-anchor="middle" x="30" y="-172" font-family="Helvetica,sans-Serif" font-size="10.00">iostream</text>
</a>
</g>
</g>
<!-- Node1&#45;&gt;Node2 -->
<g id="edge1_Node000001_Node000002" class="edge">
<title>Node1&#45;&gt;Node2</title>
<g id="a_edge1_Node000001_Node000002"><a xlink:title=" ">
<path fill="none" stroke="#63b8ff" d="M278.33,-223.45C225.99,-214.08 147.58,-199.73 70.14,-184.18"/>
<polygon fill="#63b8ff" stroke="#63b8ff" points="70.71,-180.73 60.21,-182.18 69.33,-187.59 70.71,-180.73"/>
</a>
</g>
</g>
<!-- Node3 -->
<g id="Node000003" class="node">
<title>Node3</title>
<g id="a_Node000003"><a xlink:title=" ">
<polygon fill="#e0e0e0" stroke="#999999" points="132,-184 78,-184 78,-165 132,-165 132,-184"/>
<text text-anchor="middle" x="105" y="-172" font-family="Helvetica,sans-Serif" font-size="10.00">random</text>
</a>
</g>
</g>
<!-- Node1&#45;&gt;Node3 -->
<g id="edge2_Node000001_Node000003" class="edge">
<title>Node1&#45;&gt;Node3</title>
<g id="a_edge2_Node000001_Node000003"><a xlink:title=" ">
<path fill="none" stroke="#63b8ff" d="M282.19,-219.99C238.87,-209.11 180.02,-194.34 142.27,-184.86"/>
<polygon fill="#63b8ff" stroke="#63b8ff" points="142.76,-181.37 132.21,-182.33 141.06,-188.16 142.76,-181.37"/>
</a>
</g>
</g>
<!-- Node4 -->
<g id="Node000004" class="node">
<title>Node4</title>
<g id="a_Node000004"><a xlink:title=" ">
<polygon fill="#e0e0e0" stroke="#999999" points="200,-184 150,-184 150,-165 200,-165 200,-184"/>
<text text-anchor="middle" x="175" y="-172" font-family="Helvetica,sans-Serif" font-size="10.00">chrono</text>
</a>
</g>
</g>
<!-- Node1&#45;&gt;Node4 -->
<g id="edge3_Node000001_Node000004" class="edge">
<title>Node1&#45;&gt;Node4</title>
<g id="a_edge3_Node000001_Node000004"><a xlink:title=" ">
<path fill="none" stroke="#63b8ff" d="M298.96,-219.99C271.4,-210.1 234.85,-196.98 208.59,-187.56"/>
<polygon fill="#63b8ff" stroke="#63b8ff" points="209.67,-184.22 199.07,-184.14 207.3,-190.81 209.67,-184.22"/>
</a>
</g>
</g>
<!-- Node5 -->
<g id="Node000005" class="node">
<title>Node5</title>
<g id="a_Node000005"><a xlink:title=" ">
<polygon fill="#e0e0e0" stroke="#999999" points="266,-184 218,-184 218,-165 266,-165 266,-184"/>
<text text-anchor="middle" x="242" y="-172" font-family="Helvetica,sans-Serif" font-size="10.00">thread</text>
</a>
</g>
</g>
<!-- Node1&#45;&gt;Node5 -->
<g id="edge4_Node000001_Node000005" class="edge">
<title>Node1&#45;&gt;Node5</title>
<g id="a_edge4_Node000001_Node000005"><a xlink:title=" ">
<path fill="none" stroke="#63b8ff" d="M314.76,-219.84C299.6,-210.6 279.89,-198.59 264.81,-189.4"/>
<polygon fill="#63b8ff" stroke="#63b8ff" points="266.46,-186.31 256.1,-184.09 262.82,-192.29 266.46,-186.31"/>
</a>
</g>
</g>
<!-- Node6 -->
<g id="Node000006" class="node">
<title>Node6</title>
<g id="a_Node000006"><a xlink:href="posix__shm_8h.html" target="_top" xlink:title="Core POSIX shared memory management with automatic reference counting.">
<polygon fill="white" stroke="#666666" points="634,-129 556,-129 556,-110 634,-110 634,-129"/>
<text text-anchor="middle" x="595" y="-117" font-family="Helvetica,sans-Serif" font-size="10.00">posix_shm.h</text>
</a>
</g>
</g>
<!-- Node1&#45;&gt;Node6 -->
<g id="edge5_Node000001_Node000006" class="edge">
<title>Node1&#45;&gt;Node6</title>
<g id="a_edge5_Node000001_Node000006"><a xlink:title=" ">
<path fill="none" stroke="#63b8ff" d="M397.67,-225.06C435.25,-217.73 483.88,-205.03 523,-184 545.58,-171.86 567.02,-151.38 580.53,-136.97"/>
<polygon fill="#63b8ff" stroke="#63b8ff" points="583.38,-139.05 587.53,-129.3 578.21,-134.33 583.38,-139.05"/>
</a>
</g>
</g>
<!-- Node22 -->
<g id="Node000022" class="node">
<title>Node22</title>
<g id="a_Node000022"><a xlink:href="shm__object__pool_8h.html" target="_top" xlink:title=" ">
<polygon fill="white" stroke="#666666" points="392,-184 284,-184 284,-165 392,-165 392,-184"/>
<text text-anchor="middle" x="338" y="-172" font-family="Helvetica,sans-Serif" font-size="10.00">shm_object_pool.h</text>
</a>
</g>
</g>
<!-- Node1&#45;&gt;Node22 -->
<g id="edge23_Node000001_Node000022" class="edge">
<title>Node1&#45;&gt;Node22</title>
<g id="a_edge23_Node000001_Node000022"><a xlink:title=" ">
<path fill="none" stroke="#63b8ff" d="M338,-219.84C338,-212.21 338,-202.7 338,-194.45"/>
<polygon fill="#63b8ff" stroke="#63b8ff" points="341.5,-194.27 338,-184.27 334.5,-194.27 341.5,-194.27"/>
</a>
</g>
</g>
<!-- Node25 -->
<g id="Node000025" class="node">
<title>Node25</title>
<g id="a_Node000025"><a xlink:href="shm__ring__buffer_8h.html" target="_top" xlink:title=" ">
<polygon fill="white" stroke="#666666" points="514,-184 410,-184 410,-165 514,-165 514,-184"/>
<text text-anchor="middle" x="462" y="-172" font-family="Helvetica,sans-Serif" font-size="10.00">shm_ring_buffer.h</text>
</a>
</g>
</g>
<!-- Node1&#45;&gt;Node25 -->
<g id="edge30_Node000001_Node000025" class="edge">
<title>Node1&#45;&gt;Node25</title>
<g id="a_edge30_Node000001_Node000025"><a xlink:title=" ">
<path fill="none" stroke="#63b8ff" d="M367.7,-219.99C388.02,-210.4 414.76,-197.79 434.58,-188.44"/>
<polygon fill="#63b8ff" stroke="#63b8ff" points="436.14,-191.57 443.69,-184.14 433.15,-185.24 436.14,-191.57"/>
</a>
</g>
</g>
<!-- Node26 -->
<g id="Node000026" class="node">
<title>Node26</title>
<g id="a_Node000026"><a xlink:href="shm__atomic_8h.html" target="_top" xlink:title=" ">
<polygon fill="white" stroke="#666666" points="656,-184 570,-184 570,-165 656,-165 656,-184"/>
<text text-anchor="middle" x="613" y="-172" font-family="Helvetica,sans-Serif" font-size="10.00">shm_atomic.h</text>
</a>
</g>
</g>
<!-- Node1&#45;&gt;Node26 -->
<g id="edge36_Node000001_Node000026" class="edge">
<title>Node1&#45;&gt;Node26</title>
<g id="a_edge36_Node000001_Node000026"><a xlink:title=" ">
<path fill="none" stroke="#63b8ff" d="M397.67,-221.31C447.12,-210.79 516.59,-196.01 563.12,-186.11"/>
<polygon fill="#63b8ff" stroke="#63b8ff" points="563.92,-189.52 572.98,-184.01 562.47,-182.67 563.92,-189.52"/>
</a>
</g>
</g>
<!-- Node28 -->
<g id="Node000028" class="node">
<title>Node28</title>
<g id="a_Node000028"><a xlink:href="shm__array_8h.html" target="_top" xlink:title="Fixed&#45;size shared memory array with STL compatibility.">
<polygon fill="white" stroke="#666666" points="960,-184 884,-184 884,-165 960,-165 960,-184"/>
<text text-anchor="middle" x="922" y="-172" font-family="Helvetica,sans-Serif" font-size="10.00">shm_array.h</text>
</a>
</g>
</g>
<!-- Node1&#45;&gt;Node28 -->
<g id="edge42_Node000001_Node000028" class="edge">
<title>Node1&#45;&gt;Node28</title>
<g id="a_edge42_Node000001_Node000028"><a xlink:title=" ">
<path fill="none" stroke="#63b8ff" d="M397.75,-228.01C513.81,-216.39 767.59,-190.97 873.78,-180.33"/>
<polygon fill="#63b8ff" stroke="#63b8ff" points="874.28,-183.8 883.88,-179.32 873.59,-176.83 874.28,-183.8"/>
</a>
</g>
</g>
<!-- Node7 -->
<g id="Node000007" class="node">
<title>Node7</title>
<g id="a_Node000007"><a xlink:title=" ">
<polygon fill="#e0e0e0" stroke="#999999" points="687,-19 643,-19 643,0 687,0 687,-19"/>
<text text-anchor="middle" x="665" y="-7" font-family="Helvetica,sans-Serif" font-size="10.00">string</text>
</a>
</g>
</g>
<!-- Node6&#45;&gt;Node7 -->
<g id="edge6_Node000006_Node000007" class="edge">
<title>Node6&#45;&gt;Node7</title>
<g id="a_edge6_Node000006_Node000007"><a xlink:title=" ">
<path fill="none" stroke="#63b8ff" d="M634.16,-115.2C661.49,-110.61 696.15,-99.74 714,-74 726.07,-56.6 706.5,-37.46 688.62,-24.79"/>
<polygon fill="#63b8ff" stroke="#63b8ff" points="690.39,-21.76 680.13,-19.12 686.51,-27.58 690.39,-21.76"/>
</a>
</g>
</g>
<!-- Node8 -->
<g id="Node000008" class="node">
<title>Node8</title>
<g id="a_Node000008"><a xlink:title=" ">
<polygon fill="#e0e0e0" stroke="#999999" points="943.5,-74 878.5,-74 878.5,-55 943.5,-55 943.5,-74"/>
<text text-anchor="middle" x="911" y="-62" font-family="Helvetica,sans-Serif" font-size="10.00">stdexcept</text>
</a>
</g>
</g>
<!-- Node6&#45;&gt;Node8 -->
<g id="edge7_Node000006_Node000008" class="edge">
<title>Node6&#45;&gt;Node8</title>
<g id="a_edge7_Node000006_Node000008"><a xlink:title=" ">
<path fill="none" stroke="#63b8ff" d="M634.1,-112.64C685.42,-104.83 778.52,-90.31 868.38,-74.05"/>
<polygon fill="#63b8ff" stroke="#63b8ff" points="869.25,-77.45 878.46,-72.21 868,-70.56 869.25,-77.45"/>
</a>
</g>
</g>
<!-- Node9 -->
<g id="Node000009" class="node">
<title>Node9</title>
<g id="a_Node000009"><a xlink:title=" ">
<polygon fill="#e0e0e0" stroke="#999999" points="860.5,-74 783.5,-74 783.5,-55 860.5,-55 860.5,-74"/>
<text text-anchor="middle" x="822" y="-62" font-family="Helvetica,sans-Serif" font-size="10.00">sys/mman.h</text>
</a>
</g>
</g>
<!-- Node6&#45;&gt;Node9 -->
<g id="edge8_Node000006_Node000009" class="edge">
<title>Node6&#45;&gt;Node9</title>
<g id="a_edge8_Node000006_Node000009"><a xlink:title=" ">
<path fill="none" stroke="#63b8ff" d="M631.47,-109.98C670.57,-100.86 732.77,-86.33 775.39,-76.38"/>
<polygon fill="#63b8ff" stroke="#63b8ff" points="776.3,-79.76 785.24,-74.08 774.71,-72.95 776.3,-79.76"/>
</a>
</g>
</g>
<!-- Node10 -->
<g id="Node000010" class="node">
<title>Node10</title>
<g id="a_Node000010"><a xlink:title=" ">
<polygon fill="#e0e0e0" stroke="#999999" points="483,-74 419,-74 419,-55 483,-55 483,-74"/>
<text text-anchor="middle" x="451" y="-62" font-family="Helvetica,sans-Serif" font-size="10.00">sys/stat.h</text>
</a>
</g>
</g>
<!-- Node6&#45;&gt;Node10 -->
<g id="edge9_Node000006_Node000010" class="edge">
<title>Node6&#45;&gt;Node10</title>
<g id="a_edge9_Node000006_Node000010"><a xlink:title=" ">
<path fill="none" stroke="#63b8ff" d="M571.86,-109.98C548.18,-101.27 511.13,-87.63 484.29,-77.75"/>
<polygon fill="#63b8ff" stroke="#63b8ff" points="485.15,-74.34 474.56,-74.17 482.73,-80.91 485.15,-74.34"/>
</a>
</g>
</g>
<!-- Node11 -->
<g id="Node000011" class="node">
<title>Node11</title>
<g id="a_Node000011"><a xlink:title=" ">
<polygon fill="#e0e0e0" stroke="#999999" points="548.5,-74 501.5,-74 501.5,-55 548.5,-55 548.5,-74"/>
<text text-anchor="middle" x="525" y="-62" font-family="Helvetica,sans-Serif" font-size="10.00">fcntl.h</text>
</a>
</g>
</g>
<!-- Node6&#45;&gt;Node11 -->
<g id="edge10_Node000006_Node000011" class="edge">
<title>Node6&#45;&gt;Node11</title>
<g id="a_edge10_Node000006_Node000011"><a xlink:title=" ">
<path fill="none" stroke="#63b8ff" d="M583.75,-109.98C573.2,-102 557.2,-89.88 544.56,-80.31"/>
<polygon fill="#63b8ff" stroke="#63b8ff" points="546.54,-77.42 536.45,-74.17 542.31,-83 546.54,-77.42"/>
</a>
</g>
</g>
<!-- Node12 -->
<g id="Node000012" class="node">
<title>Node12</title>
<g id="a_Node000012"><a xlink:title=" ">
<polygon fill="#e0e0e0" stroke="#999999" points="623,-74 567,-74 567,-55 623,-55 623,-74"/>
<text text-anchor="middle" x="595" y="-62" font-family="Helvetica,sans-Serif" font-size="10.00">unistd.h</text>
</a>
</g>
</g>
<!-- Node6&#45;&gt;Node12 -->
<g id="edge11_Node000006_Node000012" class="edge">
<title>Node6&#45;&gt;Node12</title>
<g id="a_edge11_Node000006_Node000012"><a xlink:title=" ">
<path fill="none" stroke="#63b8ff" d="M595,-109.75C595,-102.8 595,-92.85 595,-84.13"/>
<polygon fill="#63b8ff" stroke="#63b8ff" points="598.5,-84.09 595,-74.09 591.5,-84.09 598.5,-84.09"/>
</a>
</g>
</g>
<!-- Node13 -->
<g id="Node000013" class="node">
<title>Node13</title>
<g id="a_Node000013"><a xlink:title=" ">
<polygon fill="#e0e0e0" stroke="#999999" points="580,-19 530,-19 530,0 580,0 580,-19"/>
<text text-anchor="middle" x="555" y="-7" font-family="Helvetica,sans-Serif" font-size="10.00">cstring</text>
</a>
</g>
</g>
<!-- Node6&#45;&gt;Node13 -->
<g id="edge12_Node000006_Node000013" class="edge">
<title>Node6&#45;&gt;Node13</title>
<g id="a_edge12_Node000006_Node000013"><a xlink:title=" ">
<path fill="none" stroke="#63b8ff" d="M634.25,-110.12C670.85,-100.43 717.01,-82.23 697,-55 684.28,-37.68 628.12,-24.08 590.36,-16.68"/>
<polygon fill="#63b8ff" stroke="#63b8ff" points="590.72,-13.18 580.25,-14.76 589.42,-20.06 590.72,-13.18"/>
</a>
</g>
</g>
<!-- Node14 -->
<g id="Node000014" class="node">
<title>Node14</title>
<g id="a_Node000014"><a xlink:title=" ">
<polygon fill="#e0e0e0" stroke="#999999" points="305,-74 255,-74 255,-55 305,-55 305,-74"/>
<text text-anchor="middle" x="280" y="-62" font-family="Helvetica,sans-Serif" font-size="10.00">atomic</text>
</a>
</g>
</g>
<!-- Node6&#45;&gt;Node14 -->
<g id="edge13_Node000006_Node000014" class="edge">
<title>Node6&#45;&gt;Node14</title>
<g id="a_edge13_Node000006_Node000014"><a xlink:title=" ">
<path fill="none" stroke="#63b8ff" d="M555.71,-113.39C503.12,-106.3 406.75,-92.47 315.18,-74.09"/>
<polygon fill="#63b8ff" stroke="#63b8ff" points="315.69,-70.62 305.19,-72.06 314.3,-77.48 315.69,-70.62"/>
</a>
</g>
</g>
<!-- Node15 -->
<g id="Node000015" class="node">
<title>Node15</title>
<g id="a_Node000015"><a xlink:title=" ">
<polygon fill="#e0e0e0" stroke="#999999" points="688.5,-74 641.5,-74 641.5,-55 688.5,-55 688.5,-74"/>
<text text-anchor="middle" x="665" y="-62" font-family="Helvetica,sans-Serif" font-size="10.00">cerrno</text>
</a>
</g>
</g>
<!-- Node6&#45;&gt;Node15 -->
<g id="edge14_Node000006_Node000015" class="edge">
<title>Node6&#45;&gt;Node15</title>
<g id="a_edge14_Node000006_Node000015"><a xlink:title=" ">
<path fill="none" stroke="#63b8ff" d="M606.25,-109.98C616.8,-102 632.8,-89.88 645.44,-80.31"/>
<polygon fill="#63b8ff" stroke="#63b8ff" points="647.69,-83 653.55,-74.17 643.46,-77.42 647.69,-83"/>
</a>
</g>
</g>
<!-- Node16 -->
<g id="Node000016" class="node">
<title>Node16</title>
<g id="a_Node000016"><a xlink:href="shm__table_8h.html" target="_top" xlink:title=" ">
<polygon fill="white" stroke="#666666" points="400.5,-74 323.5,-74 323.5,-55 400.5,-55 400.5,-74"/>
<text text-anchor="middle" x="362" y="-62" font-family="Helvetica,sans-Serif" font-size="10.00">shm_table.h</text>
</a>
</g>
</g>
<!-- Node6&#45;&gt;Node16 -->
<g id="edge15_Node000006_Node000016" class="edge">
<title>Node6&#45;&gt;Node16</title>
<g id="a_edge15_Node000006_Node000016"><a xlink:title=" ">
<path fill="none" stroke="#63b8ff" d="M557.56,-109.98C517.35,-100.84 453.32,-86.27 409.56,-76.32"/>
<polygon fill="#63b8ff" stroke="#63b8ff" points="410.26,-72.89 399.73,-74.08 408.7,-79.71 410.26,-72.89"/>
</a>
</g>
</g>
<!-- Node16&#45;&gt;Node7 -->
<g id="edge17_Node000016_Node000007" class="edge">
<title>Node16&#45;&gt;Node7</title>
<g id="a_edge17_Node000016_Node000007"><a xlink:title=" ">
<path fill="none" stroke="#63b8ff" d="M400.51,-56.67C403.72,-56.11 406.92,-55.54 410,-55 490.2,-40.9 584.63,-24.47 632.96,-16.07"/>
<polygon fill="#63b8ff" stroke="#63b8ff" points="633.57,-19.51 642.83,-14.35 632.37,-12.61 633.57,-19.51"/>
</a>
</g>
</g>
<!-- Node16&#45;&gt;Node13 -->
<g id="edge19_Node000016_Node000013" class="edge">
<title>Node16&#45;&gt;Node13</title>
<g id="a_edge19_Node000016_Node000013"><a xlink:title=" ">
<path fill="none" stroke="#63b8ff" d="M393.01,-54.98C427.78,-45.44 484.03,-29.99 520.26,-20.04"/>
<polygon fill="#63b8ff" stroke="#63b8ff" points="521.19,-23.41 529.91,-17.39 519.34,-16.66 521.19,-23.41"/>
</a>
</g>
</g>
<!-- Node17 -->
<g id="Node000017" class="node">
<title>Node17</title>
<g id="a_Node000017"><a xlink:title=" ">
<polygon fill="#e0e0e0" stroke="#999999" points="465.5,-19 412.5,-19 412.5,0 465.5,0 465.5,-19"/>
<text text-anchor="middle" x="439" y="-7" font-family="Helvetica,sans-Serif" font-size="10.00">cstddef</text>
</a>
</g>
</g>
<!-- Node16&#45;&gt;Node17 -->
<g id="edge16_Node000016_Node000017" class="edge">
<title>Node16&#45;&gt;Node17</title>
<g id="a_edge16_Node000016_Node000017"><a xlink:title=" ">
<path fill="none" stroke="#63b8ff" d="M374.37,-54.98C386.09,-46.92 403.92,-34.65 417.89,-25.03"/>
<polygon fill="#63b8ff" stroke="#63b8ff" points="420.15,-27.72 426.4,-19.17 416.18,-21.96 420.15,-27.72"/>
</a>
</g>
</g>
<!-- Node18 -->
<g id="Node000018" class="node">
<title>Node18</title>
<g id="a_Node000018"><a xlink:title=" ">
<polygon fill="#e0e0e0" stroke="#999999" points="312,-19 270,-19 270,0 312,0 312,-19"/>
<text text-anchor="middle" x="291" y="-7" font-family="Helvetica,sans-Serif" font-size="10.00">array</text>
</a>
</g>
</g>
<!-- Node16&#45;&gt;Node18 -->
<g id="edge18_Node000016_Node000018" class="edge">
<title>Node16&#45;&gt;Node18</title>
<g id="a_edge18_Node000016_Node000018"><a xlink:title=" ">
<path fill="none" stroke="#63b8ff" d="M350.59,-54.98C339.89,-47 323.66,-34.88 310.84,-25.31"/>
<polygon fill="#63b8ff" stroke="#63b8ff" points="312.72,-22.35 302.61,-19.17 308.53,-27.96 312.72,-22.35"/>
</a>
</g>
</g>
<!-- Node19 -->
<g id="Node000019" class="node">
<title>Node19</title>
<g id="a_Node000019"><a xlink:title=" ">
<polygon fill="#e0e0e0" stroke="#999999" points="218,-19 162,-19 162,0 218,0 218,-19"/>
<text text-anchor="middle" x="190" y="-7" font-family="Helvetica,sans-Serif" font-size="10.00">optional</text>
</a>
</g>
</g>
<!-- Node16&#45;&gt;Node19 -->
<g id="edge20_Node000016_Node000019" class="edge">
<title>Node16&#45;&gt;Node19</title>
<g id="a_edge20_Node000016_Node000019"><a xlink:title=" ">
<path fill="none" stroke="#63b8ff" d="M334.37,-54.98C305.49,-46.09 259.99,-32.07 227.8,-22.15"/>
<polygon fill="#63b8ff" stroke="#63b8ff" points="228.44,-18.68 217.85,-19.08 226.38,-25.37 228.44,-18.68"/>
</a>
</g>
</g>
<!-- Node20 -->
<g id="Node000020" class="node">
<title>Node20</title>
<g id="a_Node000020"><a xlink:title=" ">
<polygon fill="#e0e0e0" stroke="#999999" points="394,-19 330,-19 330,0 394,0 394,-19"/>
<text text-anchor="middle" x="362" y="-7" font-family="Helvetica,sans-Serif" font-size="10.00">algorithm</text>
</a>
</g>
</g>
<!-- Node16&#45;&gt;Node20 -->
<g id="edge21_Node000016_Node000020" class="edge">
<title>Node16&#45;&gt;Node20</title>
<g id="a_edge21_Node000016_Node000020"><a xlink:title=" ">
<path fill="none" stroke="#63b8ff" d="M362,-54.75C362,-47.8 362,-37.85 362,-29.13"/>
<polygon fill="#63b8ff" stroke="#63b8ff" points="365.5,-29.09 362,-19.09 358.5,-29.09 365.5,-29.09"/>
</a>
</g>
</g>
<!-- Node21 -->
<g id="Node000021" class="node">
<title>Node21</title>
<g id="a_Node000021"><a xlink:title=" ">
<polygon fill="#e0e0e0" stroke="#999999" points="1008.5,-19 935.5,-19 935.5,0 1008.5,0 1008.5,-19"/>
<text text-anchor="middle" x="972" y="-7" font-family="Helvetica,sans-Serif" font-size="10.00">string_view</text>
</a>
</g>
</g>
<!-- Node16&#45;&gt;Node21 -->
<g id="edge22_Node000016_Node000021" class="edge">
<title>Node16&#45;&gt;Node21</title>
<g id="a_edge22_Node000016_Node000021"><a xlink:title=" ">
<path fill="none" stroke="#63b8ff" d="M400.72,-56.31C403.86,-55.83 406.98,-55.39 410,-55 600.39,-30.66 828.87,-17.5 925.37,-12.67"/>
<polygon fill="#63b8ff" stroke="#63b8ff" points="925.57,-16.17 935.38,-12.18 925.22,-9.17 925.57,-16.17"/>
</a>
</g>
</g>
<!-- Node22&#45;&gt;Node6 -->
<g id="edge24_Node000022_Node000006" class="edge">
<title>Node22&#45;&gt;Node6</title>
<g id="a_edge24_Node000022_Node000006"><a xlink:title=" ">
<path fill="none" stroke="#63b8ff" d="M379.29,-164.98C424.73,-155.61 497.71,-140.56 546,-130.6"/>
<polygon fill="#63b8ff" stroke="#63b8ff" points="546.83,-134.01 555.92,-128.56 545.42,-127.15 546.83,-134.01"/>
</a>
</g>
</g>
<!-- Node22&#45;&gt;Node14 -->
<g id="edge26_Node000022_Node000014" class="edge">
<title>Node22&#45;&gt;Node14</title>
<g id="a_edge26_Node000022_Node000014"><a xlink:title=" ">
<path fill="none" stroke="#63b8ff" d="M330.15,-164.83C322.66,-156.23 311.46,-142.43 304,-129 295.95,-114.51 289.51,-96.78 285.33,-83.74"/>
<polygon fill="#63b8ff" stroke="#63b8ff" points="288.64,-82.6 282.37,-74.06 281.95,-84.65 288.64,-82.6"/>
</a>
</g>
</g>
<!-- Node22&#45;&gt;Node16 -->
<g id="edge25_Node000022_Node000016" class="edge">
<title>Node22&#45;&gt;Node16</title>
<g id="a_edge25_Node000022_Node000016"><a xlink:title=" ">
<path fill="none" stroke="#63b8ff" d="M339.96,-164.66C343.87,-147.09 352.68,-107.45 357.9,-83.95"/>
<polygon fill="#63b8ff" stroke="#63b8ff" points="361.32,-84.68 360.08,-74.16 354.49,-83.16 361.32,-84.68"/>
</a>
</g>
</g>
<!-- Node22&#45;&gt;Node19 -->
<g id="edge27_Node000022_Node000019" class="edge">
<title>Node22&#45;&gt;Node19</title>
<g id="a_edge27_Node000022_Node000019"><a xlink:title=" ">
<path fill="none" stroke="#63b8ff" d="M294.32,-164.94C246.6,-155.14 175.83,-139.14 168,-129 145.09,-99.32 165.04,-53.12 179.06,-28.08"/>
<polygon fill="#63b8ff" stroke="#63b8ff" points="182.17,-29.7 184.22,-19.31 176.14,-26.15 182.17,-29.7"/>
</a>
</g>
</g>
<!-- Node23 -->
<g id="Node000023" class="node">
<title>Node23</title>
<g id="a_Node000023"><a xlink:title=" ">
<polygon fill="#e0e0e0" stroke="#999999" points="424,-129 384,-129 384,-110 424,-110 424,-129"/>
<text text-anchor="middle" x="404" y="-117" font-family="Helvetica,sans-Serif" font-size="10.00">span</text>
</a>
</g>
</g>
<!-- Node22&#45;&gt;Node23 -->
<g id="edge28_Node000022_Node000023" class="edge">
<title>Node22&#45;&gt;Node23</title>
<g id="a_edge28_Node000022_Node000023"><a xlink:title=" ">
<path fill="none" stroke="#63b8ff" d="M348.6,-164.98C358.46,-157.07 373.35,-145.11 385.22,-135.58"/>
<polygon fill="#63b8ff" stroke="#63b8ff" points="387.6,-138.16 393.2,-129.17 383.21,-132.7 387.6,-138.16"/>
</a>
</g>
</g>
<!-- Node24 -->
<g id="Node000024" class="node">
<title>Node24</title>
<g id="a_Node000024"><a xlink:title=" ">
<polygon fill="#e0e0e0" stroke="#999999" points="206.5,-129 177.5,-129 177.5,-110 206.5,-110 206.5,-129"/>
<text text-anchor="middle" x="192" y="-117" font-family="Helvetica,sans-Serif" font-size="10.00">bit</text>
</a>
</g>
</g>
<!-- Node22&#45;&gt;Node24 -->
<g id="edge29_Node000022_Node000024" class="edge">
<title>Node22&#45;&gt;Node24</title>
<g id="a_edge29_Node000022_Node000024"><a xlink:title=" ">
<path fill="none" stroke="#63b8ff" d="M314.54,-164.98C287.52,-155.18 243.36,-139.15 216.08,-129.24"/>
<polygon fill="#63b8ff" stroke="#63b8ff" points="217.12,-125.9 206.53,-125.77 214.73,-132.48 217.12,-125.9"/>
</a>
</g>
</g>
<!-- Node25&#45;&gt;Node6 -->
<g id="edge31_Node000025_Node000006" class="edge">
<title>Node25&#45;&gt;Node6</title>
<g id="a_edge31_Node000025_Node000006"><a xlink:title=" ">
<path fill="none" stroke="#63b8ff" d="M483.37,-164.98C505.15,-156.3 539.16,-142.75 563.92,-132.88"/>
<polygon fill="#63b8ff" stroke="#63b8ff" points="565.25,-136.12 573.24,-129.17 562.66,-129.62 565.25,-136.12"/>
</a>
</g>
</g>
<!-- Node25&#45;&gt;Node14 -->
<g id="edge33_Node000025_Node000014" class="edge">
<title>Node25&#45;&gt;Node14</title>
<g id="a_edge33_Node000025_Node000014"><a xlink:title=" ">
<path fill="none" stroke="#63b8ff" d="M443.67,-164.9C425.84,-156.34 398.11,-142.57 375,-129 348.42,-113.39 319.1,-93.33 300.17,-79.98"/>
<polygon fill="#63b8ff" stroke="#63b8ff" points="302.19,-77.12 292.01,-74.19 298.13,-82.83 302.19,-77.12"/>
</a>
</g>
</g>
<!-- Node25&#45;&gt;Node16 -->
<g id="edge32_Node000025_Node000016" class="edge">
<title>Node25&#45;&gt;Node16</title>
<g id="a_edge32_Node000025_Node000016"><a xlink:title=" ">
<path fill="none" stroke="#63b8ff" d="M459.78,-164.81C456.06,-151.68 447.54,-126.59 433,-110 421.55,-96.93 405.33,-86.37 391.28,-78.82"/>
<polygon fill="#63b8ff" stroke="#63b8ff" points="392.49,-75.51 381.99,-74.09 389.31,-81.75 392.49,-75.51"/>
</a>
</g>
</g>
<!-- Node25&#45;&gt;Node20 -->
<g id="edge35_Node000025_Node000020" class="edge">
<title>Node25&#45;&gt;Node20</title>
<g id="a_edge35_Node000025_Node000020"><a xlink:title=" ">
<path fill="none" stroke="#63b8ff" d="M409.59,-166.51C357.13,-156.34 279.54,-131.87 246,-74 241.77,-66.69 241.22,-61.96 246,-55 254.84,-42.14 290.72,-29.61 320.27,-21.14"/>
<polygon fill="#63b8ff" stroke="#63b8ff" points="321.3,-24.48 330,-18.42 319.42,-17.74 321.3,-24.48"/>
</a>
</g>
</g>
<!-- Node25&#45;&gt;Node23 -->
<g id="edge34_Node000025_Node000023" class="edge">
<title>Node25&#45;&gt;Node23</title>
<g id="a_edge34_Node000025_Node000023"><a xlink:title=" ">
<path fill="none" stroke="#63b8ff" d="M452.68,-164.98C444.19,-157.23 431.44,-145.58 421.12,-136.14"/>
<polygon fill="#63b8ff" stroke="#63b8ff" points="423.23,-133.33 413.49,-129.17 418.51,-138.5 423.23,-133.33"/>
</a>
</g>
</g>
<!-- Node26&#45;&gt;Node6 -->
<g id="edge37_Node000026_Node000006" class="edge">
<title>Node26&#45;&gt;Node6</title>
<g id="a_edge37_Node000026_Node000006"><a xlink:title=" ">
<path fill="none" stroke="#63b8ff" d="M610.03,-164.75C607.64,-157.72 604.21,-147.62 601.23,-138.84"/>
<polygon fill="#63b8ff" stroke="#63b8ff" points="604.45,-137.43 597.92,-129.09 597.82,-139.68 604.45,-137.43"/>
</a>
</g>
</g>
<!-- Node26&#45;&gt;Node14 -->
<g id="edge39_Node000026_Node000014" class="edge">
<title>Node26&#45;&gt;Node14</title>
<g id="a_edge39_Node000026_Node000014"><a xlink:title=" ">
<path fill="none" stroke="#63b8ff" d="M579.21,-164.97C549.62,-157.05 505.75,-144.22 469,-129 452.29,-122.08 449.77,-116.78 433,-110 411.58,-101.34 352.95,-85.03 314.81,-74.74"/>
<polygon fill="#63b8ff" stroke="#63b8ff" points="315.68,-71.35 305.11,-72.14 313.86,-78.11 315.68,-71.35"/>
</a>
</g>
</g>
<!-- Node26&#45;&gt;Node16 -->
<g id="edge38_Node000026_Node000016" class="edge">
<title>Node26&#45;&gt;Node16</title>
<g id="a_edge38_Node000026_Node000016"><a xlink:title=" ">
<path fill="none" stroke="#63b8ff" d="M592.88,-164.84C548.62,-145.8 442.64,-100.2 391.12,-78.03"/>
<polygon fill="#63b8ff" stroke="#63b8ff" points="392.43,-74.78 381.86,-74.05 389.67,-81.21 392.43,-74.78"/>
</a>
</g>
</g>
<!-- Node26&#45;&gt;Node21 -->
<g id="edge41_Node000026_Node000021" class="edge">
<title>Node26&#45;&gt;Node21</title>
<g id="a_edge41_Node000026_Node000021"><a xlink:title=" ">
<path fill="none" stroke="#63b8ff" d="M636.89,-164.99C673.17,-152.21 744.47,-127.68 806,-110 870.23,-91.54 903.27,-119.74 952,-74 964.24,-62.52 969.03,-43.63 970.88,-29.44"/>
<polygon fill="#63b8ff" stroke="#63b8ff" points="974.38,-29.57 971.82,-19.29 967.41,-28.92 974.38,-29.57"/>
</a>
</g>
</g>
<!-- Node27 -->
<g id="Node000027" class="node">
<title>Node27</title>
<g id="a_Node000027"><a xlink:title=" ">
<polygon fill="#e0e0e0" stroke="#999999" points="875,-129 815,-129 815,-110 875,-110 875,-129"/>
<text text-anchor="middle" x="845" y="-117" font-family="Helvetica,sans-Serif" font-size="10.00">concepts</text>
</a>
</g>
</g>
<!-- Node26&#45;&gt;Node27 -->
<g id="edge40_Node000026_Node000027" class="edge">
<title>Node26&#45;&gt;Node27</title>
<g id="a_edge40_Node000026_Node000027"><a xlink:title=" ">
<path fill="none" stroke="#63b8ff" d="M650.27,-164.98C692.61,-155.31 761.43,-139.59 804.9,-129.66"/>
<polygon fill="#63b8ff" stroke="#63b8ff" points="805.87,-133.03 814.84,-127.39 804.31,-126.21 805.87,-133.03"/>
</a>
</g>
</g>
<!-- Node28&#45;&gt;Node6 -->
<g id="edge43_Node000028_Node000006" class="edge">
<title>Node28&#45;&gt;Node6</title>
<g id="a_edge43_Node000028_Node000006"><a xlink:title=" ">
<path fill="none" stroke="#63b8ff" d="M883.85,-167.32C824.44,-157.69 709.85,-139.11 644.27,-128.48"/>
<polygon fill="#63b8ff" stroke="#63b8ff" points="644.61,-124.99 634.18,-126.85 643.49,-131.9 644.61,-124.99"/>
</a>
</g>
</g>
<!-- Node28&#45;&gt;Node8 -->
<g id="edge47_Node000028_Node000008" class="edge">
<title>Node28&#45;&gt;Node8</title>
<g id="a_edge47_Node000028_Node000008"><a xlink:title=" ">
<path fill="none" stroke="#63b8ff" d="M921.47,-164.86C920.69,-152.63 919.09,-129.57 917,-110 916.09,-101.46 914.85,-92.04 913.74,-84.07"/>
<polygon fill="#63b8ff" stroke="#63b8ff" points="917.18,-83.41 912.29,-74.01 910.25,-84.41 917.18,-83.41"/>
</a>
</g>
</g>
<!-- Node28&#45;&gt;Node16 -->
<g id="edge46_Node000028_Node000016" class="edge">
<title>Node28&#45;&gt;Node16</title>
<g id="a_edge46_Node000028_Node000016"><a xlink:title=" ">
<path fill="none" stroke="#63b8ff" d="M919.59,-164.67C915.18,-150.39 904.33,-122.57 884,-110 796.69,-56.03 530.48,-85.44 410.8,-73.82"/>
<polygon fill="#63b8ff" stroke="#63b8ff" points="411.05,-70.33 400.72,-72.7 410.27,-77.28 411.05,-70.33"/>
</a>
</g>
</g>
<!-- Node28&#45;&gt;Node20 -->
<g id="edge48_Node000028_Node000020" class="edge">
<title>Node28&#45;&gt;Node20</title>
<g id="a_edge48_Node000028_Node000020"><a xlink:title=" ">
<path fill="none" stroke="#63b8ff" d="M928.87,-164.73C944.97,-143.09 981.59,-86.6 952,-55 911.89,-12.17 498.69,-25.97 404.26,-18.64"/>
<polygon fill="#63b8ff" stroke="#63b8ff" points="404.46,-15.14 394.16,-17.61 403.75,-22.11 404.46,-15.14"/>
</a>
</g>
</g>
<!-- Node28&#45;&gt;Node21 -->
<g id="edge51_Node000028_Node000021" class="edge">
<title>Node28&#45;&gt;Node21</title>
<g id="a_edge51_Node000028_Node000021"><a xlink:title=" ">
<path fill="none" stroke="#63b8ff" d="M960.09,-173.75C994.73,-171.68 1044.13,-162.51 1069,-129 1098.14,-89.73 1035.35,-45.73 997.67,-24.06"/>
<polygon fill="#63b8ff" stroke="#63b8ff" points="999.14,-20.87 988.71,-19.04 995.73,-26.98 999.14,-20.87"/>
</a>
</g>
</g>
<!-- Node28&#45;&gt;Node23 -->
<g id="edge50_Node000028_Node000023" class="edge">
<title>Node28&#45;&gt;Node23</title>
<g id="a_edge50_Node000028_Node000023"><a xlink:title=" ">
<path fill="none" stroke="#63b8ff" d="M883.91,-169.6C785.35,-159.52 523.41,-132.72 434.23,-123.59"/>
<polygon fill="#63b8ff" stroke="#63b8ff" points="434.53,-120.11 424.23,-122.57 433.82,-127.07 434.53,-120.11"/>
</a>
</g>
</g>
<!-- Node28&#45;&gt;Node27 -->
<g id="edge49_Node000028_Node000027" class="edge">
<title>Node28&#45;&gt;Node27</title>
<g id="a_edge49_Node000028_Node000027"><a xlink:title=" ">
<path fill="none" stroke="#63b8ff" d="M909.63,-164.98C897.91,-156.92 880.08,-144.65 866.11,-135.03"/>
<polygon fill="#63b8ff" stroke="#63b8ff" points="867.82,-131.96 857.6,-129.17 863.85,-137.72 867.82,-131.96"/>
</a>
</g>
</g>
<!-- Node29 -->
<g id="Node000029" class="node">
<title>Node29</title>
<g id="a_Node000029"><a xlink:href="shm__span_8h.html" target="_top" xlink:title=" ">
<polygon fill="white" stroke="#666666" points="1192.5,-129 1117.5,-129 1117.5,-110 1192.5,-110 1192.5,-129"/>
<text text-anchor="middle" x="1155" y="-117" font-family="Helvetica,sans-Serif" font-size="10.00">shm_span.h</text>
</a>
</g>
</g>
<!-- Node28&#45;&gt;Node29 -->
<g id="edge44_Node000028_Node000029" class="edge">
<title>Node28&#45;&gt;Node29</title>
<g id="a_edge44_Node000028_Node000029"><a xlink:title=" ">
<path fill="none" stroke="#63b8ff" d="M959.44,-164.98C999.65,-155.84 1063.68,-141.27 1107.44,-131.32"/>
<polygon fill="#63b8ff" stroke="#63b8ff" points="1108.3,-134.71 1117.27,-129.08 1106.74,-127.89 1108.3,-134.71"/>
</a>
</g>
</g>
<!-- Node31 -->
<g id="Node000031" class="node">
<title>Node31</title>
<g id="a_Node000031"><a xlink:title=" ">
<polygon fill="#e0e0e0" stroke="#999999" points="1060.5,-129 1007.5,-129 1007.5,-110 1060.5,-110 1060.5,-129"/>
<text text-anchor="middle" x="1034" y="-117" font-family="Helvetica,sans-Serif" font-size="10.00">iterator</text>
</a>
</g>
</g>
<!-- Node28&#45;&gt;Node31 -->
<g id="edge52_Node000028_Node000031" class="edge">
<title>Node28&#45;&gt;Node31</title>
<g id="a_edge52_Node000028_Node000031"><a xlink:title=" ">
<path fill="none" stroke="#63b8ff" d="M939.99,-164.98C957.93,-156.5 985.72,-143.35 1006.43,-133.54"/>
<polygon fill="#63b8ff" stroke="#63b8ff" points="1008.14,-136.61 1015.68,-129.17 1005.14,-130.28 1008.14,-136.61"/>
</a>
</g>
</g>
<!-- Node30 -->
<g id="Node000030" class="node">
<title>Node30</title>
<g id="a_Node000030"><a xlink:title=" ">
<polygon fill="#e0e0e0" stroke="#999999" points="1189.5,-74 1120.5,-74 1120.5,-55 1189.5,-55 1189.5,-74"/>
<text text-anchor="middle" x="1155" y="-62" font-family="Helvetica,sans-Serif" font-size="10.00">type_traits</text>
</a>
</g>
</g>
<!-- Node29&#45;&gt;Node30 -->
<g id="edge45_Node000029_Node000030" class="edge">
<title>Node29&#45;&gt;Node30</title>
<g id="a_edge45_Node000029_Node000030"><a xlink:title=" ">
<path fill="none" stroke="#63b8ff" d="M1155,-109.75C1155,-102.8 1155,-92.85 1155,-84.13"/>
<polygon fill="#63b8ff" stroke="#63b8ff" points="1158.5,-84.09 1155,-74.09 1151.5,-84.09 1158.5,-84.09"/>
</a>
</g>
</g>
</g>
</svg>
